<?xml version="1.0" encoding="utf-8"?>
<!-- Generator: Adobe Illustrator 25.4.0, SVG Export Plug-In . SVG Version: 6.00 Build 0)  -->
<svg version="1.1" id="Layer_1" xmlns="http://www.w3.org/2000/svg" xmlns:xlink="http://www.w3.org/1999/xlink" x="0px" y="0px"
	 viewBox="0 0 841.89 595.28" style="enable-background:new 0 0 841.89 595.28;" xml:space="preserve">
<style type="text/css">
	.st0{opacity:0.16;}
	.st1{fill:#606060;}
</style>
<g class="st0">
	<path class="st1" d="M348.01,548.54c0.13-0.03,0.27,0.01,0.36,0.11l65.23,70.95c0.1,0.11,0.12,0.27,0.06,0.4
		c-0.06,0.13-0.19,0.22-0.34,0.21l-68.3-1.79c-0.1,0-0.19-0.04-0.26-0.12c-0.07-0.07-0.1-0.17-0.1-0.27l3.07-69.17
		c0.01-0.15,0.1-0.28,0.24-0.33C347.99,548.55,348,548.54,348.01,548.54z M412.47,619.46l-64.04-69.67l-3.02,67.91L412.47,619.46z"
		/>
	<path class="st1" d="M528.83,567.96c0.02,0,0.03-0.01,0.05-0.01l112.53-13.53c0.18-0.02,0.35,0.09,0.4,0.27
		c0.05,0.18-0.05,0.36-0.21,0.43l-106.67,44.09c-0.1,0.04-0.22,0.04-0.31-0.02c-0.1-0.05-0.16-0.15-0.18-0.25l-5.86-30.56
		c-0.02-0.1,0-0.2,0.06-0.29C528.68,568.03,528.75,567.98,528.83,567.96z M638.84,555.47l-109.48,13.16l5.7,29.74L638.84,555.47z"/>
	<path class="st1" d="M528.83,567.96c0.09-0.02,0.18-0.01,0.26,0.03c0.1,0.05,0.17,0.15,0.19,0.26l5.86,30.56
		c0.02,0.1,0,0.2-0.06,0.28c-0.06,0.08-0.13,0.15-0.24,0.15l-121.45,20.97c-0.18,0.03-0.36-0.08-0.41-0.25
		c-0.05-0.18,0.03-0.37,0.2-0.44l115.59-51.53C528.79,567.97,528.81,567.97,528.83,567.96z M534.35,598.58l-5.7-29.74l-112.49,50.15
		L534.35,598.58z"/>
	<path class="st1" d="M768.8,375.8c0.08-0.02,0.16-0.01,0.24,0.02c0.15,0.06,0.23,0.22,0.22,0.38l-12.73,114.31
		c-0.01,0.13-0.1,0.24-0.21,0.29c-0.12,0.06-0.26,0.04-0.36-0.03l-54.2-37.48c-0.09-0.06-0.14-0.15-0.16-0.26
		c-0.01-0.1,0.02-0.21,0.09-0.29l66.93-76.83C768.66,375.86,768.73,375.82,768.8,375.8z M755.86,489.82l12.53-112.54l-65.89,75.63
		L755.86,489.82z"/>
	<path class="st1" d="M410.72,503.66c0.09-0.02,0.18-0.01,0.27,0.03l118.11,64.3c0.12,0.07,0.2,0.2,0.19,0.34
		c-0.01,0.14-0.09,0.26-0.22,0.32l-115.59,51.53c-0.12,0.06-0.24,0.04-0.35-0.02c-0.1-0.07-0.17-0.18-0.17-0.3l-2.51-115.84
		c0-0.13,0.06-0.25,0.18-0.32C410.66,503.68,410.69,503.67,410.72,503.66z M528.1,568.28l-116.9-63.65l2.49,114.65L528.1,568.28z"/>
	<path class="st1" d="M383.28,485.91c0.11-0.03,0.2-0.01,0.29,0.05l27.45,17.75c0.1,0.07,0.17,0.18,0.17,0.3
		c0,0.12-0.05,0.24-0.15,0.31l-62.71,44.88c-0.14,0.1-0.33,0.09-0.46-0.03c-0.13-0.11-0.16-0.3-0.08-0.45l35.26-62.63
		C383.1,486,383.18,485.94,383.28,485.91z M410.17,504.03l-26.67-17.24l-34.26,60.85L410.17,504.03z"/>
	<path class="st1" d="M410.72,503.66c0.08-0.02,0.18-0.01,0.26,0.03c0.12,0.06,0.2,0.18,0.2,0.32l2.51,115.84
		c0,0.15-0.09,0.29-0.23,0.35c-0.14,0.06-0.3,0.02-0.41-0.09l-65.23-70.95c-0.07-0.08-0.11-0.18-0.09-0.29
		c0.01-0.1,0.07-0.2,0.15-0.26l62.71-44.88C410.64,503.69,410.68,503.67,410.72,503.66z M412.94,618.88l-2.48-114.17l-61.81,44.24
		L412.94,618.88z"/>
	<path class="st1" d="M348.01,548.54c0.09-0.02,0.19-0.01,0.28,0.04c0.12,0.07,0.18,0.2,0.18,0.33l-3.07,69.17
		c-0.01,0.18-0.14,0.34-0.33,0.35l-131.68,12.41c-0.17,0.02-0.33-0.09-0.38-0.25c-0.05-0.16,0.01-0.34,0.16-0.43l134.75-81.58
		C347.95,548.56,347.98,548.55,348.01,548.54z M344.68,617.73l3.03-68.16l-132.8,80.39L344.68,617.73z"/>
	<path class="st1" d="M159.53,479.05c0.03-0.01,0.07-0.01,0.1-0.01l223.75,6.86c0.13,0,0.25,0.07,0.31,0.19
		c0.06,0.11,0.06,0.25,0,0.36l-35.26,62.63c-0.09,0.16-0.28,0.22-0.45,0.17l-188.48-69.49c-0.17-0.06-0.27-0.24-0.23-0.41
		C159.29,479.2,159.39,479.09,159.53,479.05z M382.75,486.62l-220.89-6.77l186.08,68.6L382.75,486.62z"/>
	<path class="st1" d="M159.53,479.05c0.07-0.02,0.15-0.02,0.22,0.01l188.48,69.49c0.13,0.05,0.22,0.17,0.24,0.31
		c0.01,0.14-0.05,0.28-0.17,0.35l-134.75,81.58c-0.09,0.06-0.21,0.07-0.31,0.03c-0.1-0.04-0.19-0.12-0.22-0.22l-53.73-151.06
		c-0.05-0.13-0.01-0.28,0.09-0.38C159.41,479.1,159.47,479.07,159.53,479.05z M347.26,548.97l-187.04-68.95l53.32,149.9
		L347.26,548.97z"/>
	<path class="st1" d="M159.53,479.05c0.06-0.01,0.12-0.02,0.18,0c0.12,0.03,0.21,0.12,0.25,0.23l53.73,151.06
		c0.06,0.17-0.01,0.35-0.16,0.44c-0.16,0.09-0.35,0.05-0.46-0.08l-95.49-113.69c-0.13-0.15-0.11-0.38,0.04-0.51l41.76-37.37
		C159.42,479.1,159.47,479.07,159.53,479.05z M212.32,628.68l-52.87-148.63l-41.09,36.77L212.32,628.68z"/>
	<path class="st1" d="M701.87,452.63c0.1-0.03,0.21-0.01,0.3,0.05l54.2,37.48c0.1,0.07,0.16,0.19,0.16,0.31
		c0,0.12-0.07,0.24-0.17,0.3l-45.98,28.78c-0.1,0.06-0.24,0.07-0.35,0.02c-0.11-0.05-0.19-0.16-0.21-0.29l-8.22-66.26
		c-0.02-0.14,0.05-0.28,0.17-0.36C701.8,452.65,701.83,452.64,701.87,452.63z M755.49,490.46l-53.07-36.7l8.05,64.88L755.49,490.46z
		"/>
	<path class="st1" d="M756.07,490.12c0.11-0.03,0.22-0.01,0.31,0.06c0.12,0.09,0.17,0.25,0.13,0.39l-23.86,85.11
		c-0.04,0.15-0.18,0.25-0.33,0.27c-0.16,0.01-0.3-0.09-0.36-0.23l-22.12-56.33c-0.06-0.16,0-0.35,0.15-0.44l45.98-28.78
		C756,490.14,756.03,490.12,756.07,490.12z M732.24,574.43l23.31-83.14l-44.92,28.11L732.24,574.43z"/>
	<path class="st1" d="M710.09,518.89c0.05-0.01,0.11-0.02,0.16-0.01c0.12,0.02,0.22,0.11,0.27,0.23l22.12,56.33
		c0.05,0.13,0.02,0.28-0.08,0.39c-0.1,0.1-0.25,0.14-0.38,0.1l-57.87-18.99c-0.12-0.04-0.21-0.14-0.24-0.26
		c-0.03-0.12,0-0.25,0.09-0.34l35.75-37.34C709.96,518.94,710.02,518.91,710.09,518.89z M731.68,574.99l-21.63-55.07l-34.95,36.5
		L731.68,574.99z"/>
	<path class="st1" d="M772.47,588.16c0.06-0.02,0.13-0.02,0.2,0l45.22,13.47c0.15,0.04,0.25,0.17,0.26,0.32
		c0.01,0.15-0.07,0.29-0.21,0.36l-93.21,43.35c-0.17,0.07-0.34,0.02-0.45-0.11c-0.1-0.14-0.1-0.33,0.01-0.46l47.99-56.83
		C772.33,588.22,772.4,588.18,772.47,588.16z M816.75,602.06l-44.06-13.13l-46.77,55.37L816.75,602.06z"/>
	<path class="st1" d="M756.07,490.12c0.04-0.01,0.07-0.01,0.11-0.01c0.17,0.01,0.31,0.14,0.34,0.31l16.4,98.04
		c0.02,0.13-0.02,0.25-0.12,0.34c-0.1,0.08-0.23,0.11-0.35,0.07l-40.26-12.94c-0.19-0.06-0.29-0.26-0.24-0.45l23.86-85.11
		C755.84,490.24,755.95,490.15,756.07,490.12z M772.1,587.98l-16.03-95.83l-23.32,83.18L772.1,587.98z"/>
	<path class="st1" d="M732.21,575.22c0.07-0.02,0.14-0.02,0.2,0.01l40.26,12.93c0.12,0.04,0.21,0.13,0.24,0.25
		c0.03,0.12,0.01,0.24-0.07,0.34l-47.99,56.83c-0.1,0.12-0.27,0.16-0.43,0.1c-0.15-0.06-0.24-0.22-0.22-0.38l7.74-69.76
		c0.01-0.11,0.07-0.21,0.16-0.27C732.14,575.25,732.17,575.23,732.21,575.22z M771.93,588.69l-39.31-12.63l-7.55,68.12
		L771.93,588.69z"/>
	<path class="st1" d="M627.26,601.02C627.26,601.02,627.26,601.02,627.26,601.02l104.96-25.8c0.12-0.03,0.24,0,0.33,0.08
		c0.09,0.08,0.14,0.2,0.12,0.32l-7.74,69.76c-0.01,0.12-0.08,0.22-0.18,0.28c-0.1,0.06-0.22,0.06-0.33,0.02l-97.22-43.96
		c-0.14-0.07-0.23-0.21-0.21-0.37C627,601.19,627.11,601.06,627.26,601.02z M731.88,576.06l-103.41,25.42l95.79,43.32L731.88,576.06
		z"/>
	<path class="st1" d="M674.34,556.23c0.07-0.02,0.14-0.01,0.21,0.01l57.87,18.99c0.16,0.05,0.26,0.2,0.25,0.36
		c-0.01,0.16-0.12,0.3-0.27,0.34c0,0,0,0,0,0l-104.95,25.8c-0.16,0.04-0.33-0.03-0.41-0.18c-0.08-0.15-0.05-0.33,0.07-0.44
		l47.08-44.79C674.22,556.28,674.28,556.25,674.34,556.23z M730.97,575.53L674.52,557l-45.92,43.69L730.97,575.53z"/>
	<path class="st1" d="M641.36,554.43c0.04-0.01,0.07-0.01,0.11-0.01l32.98,1.8c0.15,0.01,0.27,0.1,0.32,0.24
		c0.05,0.14,0.01,0.29-0.09,0.39l-47.08,44.79c-0.12,0.11-0.3,0.13-0.44,0.05c-0.14-0.09-0.21-0.26-0.16-0.42l14.1-46.59
		C641.14,554.55,641.24,554.46,641.36,554.43z M673.56,556.91l-31.84-1.74l-13.62,44.99L673.56,556.91z"/>
	<path class="st1" d="M641.36,554.43c0.12-0.03,0.25,0,0.34,0.08c0.1,0.1,0.15,0.24,0.1,0.38l-14.1,46.59
		c-0.05,0.16-0.2,0.27-0.36,0.26l-92.57-2.5c-0.17,0-0.32-0.13-0.35-0.3c-0.03-0.17,0.06-0.34,0.22-0.4l106.67-44.09
		C641.33,554.44,641.34,554.43,641.36,554.43z M627.08,601l13.8-45.58l-104.36,43.14L627.08,601z"/>
	<path class="st1" d="M448.93,439.97c0.03-0.01,0.07-0.01,0.11-0.01l188.34,8.11c0.14,0.01,0.27,0.09,0.32,0.22
		c0.06,0.13,0.03,0.28-0.07,0.39L529.19,568.56c-0.08,0.08-0.19,0.13-0.3,0.12c-0.12-0.01-0.22-0.07-0.28-0.17l-79.9-127.99
		c-0.07-0.11-0.07-0.26-0.01-0.38C448.75,440.06,448.83,440,448.93,439.97z M636.57,448.77l-186.87-8.04l79.28,126.99L636.57,448.77
		z"/>
	<path class="st1" d="M448.93,439.97c0.03-0.01,0.06-0.01,0.09-0.01c0.13,0,0.25,0.06,0.31,0.17l79.9,127.99
		c0.09,0.14,0.07,0.32-0.04,0.44c-0.12,0.12-0.3,0.15-0.44,0.07l-118.11-64.3c-0.09-0.05-0.15-0.13-0.18-0.22
		c-0.03-0.1-0.01-0.2,0.04-0.28l38.2-63.69C448.75,440.05,448.84,440,448.93,439.97z M527.87,567.33l-78.85-126.3l-37.7,62.85
		L527.87,567.33z"/>
	<path class="st1" d="M117.77,516.43L117.77,516.43c0.14-0.04,0.28,0.01,0.37,0.12l95.49,113.69c0.1,0.12,0.11,0.29,0.04,0.42
		c-0.08,0.13-0.23,0.21-0.38,0.18l-114.31-19.9c-0.1-0.02-0.18-0.07-0.24-0.15c-0.05-0.08-0.08-0.18-0.06-0.28l18.81-93.79
		C117.52,516.57,117.63,516.46,117.77,516.43z M212.42,629.94L118.07,517.6l-18.59,92.68L212.42,629.94z"/>
	<path class="st1" d="M701.87,452.63c0.07-0.02,0.15-0.02,0.22,0.01c0.13,0.05,0.22,0.16,0.24,0.3l8.22,66.26
		c0.01,0.1-0.02,0.2-0.08,0.28c-0.06,0.08-0.16,0.13-0.26,0.13l-86.32,6.18c-0.16,0.01-0.3-0.08-0.36-0.22
		c-0.06-0.14-0.03-0.31,0.09-0.41l78.1-72.44C701.75,452.67,701.81,452.65,701.87,452.63z M709.77,518.91l-8.09-65.17l-76.81,71.25
		L709.77,518.91z"/>
	<path class="st1" d="M637.27,448.08c0.04-0.01,0.08-0.01,0.12-0.01l64.6,4.55c0.15,0.01,0.27,0.11,0.32,0.24
		c0.05,0.14,0.01,0.29-0.1,0.39l-78.1,72.44c-0.11,0.11-0.28,0.13-0.43,0.05c-0.14-0.08-0.21-0.23-0.19-0.39l13.5-76.99
		C637.03,448.22,637.13,448.11,637.27,448.08z M701.09,453.29l-63.42-4.47l-13.26,75.6L701.09,453.29z"/>
	<path class="st1" d="M623.77,525.07c0.02-0.01,0.04-0.01,0.07-0.01l86.32-6.18c0.15-0.01,0.29,0.07,0.36,0.21
		c0.06,0.14,0.04,0.3-0.07,0.41l-35.75,37.34c-0.12,0.12-0.31,0.15-0.46,0.06l-50.57-31.16c-0.14-0.08-0.2-0.24-0.17-0.4
		C623.54,525.21,623.64,525.11,623.77,525.07z M709.26,519.68l-84.24,6.03l49.35,30.41L709.26,519.68z"/>
	<path class="st1" d="M623.77,525.07c0.09-0.02,0.2-0.01,0.28,0.04l50.57,31.16c0.14,0.09,0.21,0.26,0.16,0.42
		c-0.05,0.16-0.21,0.27-0.37,0.26l-32.98-1.8c-0.12-0.01-0.23-0.07-0.29-0.18l-17.59-29.36c-0.09-0.14-0.06-0.33,0.06-0.45
		C623.65,525.12,623.71,525.09,623.77,525.07z M673.01,556.14l-48.06-29.61l16.72,27.9L673.01,556.14z"/>
	<path class="st1" d="M637.27,448.08c0.08-0.02,0.17-0.01,0.25,0.03c0.15,0.07,0.23,0.23,0.2,0.39l-13.5,76.99
		c-0.02,0.12-0.1,0.22-0.21,0.27l-94.94,42.89c-0.17,0.08-0.35,0.02-0.45-0.12c-0.1-0.14-0.09-0.33,0.02-0.46l108.44-119.88
		C637.14,448.13,637.2,448.1,637.27,448.08z M623.53,525.17l13.25-75.55L530.37,567.26L623.53,525.17z"/>
	<path class="st1" d="M623.77,525.07c0.16-0.04,0.32,0.03,0.41,0.17l17.59,29.36c0.06,0.11,0.07,0.24,0.02,0.35
		c-0.06,0.11-0.15,0.18-0.29,0.2l-112.53,13.53c-0.18,0.02-0.35-0.09-0.4-0.27c-0.05-0.17,0.04-0.36,0.2-0.43l94.94-42.89
		C623.73,525.08,623.75,525.08,623.77,525.07z M640.84,554.49l-17.13-28.59l-92.46,41.77L640.84,554.49z"/>
	<path class="st1" d="M-12.97,573.07c0.07-0.02,0.14-0.02,0.21,0.01l68.89,22.81c0.11,0.04,0.2,0.13,0.23,0.24
		c0.03,0.11,0.01,0.24-0.06,0.33l-86.65,110.95c-0.1,0.13-0.28,0.18-0.43,0.11s-0.24-0.22-0.22-0.39l17.76-133.76
		c0.01-0.11,0.08-0.2,0.17-0.26C-13.04,573.09-13.01,573.08-12.97,573.07z M55.41,596.42l-67.98-22.51L-30.1,705.89L55.41,596.42z"
		/>
	<path class="st1" d="M344.01,549.95c0.58,2.26,2.89,3.62,5.15,3.04c2.26-0.58,3.62-2.89,3.04-5.15c-0.58-2.26-2.89-3.62-5.15-3.04
		C344.79,545.38,343.43,547.69,344.01,549.95z"/>
	<path class="st1" d="M520.32,570.53c1.22,4.75,6.07,7.61,10.82,6.39c4.75-1.22,7.61-6.07,6.39-10.82
		c-1.22-4.75-6.07-7.61-10.82-6.39C521.96,560.94,519.1,565.78,520.32,570.53z"/>
	<path class="st1" d="M635.67,556.27c0.82,3.19,4.07,5.11,7.26,4.29c3.19-0.82,5.11-4.07,4.29-7.26c-0.82-3.19-4.07-5.11-7.26-4.29
		C636.77,549.83,634.85,553.08,635.67,556.27z"/>
	<path class="st1" d="M527.87,600.66c0.98,3.82,4.87,6.12,8.69,5.13s6.12-4.87,5.13-8.69c-0.98-3.82-4.87-6.12-8.69-5.13
		C529.19,592.95,526.89,596.84,527.87,600.66z"/>
	<path class="st1" d="M524.88,569.36c0.57,2.23,2.85,3.58,5.08,3c2.23-0.57,3.58-2.85,3-5.08c-0.57-2.23-2.85-3.58-5.08-3
		C525.65,564.85,524.31,567.12,524.88,569.36z"/>
	<path class="st1" d="M531.05,599.84c0.53,2.06,2.63,3.3,4.69,2.77c2.06-0.53,3.3-2.63,2.77-4.69c-0.53-2.06-2.63-3.3-4.69-2.77
		C531.76,595.68,530.52,597.78,531.05,599.84z"/>
	<path class="st1" d="M694.57,454.89c1.05,4.08,5.21,6.53,9.29,5.48c4.08-1.05,6.53-5.21,5.48-9.29c-1.05-4.08-5.21-6.53-9.29-5.48
		C695.98,446.65,693.52,450.81,694.57,454.89z"/>
	<path class="st1" d="M755.54,490.63c0.09,0.34,0.44,0.55,0.78,0.46c0.34-0.09,0.55-0.44,0.46-0.78c-0.09-0.34-0.44-0.55-0.78-0.46
		C755.66,489.94,755.45,490.29,755.54,490.63z"/>
	<path class="st1" d="M763.02,377.67c0.83,3.24,4.14,5.19,7.38,4.36c3.24-0.83,5.19-4.14,4.36-7.38c-0.83-3.24-4.14-5.19-7.38-4.36
		C764.14,371.12,762.19,374.43,763.02,377.67z"/>
	<path class="st1" d="M403.76,505.83c1,3.9,4.98,6.25,8.88,5.24c3.9-1,6.25-4.98,5.24-8.88c-1-3.9-4.98-6.25-8.88-5.24
		C405.1,497.96,402.75,501.93,403.76,505.83z"/>
	<path class="st1" d="M524.37,569.49c0.65,2.52,3.21,4.03,5.73,3.39c2.52-0.65,4.03-3.21,3.39-5.73c-0.65-2.52-3.21-4.03-5.73-3.38
		C525.23,564.41,523.72,566.97,524.37,569.49z"/>
	<path class="st1" d="M408.13,504.7c0.38,1.48,1.89,2.38,3.38,2c1.48-0.38,2.38-1.89,2-3.38c-0.38-1.48-1.89-2.38-3.38-2
		C408.64,501.71,407.75,503.22,408.13,504.7z"/>
	<path class="st1" d="M340.86,550.76c1.03,4,5.11,6.41,9.11,5.38c4-1.03,6.41-5.11,5.38-9.11c-1.03-4-5.11-6.41-9.11-5.38
		C342.24,542.68,339.83,546.76,340.86,550.76z"/>
	<path class="st1" d="M374.09,488.66c1.32,5.12,6.54,8.21,11.66,6.89c5.12-1.32,8.21-6.54,6.89-11.66
		c-1.32-5.12-6.54-8.21-11.66-6.89C375.86,478.31,372.77,483.53,374.09,488.66z"/>
	<path class="st1" d="M403.66,505.86c1.02,3.95,5.05,6.33,9,5.32c3.95-1.02,6.33-5.05,5.32-9c-1.02-3.95-5.05-6.33-9-5.32
		C405.02,497.87,402.64,501.9,403.66,505.86z"/>
	<path class="st1" d="M342.38,550.37c0.81,3.16,4.03,5.06,7.19,4.25c3.16-0.81,5.06-4.03,4.25-7.19c-0.81-3.16-4.03-5.06-7.19-4.25
		C343.47,543.99,341.57,547.21,342.38,550.37z"/>
	<path class="st1" d="M346.59,549.29c0.22,0.84,1.07,1.34,1.91,1.13c0.84-0.22,1.34-1.07,1.13-1.91c-0.22-0.84-1.07-1.34-1.91-1.13
		C346.88,547.59,346.37,548.45,346.59,549.29z"/>
	<path class="st1" d="M153.01,481.11c0.94,3.65,4.66,5.84,8.31,4.91c3.65-0.94,5.84-4.66,4.91-8.31c-0.94-3.65-4.66-5.84-8.31-4.91
		C154.27,473.74,152.08,477.46,153.01,481.11z"/>
	<path class="st1" d="M338.41,551.39c1.38,5.35,6.84,8.58,12.19,7.2c5.35-1.38,8.58-6.84,7.2-12.19s-6.84-8.58-12.19-7.2
		C340.25,540.58,337.03,546.04,338.41,551.39z"/>
	<path class="st1" d="M380.69,486.96c0.38,1.48,1.89,2.37,3.37,1.99c1.48-0.38,2.37-1.89,1.99-3.37c-0.38-1.48-1.89-2.37-3.37-1.99
		C381.2,483.97,380.31,485.48,380.69,486.96z"/>
	<path class="st1" d="M159.07,479.55c0.08,0.31,0.39,0.49,0.7,0.41c0.31-0.08,0.49-0.39,0.41-0.7c-0.08-0.31-0.39-0.49-0.7-0.41
		C159.17,478.93,158.99,479.24,159.07,479.55z"/>
	<path class="st1" d="M347.53,549.04c0.08,0.32,0.41,0.51,0.73,0.43c0.32-0.08,0.51-0.41,0.43-0.73c-0.08-0.32-0.41-0.51-0.73-0.43
		C347.64,548.4,347.45,548.72,347.53,549.04z"/>
	<path class="st1" d="M158.56,479.68c0.15,0.59,0.75,0.94,1.33,0.79c0.59-0.15,0.94-0.75,0.79-1.33c-0.15-0.59-0.75-0.94-1.33-0.79
		C158.76,478.5,158.41,479.1,158.56,479.68z"/>
	<path class="st1" d="M114.62,517.61c0.46,1.79,2.28,2.86,4.06,2.4c1.79-0.46,2.86-2.28,2.4-4.06c-0.46-1.79-2.28-2.86-4.06-2.4
		C115.24,514.01,114.16,515.83,114.62,517.61z"/>
	<path class="st1" d="M704.85,520.62c0.76,2.94,3.75,4.71,6.7,3.95c2.94-0.76,4.71-3.75,3.95-6.7c-0.76-2.94-3.75-4.71-6.7-3.95
		C705.87,514.68,704.1,517.68,704.85,520.62z"/>
	<path class="st1" d="M697.39,454.16c0.65,2.52,3.22,4.04,5.75,3.39c2.52-0.65,4.04-3.22,3.39-5.75c-0.65-2.52-3.22-4.04-5.75-3.39
		C698.26,449.07,696.74,451.64,697.39,454.16z"/>
	<path class="st1" d="M753.77,491.09c0.34,1.32,1.69,2.12,3.01,1.78c1.32-0.34,2.12-1.69,1.78-3.01c-0.34-1.32-1.69-2.12-3.01-1.78
		C754.22,488.41,753.42,489.76,753.77,491.09z"/>
	<path class="st1" d="M708.48,519.69c0.24,0.94,1.2,1.51,2.14,1.26c0.94-0.24,1.51-1.2,1.26-2.14c-0.24-0.94-1.2-1.51-2.14-1.26
		C708.8,517.79,708.24,518.75,708.48,519.69z"/>
	<path class="st1" d="M729.61,576.27c0.38,1.49,1.9,2.38,3.38,2c1.49-0.38,2.38-1.9,2-3.38c-0.38-1.49-1.9-2.38-3.38-2
		C730.12,573.27,729.23,574.78,729.61,576.27z"/>
	<path class="st1" d="M753.36,491.19c0.4,1.55,1.98,2.48,3.53,2.08s2.48-1.98,2.08-3.53c-0.4-1.55-1.98-2.48-3.53-2.08
		C753.89,488.06,752.96,489.64,753.36,491.19z"/>
	<path class="st1" d="M670.49,557.6c0.56,2.18,2.78,3.49,4.95,2.93c2.18-0.56,3.49-2.78,2.93-4.95c-0.56-2.18-2.78-3.49-4.95-2.93
		C671.24,553.21,669.93,555.42,670.49,557.6z"/>
	<path class="st1" d="M704.68,520.66c0.78,3.03,3.87,4.86,6.91,4.08c3.03-0.78,4.86-3.87,4.08-6.91c-0.78-3.03-3.87-4.86-6.91-4.08
		C705.73,514.53,703.9,517.63,704.68,520.66z"/>
	<path class="st1" d="M729.45,576.31c0.4,1.57,2.01,2.52,3.58,2.11c1.57-0.4,2.52-2.01,2.11-3.58c-0.4-1.57-2.01-2.52-3.58-2.12
		C730,573.13,729.05,574.74,729.45,576.31z"/>
	<path class="st1" d="M769.02,589.43c0.5,1.96,2.5,3.14,4.46,2.63c1.96-0.5,3.14-2.5,2.63-4.46c-0.5-1.96-2.5-3.14-4.46-2.63
		C769.69,585.47,768.51,587.47,769.02,589.43z"/>
	<path class="st1" d="M770.05,589.16c0.36,1.39,1.77,2.23,3.16,1.87c1.39-0.36,2.23-1.77,1.87-3.16c-0.36-1.39-1.77-2.23-3.16-1.87
		C770.52,586.35,769.69,587.77,770.05,589.16z"/>
	<path class="st1" d="M730.33,576.09c0.28,1.09,1.39,1.75,2.49,1.47c1.09-0.28,1.75-1.39,1.47-2.49c-0.28-1.09-1.39-1.75-2.49-1.47
		C730.7,573.88,730.04,574.99,730.33,576.09z"/>
	<path class="st1" d="M751.65,491.63c0.64,2.49,3.18,3.99,5.67,3.35c2.49-0.64,3.99-3.18,3.35-5.67c-0.64-2.49-3.18-3.99-5.67-3.35
		C752.51,486.6,751.01,489.14,751.65,491.63z"/>
	<path class="st1" d="M771.45,588.8c0.16,0.62,0.79,0.99,1.4,0.83c0.62-0.16,0.99-0.79,0.83-1.4c-0.16-0.62-0.79-0.99-1.4-0.83
		C771.66,587.56,771.29,588.18,771.45,588.8z"/>
	<path class="st1" d="M730.57,576.02c0.25,0.96,1.22,1.53,2.17,1.28s1.53-1.22,1.28-2.17c-0.25-0.96-1.22-1.53-2.17-1.28
		S730.33,575.07,730.57,576.02z"/>
	<path class="st1" d="M620.63,603.11c0.95,3.71,4.74,5.94,8.45,4.99c3.71-0.95,5.94-4.74,4.99-8.45c-0.95-3.71-4.74-5.94-8.45-4.99
		C621.91,595.62,619.68,599.4,620.63,603.11z"/>
	<path class="st1" d="M729.72,576.24c0.37,1.43,1.82,2.29,3.25,1.92c1.43-0.37,2.29-1.82,1.92-3.25c-0.37-1.43-1.82-2.29-3.25-1.92
		C730.21,573.36,729.35,574.81,729.72,576.24z"/>
	<path class="st1" d="M672.13,557.18c0.33,1.27,1.62,2.03,2.89,1.71c1.27-0.33,2.03-1.62,1.71-2.89c-0.33-1.27-1.62-2.03-2.89-1.71
		C672.57,554.61,671.8,555.91,672.13,557.18z"/>
	<path class="st1" d="M727.79,576.74c0.64,2.49,3.18,3.99,5.68,3.35c2.49-0.64,3.99-3.18,3.35-5.68c-0.64-2.49-3.18-3.99-5.68-3.35
		C728.65,571.7,727.15,574.25,727.79,576.74z"/>
	<path class="st1" d="M637.81,555.72c0.52,2.01,2.56,3.22,4.57,2.7c2.01-0.52,3.22-2.56,2.7-4.57c-0.52-2.01-2.56-3.22-4.57-2.7
		C638.51,551.67,637.3,553.71,637.81,555.72z"/>
	<path class="st1" d="M668.79,558.04c0.8,3.11,3.97,4.99,7.09,4.19c3.11-0.8,4.99-3.97,4.19-7.09c-0.8-3.11-3.97-4.99-7.09-4.19
		C669.86,551.75,667.99,554.92,668.79,558.04z"/>
	<path class="st1" d="M529.95,600.12c0.69,2.67,3.41,4.28,6.08,3.59c2.67-0.69,4.27-3.41,3.59-6.08c-0.69-2.67-3.41-4.28-6.08-3.59
		C530.87,594.73,529.26,597.45,529.95,600.12z"/>
	<path class="st1" d="M637.42,555.82c0.57,2.23,2.84,3.57,5.07,2.99c2.23-0.57,3.56-2.84,2.99-5.07c-0.57-2.23-2.84-3.57-5.07-2.99
		C638.19,551.33,636.85,553.6,637.42,555.82z"/>
	<path class="st1" d="M446.73,440.91c0.32,1.26,1.61,2.02,2.87,1.7c1.26-0.32,2.02-1.61,1.7-2.87s-1.61-2.02-2.87-1.7
		C447.17,438.37,446.41,439.65,446.73,440.91z"/>
	<path class="st1" d="M526.32,568.98c0.37,1.44,1.83,2.3,3.27,1.93c1.44-0.37,2.3-1.83,1.93-3.27c-0.37-1.44-1.83-2.3-3.27-1.93
		C526.82,566.09,525.95,567.55,526.32,568.98z"/>
	<path class="st1" d="M631.07,450.05c0.89,3.48,4.44,5.57,7.92,4.68c3.48-0.89,5.57-4.44,4.67-7.92c-0.89-3.48-4.44-5.57-7.92-4.68
		C632.26,443.03,630.17,446.58,631.07,450.05z"/>
	<path class="st1" d="M447.9,440.61c0.16,0.62,0.79,0.99,1.41,0.83c0.62-0.16,0.99-0.79,0.83-1.41c-0.16-0.62-0.79-0.99-1.41-0.83
		C448.11,439.37,447.74,440,447.9,440.61z"/>
	<path class="st1" d="M407.57,504.85c0.46,1.79,2.29,2.87,4.08,2.41c1.79-0.46,2.87-2.29,2.41-4.08c-0.46-1.79-2.29-2.87-4.08-2.41
		C408.19,501.23,407.11,503.06,407.57,504.85z"/>
	<path class="st1" d="M527.86,568.59c0.15,0.59,0.75,0.94,1.33,0.79c0.59-0.15,0.94-0.75,0.79-1.33c-0.15-0.59-0.75-0.94-1.33-0.79
		C528.06,567.41,527.71,568,527.86,568.59z"/>
	<path class="st1" d="M524.72,601.47c1.43,5.56,7.09,8.9,12.65,7.47c5.56-1.43,8.9-7.09,7.47-12.65c-1.43-5.56-7.09-8.9-12.65-7.47
		C526.64,590.25,523.29,595.91,524.72,601.47z"/>
	<path class="st1" d="M114.87,517.55c0.43,1.65,2.11,2.64,3.76,2.22c1.65-0.42,2.64-2.11,2.22-3.76c-0.42-1.65-2.11-2.64-3.76-2.22
		C115.44,514.22,114.44,515.9,114.87,517.55z"/>
	<path class="st1" d="M620.49,603.14c0.98,3.79,4.84,6.07,8.63,5.1c3.79-0.98,6.07-4.84,5.1-8.63c-0.98-3.79-4.84-6.07-8.63-5.1
		C621.79,595.49,619.51,599.35,620.49,603.14z"/>
	<path class="st1" d="M622.29,525.83c0.22,0.87,1.11,1.39,1.97,1.16c0.87-0.22,1.39-1.11,1.17-1.97c-0.22-0.87-1.11-1.39-1.97-1.17
		C622.59,524.08,622.07,524.96,622.29,525.83z"/>
	<path class="st1" d="M709.32,519.47c0.12,0.47,0.61,0.76,1.08,0.64c0.47-0.12,0.76-0.61,0.64-1.08c-0.12-0.47-0.61-0.76-1.08-0.64
		C709.48,518.51,709.2,518.99,709.32,519.47z"/>
	<path class="st1" d="M698.5,453.88c0.49,1.91,2.44,3.06,4.35,2.57c1.91-0.49,3.06-2.44,2.57-4.35c-0.49-1.91-2.44-3.06-4.35-2.57
		C699.16,450.02,698.01,451.97,698.5,453.88z"/>
	<path class="st1" d="M621.63,526c0.32,1.23,1.57,1.97,2.8,1.66c1.23-0.32,1.97-1.57,1.66-2.8c-0.32-1.23-1.57-1.97-2.8-1.66
		C622.05,523.51,621.31,524.77,621.63,526z"/>
	<path class="st1" d="M636.63,448.62c0.1,0.4,0.51,0.64,0.91,0.54c0.4-0.1,0.64-0.51,0.54-0.91c-0.1-0.4-0.51-0.64-0.91-0.54
		C636.77,447.81,636.53,448.22,636.63,448.62z"/>
	<path class="st1" d="M699.22,453.69c0.39,1.51,1.93,2.42,3.44,2.03s2.42-1.93,2.03-3.44c-0.39-1.51-1.93-2.42-3.44-2.03
		C699.74,450.64,698.83,452.18,699.22,453.69z"/>
	<path class="st1" d="M620.91,526.19c0.42,1.63,2.08,2.61,3.71,2.19c1.63-0.42,2.61-2.08,2.19-3.71c-0.42-1.63-2.08-2.61-3.71-2.19
		C621.47,522.9,620.49,524.56,620.91,526.19z"/>
	<path class="st1" d="M668.82,558.03c0.8,3.1,3.95,4.96,7.05,4.17c3.1-0.8,4.96-3.95,4.17-7.05c-0.8-3.1-3.95-4.96-7.05-4.17
		C669.89,551.77,668.02,554.93,668.82,558.03z"/>
	<path class="st1" d="M707.67,519.89c0.36,1.39,1.77,2.22,3.15,1.86c1.39-0.36,2.22-1.77,1.86-3.15c-0.36-1.39-1.77-2.22-3.15-1.86
		C708.15,517.1,707.31,518.51,707.67,519.89z"/>
	<path class="st1" d="M620.52,526.29c0.47,1.85,2.36,2.96,4.2,2.48c1.85-0.48,2.96-2.36,2.48-4.2c-0.47-1.85-2.36-2.96-4.2-2.48
		C621.15,522.56,620.04,524.44,620.52,526.29z"/>
	<path class="st1" d="M637.37,555.84c0.58,2.26,2.88,3.61,5.14,3.03c2.26-0.58,3.61-2.88,3.03-5.14c-0.58-2.26-2.88-3.61-5.14-3.03
		C638.14,551.28,636.78,553.58,637.37,555.84z"/>
	<path class="st1" d="M670.87,557.5c0.51,1.96,2.51,3.15,4.47,2.64c1.96-0.51,3.15-2.51,2.64-4.47c-0.51-1.96-2.51-3.15-4.47-2.64
		C671.55,553.54,670.37,555.54,670.87,557.5z"/>
	<path class="st1" d="M618.54,526.8c0.76,2.94,3.75,4.71,6.69,3.95c2.94-0.76,4.71-3.75,3.95-6.69c-0.76-2.94-3.75-4.71-6.69-3.95
		C619.55,520.86,617.78,523.86,618.54,526.8z"/>
	<path class="st1" d="M526.52,568.93c0.34,1.33,1.7,2.13,3.02,1.79c1.33-0.34,2.13-1.7,1.79-3.02c-0.34-1.33-1.7-2.13-3.02-1.79
		C526.98,566.25,526.18,567.61,526.52,568.93z"/>
	<path class="st1" d="M632.38,449.71c0.71,2.75,3.52,4.41,6.27,3.7c2.75-0.71,4.41-3.52,3.7-6.27c-0.71-2.75-3.52-4.41-6.27-3.7
		C633.32,444.16,631.67,446.96,632.38,449.71z"/>
	<path class="st1" d="M619.3,526.6c0.65,2.52,3.21,4.03,5.73,3.38c2.52-0.65,4.03-3.21,3.38-5.73c-0.65-2.52-3.21-4.03-5.73-3.38
		C620.17,521.52,618.66,524.08,619.3,526.6z"/>
	<path class="st1" d="M523.38,569.74c0.79,3.06,3.91,4.9,6.97,4.11c3.06-0.79,4.9-3.91,4.11-6.97c-0.79-3.06-3.91-4.9-6.97-4.11
		C524.44,563.56,522.6,566.68,523.38,569.74z"/>
	<path class="st1" d="M640.22,555.1c0.18,0.68,0.87,1.09,1.55,0.92c0.68-0.18,1.09-0.87,0.92-1.55s-0.87-1.09-1.55-0.92
		C640.45,553.73,640.04,554.42,640.22,555.1z"/>
	<path class="st1" d="M53.18,596.96c0.4,1.56,2,2.51,3.56,2.1c1.56-0.4,2.51-2,2.1-3.56c-0.4-1.56-2-2.51-3.56-2.1
		C53.72,593.8,52.78,595.4,53.18,596.96z"/>
	<path class="st1" d="M53.72,596.82c0.33,1.27,1.62,2.03,2.89,1.71c1.27-0.33,2.03-1.62,1.71-2.89c-0.33-1.27-1.62-2.03-2.89-1.71
		C54.15,594.26,53.39,595.56,53.72,596.82z"/>
	<path class="st1" d="M53.95,596.77c0.29,1.14,1.46,1.83,2.6,1.54c1.14-0.29,1.83-1.46,1.54-2.6c-0.29-1.14-1.46-1.83-2.6-1.54
		C54.34,594.46,53.65,595.62,53.95,596.77z"/>
</g>
</svg>
