<?xml version="1.0" encoding="utf-8"?>
<!-- Generator: Adobe Illustrator 25.4.0, SVG Export Plug-In . SVG Version: 6.00 Build 0)  -->
<svg version="1.1" id="Layer_1" xmlns="http://www.w3.org/2000/svg" xmlns:xlink="http://www.w3.org/1999/xlink" x="0px" y="0px"
	 viewBox="0 0 841.89 595.28" style="enable-background:new 0 0 841.89 595.28;" xml:space="preserve">
<style type="text/css">
	.st0{opacity:0.16;}
	.st1{fill:#606060;}
</style>
<g class="st0">
	<path class="st1" d="M789.16,437.26c0.09-0.02,0.18-0.02,0.27,0.02c0.16,0.07,0.26,0.24,0.24,0.42l-14.22,127.74
		c-0.02,0.14-0.11,0.27-0.24,0.33c-0.13,0.06-0.29,0.05-0.4-0.04l-60.57-41.89c-0.1-0.07-0.16-0.17-0.17-0.29
		c-0.01-0.12,0.02-0.23,0.1-0.32l74.79-85.85C789.01,437.32,789.08,437.28,789.16,437.26z M774.71,564.66l14-125.75l-73.63,84.52
		L774.71,564.66z"/>
	<path class="st1" d="M389.03,580.13c0.1-0.03,0.21-0.01,0.3,0.04l131.98,71.86c0.14,0.07,0.22,0.22,0.21,0.38
		c-0.01,0.16-0.1,0.29-0.24,0.36l-129.17,57.59c-0.14,0.06-0.27,0.04-0.39-0.03c-0.11-0.07-0.19-0.2-0.19-0.34l-2.81-129.44
		c0-0.15,0.07-0.28,0.2-0.36C388.95,580.16,388.99,580.14,389.03,580.13z M520.19,652.34l-130.63-71.12l2.78,128.12L520.19,652.34z"
		/>
	<path class="st1" d="M358.36,560.3c0.12-0.03,0.23-0.01,0.32,0.05l30.67,19.83c0.12,0.07,0.19,0.2,0.19,0.34
		c0,0.13-0.06,0.26-0.17,0.34l-70.08,50.15c-0.16,0.11-0.37,0.1-0.51-0.03c-0.14-0.13-0.18-0.34-0.08-0.51l39.41-69.98
		C358.16,560.4,358.25,560.33,358.36,560.3z M388.4,580.54l-29.8-19.27l-38.29,68L388.4,580.54z"/>
	<path class="st1" d="M389.03,580.13c0.09-0.02,0.2-0.01,0.29,0.03c0.14,0.07,0.22,0.21,0.23,0.36l2.81,129.44
		c0,0.17-0.1,0.33-0.26,0.39c-0.16,0.06-0.34,0.02-0.45-0.1l-72.89-79.29c-0.08-0.09-0.12-0.2-0.11-0.32
		c0.01-0.12,0.07-0.22,0.17-0.29l70.08-50.15C388.94,580.16,388.98,580.14,389.03,580.13z M391.51,708.89l-2.77-127.58l-69.07,49.43
		L391.51,708.89z"/>
	<path class="st1" d="M108.33,552.63c0.04-0.01,0.08-0.01,0.11-0.01l250.03,7.66c0.14,0,0.27,0.08,0.34,0.21
		c0.07,0.12,0.07,0.28,0,0.4l-39.41,69.98c-0.1,0.17-0.31,0.25-0.5,0.18l-210.62-77.65c-0.19-0.07-0.3-0.27-0.26-0.46
		C108.06,552.8,108.18,552.67,108.33,552.63z M357.77,561.08l-246.83-7.57l207.93,76.65L357.77,561.08z"/>
	<path class="st1" d="M108.33,552.63c0.08-0.02,0.16-0.02,0.24,0.01l210.62,77.65c0.15,0.05,0.25,0.19,0.27,0.35
		c0.02,0.16-0.06,0.31-0.2,0.39l-150.58,91.16c-0.1,0.06-0.23,0.08-0.35,0.04c-0.12-0.04-0.21-0.13-0.25-0.25l-60.04-168.81
		c-0.05-0.15-0.02-0.32,0.1-0.43C108.2,552.69,108.26,552.65,108.33,552.63z M318.12,630.77l-209-77.05l59.58,167.51L318.12,630.77z
		"/>
	<path class="st1" d="M108.33,552.63c0.06-0.02,0.14-0.02,0.2,0c0.13,0.03,0.24,0.13,0.28,0.26l60.04,168.81
		c0.07,0.19-0.01,0.39-0.18,0.49c-0.18,0.1-0.39,0.06-0.52-0.09L61.45,595.06c-0.14-0.17-0.13-0.42,0.04-0.57l46.67-41.76
		C108.21,552.68,108.27,552.65,108.33,552.63z M167.33,719.84l-59.08-166.09l-45.92,41.09L167.33,719.84z"/>
	<path class="st1" d="M714.37,523.11c0.11-0.03,0.24-0.01,0.33,0.06l60.57,41.89c0.11,0.08,0.18,0.21,0.18,0.35
		c0,0.14-0.07,0.27-0.19,0.34l-51.38,32.16c-0.12,0.07-0.26,0.08-0.39,0.02c-0.13-0.06-0.21-0.18-0.23-0.32l-9.19-74.04
		c-0.02-0.16,0.06-0.32,0.19-0.4C714.29,523.13,714.33,523.12,714.37,523.11z M774.3,565.38l-59.31-41.01l8.99,72.5L774.3,565.38z"
		/>
	<path class="st1" d="M774.94,565c0.12-0.03,0.25-0.01,0.35,0.07c0.14,0.1,0.19,0.28,0.15,0.44l-26.66,95.1
		c-0.05,0.17-0.2,0.28-0.37,0.3c-0.18,0.01-0.34-0.1-0.4-0.26l-24.72-62.95c-0.07-0.18,0-0.39,0.16-0.5l51.38-32.16
		C774.86,565.02,774.9,565.01,774.94,565z M748.31,659.21l26.05-92.91l-50.2,31.42L748.31,659.21z"/>
	<path class="st1" d="M774.94,565c0.04-0.01,0.08-0.01,0.12-0.01c0.19,0.01,0.35,0.15,0.38,0.34l18.33,109.56
		c0.02,0.14-0.03,0.28-0.14,0.38c-0.11,0.09-0.26,0.12-0.39,0.08l-44.99-14.45c-0.21-0.07-0.33-0.29-0.27-0.5l26.66-95.1
		C774.69,565.14,774.8,565.03,774.94,565z M792.85,674.35l-17.91-107.08l-26.06,92.96L792.85,674.35z"/>
	<path class="st1" d="M431.72,508.96c0.04-0.01,0.08-0.01,0.12-0.01l210.46,9.06c0.16,0.01,0.3,0.1,0.36,0.25
		c0.06,0.15,0.03,0.32-0.07,0.43L521.42,652.66c-0.08,0.09-0.22,0.14-0.34,0.13c-0.13-0.01-0.24-0.08-0.31-0.19l-89.29-143.02
		c-0.08-0.13-0.08-0.29-0.01-0.42C431.52,509.06,431.62,508.99,431.72,508.96z M641.4,518.79l-208.82-8.99l88.59,141.9L641.4,518.79
		z"/>
	<path class="st1" d="M431.72,508.96c0.03-0.01,0.06-0.01,0.1-0.01c0.14,0,0.27,0.07,0.35,0.19l89.29,143.02
		c0.1,0.16,0.08,0.36-0.05,0.5c-0.13,0.14-0.33,0.17-0.5,0.08l-131.98-71.86c-0.1-0.05-0.17-0.14-0.2-0.25
		c-0.03-0.11-0.01-0.22,0.04-0.32l42.69-71.17C431.53,509.05,431.62,508.99,431.72,508.96z M519.94,651.28l-88.11-141.13
		l-42.12,70.23L519.94,651.28z"/>
	<path class="st1" d="M61.66,594.4L61.66,594.4c0.15-0.04,0.31,0.01,0.42,0.13l106.71,127.04c0.11,0.13,0.13,0.32,0.04,0.47
		c-0.09,0.15-0.26,0.23-0.42,0.2L40.67,700c-0.11-0.02-0.21-0.08-0.27-0.17c-0.06-0.09-0.09-0.2-0.06-0.31l21.02-104.81
		C61.39,594.56,61.51,594.44,61.66,594.4z M167.44,721.24L62,595.71L41.22,699.27L167.44,721.24z"/>
	<path class="st1" d="M714.37,523.11c0.08-0.02,0.16-0.02,0.24,0.01c0.14,0.05,0.25,0.18,0.27,0.33l9.19,74.04
		c0.01,0.11-0.02,0.22-0.09,0.31c-0.07,0.09-0.18,0.14-0.29,0.15l-96.46,6.91c-0.17,0.01-0.34-0.09-0.41-0.25
		c-0.07-0.16-0.03-0.34,0.1-0.46l87.27-80.95C714.24,523.16,714.3,523.12,714.37,523.11z M723.2,597.17l-9.04-72.82l-85.83,79.61
		L723.2,597.17z"/>
	<path class="st1" d="M642.18,518.02c0.04-0.01,0.09-0.02,0.13-0.01l72.18,5.09c0.16,0.01,0.3,0.12,0.36,0.27
		c0.05,0.15,0.01,0.33-0.11,0.44l-87.27,80.95c-0.12,0.12-0.32,0.15-0.48,0.06c-0.15-0.08-0.24-0.26-0.21-0.43l15.09-86.04
		C641.91,518.18,642.03,518.06,642.18,518.02z M713.5,523.85l-70.87-5l-14.81,84.48L713.5,523.85z"/>
	<path class="st1" d="M642.18,518.02c0.09-0.02,0.19-0.01,0.28,0.03c0.16,0.08,0.26,0.26,0.22,0.44l-15.09,86.04
		c-0.02,0.13-0.11,0.25-0.23,0.3l-106.09,47.93c-0.19,0.09-0.39,0.03-0.5-0.13c-0.11-0.16-0.1-0.37,0.03-0.52l121.18-133.96
		C642.04,518.08,642.11,518.04,642.18,518.02z M626.83,604.17l14.81-84.43L522.73,651.2L626.83,604.17z"/>
	<path class="st1" d="M706.22,525.63c1.17,4.56,5.82,7.3,10.38,6.13c4.56-1.17,7.3-5.82,6.13-10.38c-1.17-4.56-5.82-7.3-10.38-6.13
		C707.79,516.43,705.04,521.07,706.22,525.63z"/>
	<path class="st1" d="M774.35,565.57c0.1,0.38,0.49,0.61,0.87,0.51c0.38-0.1,0.61-0.49,0.51-0.87c-0.1-0.38-0.49-0.61-0.87-0.51
		C774.48,564.8,774.25,565.19,774.35,565.57z"/>
	<path class="st1" d="M782.71,439.34c0.93,3.62,4.62,5.8,8.24,4.87c3.62-0.93,5.8-4.62,4.87-8.24c-0.93-3.62-4.62-5.8-8.24-4.87
		C783.95,432.03,781.77,435.72,782.71,439.34z"/>
	<path class="st1" d="M381.24,582.56c1.12,4.36,5.56,6.98,9.92,5.86c4.36-1.12,6.98-5.56,5.86-9.92c-1.12-4.36-5.56-6.98-9.92-5.86
		C382.74,573.76,380.12,578.2,381.24,582.56z"/>
	<path class="st1" d="M386.13,581.3c0.43,1.66,2.12,2.66,3.78,2.23s2.66-2.12,2.23-3.77c-0.43-1.66-2.12-2.66-3.78-2.23
		C386.7,577.95,385.7,579.64,386.13,581.3z"/>
	<path class="st1" d="M348.09,563.36c1.47,5.72,7.31,9.17,13.03,7.7c5.73-1.47,9.17-7.31,7.7-13.03c-1.47-5.73-7.31-9.17-13.03-7.7
		C350.07,551.8,346.62,557.64,348.09,563.36z"/>
	<path class="st1" d="M381.13,582.58c1.14,4.42,5.64,7.08,10.06,5.94c4.42-1.14,7.08-5.64,5.94-10.06
		c-1.14-4.42-5.64-7.08-10.06-5.94C382.65,573.66,379.99,578.17,381.13,582.58z"/>
	<path class="st1" d="M101.05,554.93c1.05,4.08,5.2,6.53,9.28,5.48c4.08-1.05,6.53-5.2,5.48-9.28c-1.05-4.08-5.2-6.53-9.28-5.48
		C102.45,546.7,100,550.85,101.05,554.93z"/>
	<path class="st1" d="M355.47,561.47c0.43,1.65,2.11,2.65,3.77,2.22c1.65-0.43,2.65-2.11,2.22-3.77c-0.43-1.65-2.11-2.65-3.77-2.22
		C356.04,558.13,355.04,559.81,355.47,561.47z"/>
	<path class="st1" d="M107.81,553.19c0.09,0.34,0.44,0.55,0.78,0.46c0.34-0.09,0.55-0.44,0.46-0.78c-0.09-0.34-0.44-0.55-0.78-0.46
		C107.93,552.5,107.72,552.85,107.81,553.19z"/>
	<path class="st1" d="M107.25,553.34c0.17,0.65,0.84,1.05,1.49,0.88c0.65-0.17,1.05-0.84,0.88-1.49c-0.17-0.65-0.84-1.05-1.49-0.88
		C107.47,552.02,107.08,552.68,107.25,553.34z"/>
	<path class="st1" d="M58.15,595.72c0.51,2,2.55,3.2,4.54,2.68c1.99-0.51,3.2-2.55,2.68-4.54c-0.51-2-2.55-3.2-4.54-2.68
		C58.84,591.69,57.64,593.73,58.15,595.72z"/>
	<path class="st1" d="M717.71,599.08c0.85,3.29,4.2,5.26,7.48,4.42s5.26-4.2,4.42-7.48c-0.85-3.29-4.2-5.26-7.48-4.42
		C718.84,592.45,716.86,595.79,717.71,599.08z"/>
	<path class="st1" d="M709.36,524.82c0.73,2.82,3.6,4.52,6.42,3.79c2.82-0.73,4.52-3.6,3.79-6.42c-0.73-2.82-3.6-4.52-6.42-3.79
		C710.33,519.12,708.64,522,709.36,524.82z"/>
	<path class="st1" d="M772.36,566.08c0.38,1.48,1.89,2.37,3.37,1.99c1.48-0.38,2.37-1.89,1.99-3.37c-0.38-1.48-1.89-2.37-3.37-1.99
		C772.87,563.1,771.98,564.6,772.36,566.08z"/>
	<path class="st1" d="M771.9,566.2c0.45,1.73,2.21,2.77,3.94,2.33c1.73-0.45,2.77-2.21,2.33-3.94c-0.45-1.73-2.21-2.77-3.94-2.33
		C772.5,562.7,771.46,564.47,771.9,566.2z"/>
	<path class="st1" d="M717.52,599.13c0.87,3.39,4.33,5.43,7.72,4.56c3.39-0.87,5.43-4.33,4.56-7.72c-0.87-3.39-4.33-5.43-7.72-4.56
		C718.69,592.28,716.65,595.74,717.52,599.13z"/>
	<path class="st1" d="M770,566.69c0.72,2.78,3.55,4.46,6.33,3.74c2.78-0.72,4.46-3.55,3.74-6.33c-0.72-2.78-3.55-4.46-6.33-3.74
		C770.96,561.07,769.29,563.91,770,566.69z"/>
	<path class="st1" d="M429.27,510.02c0.36,1.41,1.8,2.26,3.21,1.9c1.41-0.36,2.26-1.8,1.9-3.21c-0.36-1.41-1.8-2.26-3.21-1.9
		C429.76,507.17,428.91,508.61,429.27,510.02z"/>
	<path class="st1" d="M635.25,520.23c1,3.89,4.96,6.22,8.84,5.22s6.22-4.96,5.22-8.84c-1-3.89-4.96-6.22-8.84-5.22
		C636.59,512.38,634.25,516.34,635.25,520.23z"/>
	<path class="st1" d="M430.57,509.68c0.18,0.69,0.88,1.11,1.57,0.93s1.11-0.88,0.93-1.57c-0.18-0.69-0.88-1.11-1.57-0.93
		C430.81,508.29,430.39,508.99,430.57,509.68z"/>
	<path class="st1" d="M385.5,581.46c0.52,2,2.56,3.21,4.56,2.69c2-0.52,3.21-2.56,2.69-4.56c-0.52-2-2.56-3.21-4.56-2.69
		C386.2,577.41,384.99,579.46,385.5,581.46z"/>
	<path class="st1" d="M58.42,595.65c0.48,1.84,2.36,2.96,4.2,2.48s2.96-2.36,2.48-4.2c-0.47-1.84-2.36-2.96-4.2-2.48
		C59.06,591.93,57.95,593.81,58.42,595.65z"/>
	<path class="st1" d="M710.61,524.5c0.55,2.13,2.72,3.42,4.86,2.87c2.13-0.55,3.42-2.72,2.87-4.86c-0.55-2.13-2.72-3.42-4.86-2.87
		C711.34,520.19,710.06,522.37,710.61,524.5z"/>
	<path class="st1" d="M641.47,518.63c0.12,0.45,0.57,0.72,1.02,0.6c0.45-0.12,0.72-0.57,0.6-1.02s-0.57-0.72-1.02-0.6
		C641.63,517.72,641.36,518.18,641.47,518.63z"/>
	<path class="st1" d="M711.41,524.29c0.43,1.69,2.16,2.71,3.85,2.27c1.69-0.43,2.71-2.16,2.27-3.85c-0.44-1.69-2.16-2.71-3.85-2.27
		C711.99,520.88,710.97,522.6,711.41,524.29z"/>
	<path class="st1" d="M720.85,598.27c0.4,1.55,1.98,2.48,3.52,2.08c1.55-0.4,2.48-1.98,2.08-3.52s-1.98-2.48-3.52-2.08
		C721.39,595.14,720.46,596.72,720.85,598.27z"/>
	<path class="st1" d="M636.72,519.85c0.79,3.08,3.93,4.93,7,4.14c3.08-0.79,4.93-3.93,4.14-7c-0.79-3.08-3.93-4.93-7-4.14
		C637.78,513.64,635.92,516.77,636.72,519.85z"/>
</g>
</svg>
