<?xml version="1.0" encoding="utf-8"?>
<!-- Generator: Adobe Illustrator 25.4.0, SVG Export Plug-In . SVG Version: 6.00 Build 0)  -->
<svg version="1.1" id="Layer_1" xmlns="http://www.w3.org/2000/svg" xmlns:xlink="http://www.w3.org/1999/xlink" x="0px" y="0px"
	 viewBox="0 0 841.89 595.28" style="enable-background:new 0 0 841.89 595.28;" xml:space="preserve">
<style type="text/css">
	.st0{opacity:0.16;}
	.st1{fill:#606060;}
</style>
<g class="st0">
	<path class="st1" d="M23.12,445.78c-0.01-0.15,0.06-0.3,0.19-0.38l90.65-58.15c0.14-0.09,0.32-0.09,0.45,0.01
		c0.13,0.09,0.21,0.26,0.17,0.42l-15.1,74.84c-0.02,0.11-0.09,0.2-0.18,0.26c-0.09,0.06-0.2,0.08-0.31,0.06l-75.55-16.69
		c-0.16-0.04-0.29-0.17-0.31-0.33C23.12,445.81,23.12,445.8,23.12,445.78z M113.58,388.47l-89.01,57.1l74.18,16.38L113.58,388.47z"
		/>
	<path class="st1" d="M588.09,587.61c-0.01-0.18,0.09-0.34,0.25-0.41c0.18-0.07,0.38-0.01,0.49,0.14l52.45,73.42
		c0.12,0.17,0.1,0.39-0.04,0.53c-0.14,0.14-0.37,0.16-0.53,0.04l-46.32-33.38c-0.09-0.06-0.15-0.16-0.16-0.27l-6.12-40.04
		C588.09,587.63,588.09,587.62,588.09,587.61z M639.16,659.21l-50-70l5.84,38.18L639.16,659.21z M594.62,627.62L594.62,627.62
		L594.62,627.62z"/>
	<path class="st1" d="M640.54,661.03c-0.01-0.07,0.01-0.14,0.03-0.2l90.99-203.29c0.05-0.12,0.17-0.21,0.29-0.23
		c0.13-0.03,0.26,0.01,0.36,0.1l21.3,20.1c0.14,0.14,0.17,0.34,0.07,0.51L641.29,661.21c-0.11,0.18-0.35,0.25-0.54,0.15
		C640.62,661.29,640.55,661.16,640.54,661.03z M732.08,458.4l-88.17,196.98l108.81-177.5L732.08,458.4z"/>
	<path class="st1" d="M588.09,587.61c-0.01-0.12,0.04-0.25,0.13-0.34L731.66,457.4c0.14-0.13,0.36-0.14,0.51-0.03
		c0.16,0.11,0.21,0.32,0.13,0.5l-90.99,203.29c-0.06,0.13-0.19,0.22-0.33,0.24c-0.14,0.01-0.29-0.05-0.37-0.17l-52.45-73.42
		C588.12,587.75,588.1,587.68,588.09,587.61z M730.77,459.32L589.05,587.64l51.82,72.54L730.77,459.32z"/>
	<path class="st1" d="M79.27,250.48c0-0.02,0-0.04,0-0.05l6.75-126.47c0.01-0.2,0.17-0.37,0.38-0.39c0.2-0.02,0.39,0.12,0.43,0.32
		l28.02,125.9c0.03,0.12,0,0.24-0.08,0.34c-0.08,0.1-0.19,0.15-0.32,0.15l-34.77,0.57c-0.11,0-0.22-0.04-0.3-0.12
		C79.32,250.66,79.28,250.57,79.27,250.48z M86.68,126.98l-6.56,123.05l33.83-0.56L86.68,126.98z"/>
	<path class="st1" d="M79.27,250.48c-0.01-0.1,0.02-0.2,0.08-0.28c0.08-0.1,0.19-0.16,0.32-0.16l34.77-0.57
		c0.11,0,0.22,0.04,0.29,0.12c0.08,0.08,0.14,0.18,0.12,0.29l-0.28,137.72c0,0.21-0.15,0.38-0.36,0.41
		c-0.21,0.02-0.4-0.11-0.45-0.31L79.28,250.55C79.28,250.52,79.27,250.5,79.27,250.48z M114.04,250.29l-33.84,0.56l33.57,133.47
		L114.04,250.29z"/>
	<path class="st1" d="M113.77,387.63c0-0.01,0-0.02,0-0.03l0.28-137.72c0-0.19,0.13-0.35,0.31-0.4c0.18-0.05,0.37,0.04,0.46,0.2
		l65.47,117.71c0.06,0.11,0.07,0.24,0.02,0.35c-0.05,0.12-0.14,0.2-0.26,0.24l-65.75,20.02c-0.12,0.04-0.26,0.01-0.36-0.06
		C113.84,387.86,113.78,387.75,113.77,387.63z M114.86,251.45l-0.27,135.6l64.73-19.71L114.86,251.45z"/>
	<path class="st1" d="M-86.1-50.63c-0.01-0.09,0.01-0.18,0.07-0.26c0.1-0.15,0.28-0.22,0.46-0.17l123.38,36
		c0.14,0.04,0.24,0.15,0.28,0.29c0.04,0.14,0,0.29-0.1,0.39L-13.7,38.08c-0.08,0.08-0.2,0.13-0.31,0.12
		c-0.12-0.01-0.22-0.06-0.3-0.15l-71.7-88.45C-86.06-50.47-86.09-50.55-86.1-50.63z M36.92-14.46L-84.55-49.9l70.58,87.08
		L36.92-14.46z"/>
	<path class="st1" d="M-14.23,368.12c-0.01-0.1,0.02-0.21,0.09-0.29l93.5-117.64c0.1-0.12,0.25-0.18,0.41-0.14
		c0.15,0.03,0.27,0.15,0.31,0.3l34.49,137.15c0.04,0.15,0,0.27-0.09,0.38c-0.09,0.1-0.23,0.15-0.36,0.13l-127.99-19.51
		c-0.14-0.02-0.27-0.12-0.32-0.26C-14.21,368.2-14.22,368.16-14.23,368.12z M79.49,251.35l-92.54,116.44l126.68,19.31L79.49,251.35z
		"/>
	<path class="st1" d="M-39.04,394.92c-0.01-0.12,0.03-0.23,0.11-0.31l24.81-26.8c0.09-0.1,0.23-0.15,0.36-0.13
		c0.13,0.02,0.25,0.11,0.31,0.23l37.34,77.66c0.08,0.17,0.03,0.38-0.12,0.5c-0.15,0.12-0.36,0.12-0.51,0l-62.16-50.86
		C-38.98,395.14-39.03,395.03-39.04,394.92z M-13.93,368.81l-24.11,26.04l60.39,49.42L-13.93,368.81z"/>
	<path class="st1" d="M-14.23,368.12c-0.01-0.1,0.02-0.2,0.08-0.28c0.09-0.12,0.24-0.18,0.39-0.16l127.99,19.51
		c0.17,0.03,0.3,0.15,0.34,0.32c0.04,0.17-0.04,0.34-0.18,0.43L23.75,446.1c-0.1,0.06-0.22,0.08-0.33,0.05
		c-0.11-0.03-0.21-0.11-0.26-0.22l-37.34-77.66C-14.21,368.22-14.22,368.17-14.23,368.12z M113.04,387.84l-126.15-19.23l36.81,76.55
		L113.04,387.84z"/>
	<path class="st1" d="M23.12,445.78c-0.01-0.11,0.02-0.22,0.1-0.3c0.1-0.12,0.25-0.17,0.4-0.13l75.55,16.69
		c0.2,0.04,0.34,0.22,0.32,0.43L87.82,609.81c-0.02,0.19-0.16,0.35-0.35,0.37c-0.19,0.03-0.37-0.08-0.44-0.26L23.15,445.9
		C23.13,445.86,23.12,445.82,23.12,445.78z M98.64,462.76l-74.45-16.44l62.96,161.64L98.64,462.76z"/>
	<path class="st1" d="M87,609.81c0-0.02,0-0.04,0-0.06l11.67-147.34c0.01-0.16,0.12-0.3,0.27-0.35c0.15-0.06,0.32-0.02,0.43,0.09
		l36.74,36.75c0.12,0.12,0.15,0.3,0.09,0.45l-48.4,110.59c-0.08,0.18-0.28,0.28-0.48,0.23C87.14,610.13,87.01,609.98,87,609.81z
		 M99.41,463.35l-11.4,144.03l47.31-108.1L99.41,463.35z"/>
	<path class="st1" d="M87,609.81c-0.01-0.07,0.01-0.13,0.03-0.2l48.4-110.59c0.07-0.15,0.21-0.25,0.38-0.25
		c0.16,0,0.31,0.1,0.37,0.25l36.93,89.02c0.05,0.11,0.04,0.23-0.01,0.34c-0.05,0.11-0.15,0.19-0.27,0.21l-85.33,21.57
		c-0.15,0.04-0.31-0.01-0.41-0.13C87.04,609.98,87.01,609.89,87,609.81z M135.8,500.23L88.12,609.18l84.06-21.24L135.8,500.23z"/>
	<path class="st1" d="M-89.62,639.9c0-0.04,0-0.08,0.01-0.11l50.58-244.98c0.03-0.14,0.13-0.26,0.26-0.3
		c0.13-0.05,0.29-0.02,0.4,0.07l62.16,50.86c0.15,0.13,0.19,0.35,0.1,0.52L-88.86,640.08c-0.1,0.17-0.31,0.25-0.5,0.18
		C-89.51,640.19-89.61,640.06-89.62,639.9z M-38.37,395.64L-88.3,637.49L23,445.85L-38.37,395.64z"/>
	<path class="st1" d="M-89.62,639.9c-0.01-0.08,0.01-0.16,0.05-0.24L23.17,445.55c0.08-0.14,0.23-0.21,0.39-0.2
		c0.16,0.01,0.29,0.11,0.35,0.26l63.88,164.02c0.04,0.11,0.04,0.24-0.03,0.35c-0.06,0.11-0.17,0.18-0.29,0.2l-176.62,30.09
		c-0.16,0.03-0.31-0.04-0.41-0.17C-89.59,640.04-89.62,639.97-89.62,639.9z M23.45,446.69L-88.42,639.32l175.26-29.86L23.45,446.69z
		"/>
	<path class="st1" d="M640.54,661.03c-0.01-0.09,0.01-0.17,0.06-0.25l112.29-183.19c0.09-0.15,0.27-0.22,0.44-0.19
		c0.17,0.04,0.3,0.18,0.32,0.35l28.01,237.89c0,0.15-0.04,0.29-0.16,0.37c-0.11,0.09-0.27,0.11-0.4,0.06l-140.3-54.71
		c-0.11-0.04-0.2-0.14-0.24-0.25C640.55,661.09,640.54,661.06,640.54,661.03z M752.97,479.03L641.55,660.79l139.21,54.28
		L752.97,479.03z"/>
	<path class="st1" d="M479.48,601.43c0-0.01,0-0.01,0-0.02l-3.06-121.77c0-0.18,0.11-0.34,0.28-0.4c0.17-0.06,0.36,0,0.46,0.15
		l43.48,59.75c0.1,0.14,0.11,0.32,0.01,0.46l-40.42,62.03c-0.1,0.15-0.28,0.22-0.46,0.17C479.61,601.74,479.5,601.6,479.48,601.43z
		 M477.27,480.93l3,119.14l39.55-60.69L477.27,480.93z"/>
	<path class="st1" d="M-14.4,37.83c-0.01-0.12,0.03-0.23,0.12-0.32L37.4-14.95c0.1-0.1,0.24-0.14,0.37-0.11
		c0.14,0.03,0.25,0.12,0.3,0.25l22.83,56.15c0.05,0.13,0.03,0.28-0.05,0.39c-0.08,0.11-0.21,0.18-0.35,0.17l-74.52-3.69
		c-0.16-0.01-0.3-0.11-0.36-0.26C-14.39,37.9-14.4,37.87-14.4,37.83z M37.55-13.93l-50.61,51.36l72.97,3.62L37.55-13.93z"/>
	<path class="st1" d="M37.29-14.63c-0.01-0.12,0.04-0.24,0.13-0.33c0.12-0.12,0.3-0.14,0.46-0.07l89.1,42.63
		c0.16,0.08,0.24,0.25,0.23,0.42c-0.02,0.18-0.15,0.32-0.33,0.35L60.61,41.89c-0.19,0.04-0.39-0.06-0.46-0.25L37.31-14.51
		C37.3-14.55,37.29-14.59,37.29-14.63z M125.51,27.81L38.47-13.84l22.31,54.85L125.51,27.81z"/>
	<path class="st1" d="M135.4,499.22c-0.01-0.1,0.02-0.2,0.09-0.29c0.09-0.12,0.24-0.17,0.39-0.15l49.92,8.25
		c0.22,0.04,0.37,0.25,0.34,0.47l-12.99,80.77c-0.03,0.18-0.18,0.32-0.36,0.34c-0.18,0.02-0.36-0.08-0.43-0.25l-36.93-89.02
		C135.42,499.3,135.41,499.26,135.4,499.22z M185.26,507.78l-48.79-8.07l36.09,87.01L185.26,507.78z"/>
	<path class="st1" d="M297.96,532.12c0-0.04,0-0.07,0-0.1l5.69-31.82c0.03-0.17,0.17-0.31,0.35-0.33c0.18-0.02,0.35,0.07,0.43,0.23
		l64.03,132.64c0.09,0.2,0.02,0.43-0.16,0.53c-0.18,0.11-0.42,0.05-0.54-0.12l-69.72-100.81
		C297.99,532.26,297.96,532.19,297.96,532.12z M304.24,501.58l-5.44,30.42l66.63,96.34L304.24,501.58z"/>
	<path class="st1" d="M113.77,387.63c0-0.02,0-0.03,0-0.05c0.01-0.17,0.12-0.32,0.29-0.37l65.75-20.02c0.14-0.04,0.3-0.01,0.4,0.1
		c0.11,0.1,0.15,0.26,0.11,0.4l-11.11,42.28c-0.03,0.11-0.11,0.21-0.21,0.26c-0.1,0.05-0.23,0.06-0.34,0.01l-54.64-22.26
		C113.88,387.92,113.78,387.78,113.77,387.63z M179.34,368.19l-63.94,19.47l53.14,21.65L179.34,368.19z"/>
	<path class="st1" d="M98.67,462.47c0-0.04,0-0.08,0.01-0.11l15.1-74.84c0.02-0.12,0.1-0.22,0.21-0.28
		c0.11-0.06,0.24-0.07,0.35-0.02l54.64,22.26c0.14,0.06,0.23,0.18,0.25,0.33c0.03,0.14-0.04,0.29-0.16,0.38l-69.74,52.58
		c-0.14,0.1-0.32,0.11-0.47,0.02C98.75,462.71,98.68,462.6,98.67,462.47z M114.48,388.17l-14.79,73.3l68.3-51.5L114.48,388.17z"/>
	<path class="st1" d="M98.67,462.47c0-0.02,0-0.04,0-0.06c0.01-0.12,0.07-0.23,0.16-0.3l69.74-52.58c0.15-0.11,0.35-0.11,0.49,0
		c0.14,0.11,0.2,0.3,0.14,0.47l-33,89.33c-0.05,0.13-0.16,0.23-0.3,0.26c-0.14,0.03-0.28-0.01-0.38-0.11l-36.74-36.75
		C98.71,462.66,98.67,462.57,98.67,462.47z M167.95,411.03L99.7,462.48l35.95,35.96L167.95,411.03z"/>
	<path class="st1" d="M135.4,499.22c0-0.06,0-0.12,0.02-0.17l33-89.33c0.06-0.17,0.24-0.28,0.42-0.27c0.18,0.02,0.33,0.15,0.37,0.34
		l16.91,97.58c0.02,0.14-0.02,0.26-0.11,0.36c-0.09,0.09-0.23,0.14-0.36,0.11l-49.92-8.25c-0.12-0.02-0.23-0.09-0.29-0.2
		C135.43,499.34,135.41,499.28,135.4,499.22z M168.67,411.43l-32.31,87.43l48.86,8.08L168.67,411.43z"/>
	<path class="st1" d="M60.12,41.52c0-0.06,0-0.12,0.03-0.18c0.05-0.13,0.16-0.22,0.3-0.25l66.26-13.52
		c0.15-0.03,0.32,0.03,0.41,0.16c0.1,0.13,0.11,0.3,0.03,0.44L95.12,88.21c-0.07,0.12-0.19,0.21-0.33,0.22
		c-0.14,0.01-0.28-0.05-0.36-0.17L60.2,41.73C60.15,41.67,60.12,41.59,60.12,41.52z M126.02,28.54L61.24,41.76l33.46,45.5
		L126.02,28.54z"/>
	<path class="st1" d="M344.55,232.55c-0.01-0.07,0.01-0.14,0.04-0.21c0.05-0.11,0.14-0.18,0.25-0.22l16.05-4.76
		c0.11-0.03,0.23-0.02,0.33,0.04c0.1,0.06,0.17,0.16,0.19,0.27l16.73,82.78c0.05,0.23-0.08,0.41-0.28,0.47
		c-0.2,0.06-0.42-0.04-0.5-0.23l-32.77-78.02C344.56,232.63,344.55,232.59,344.55,232.55z M360.69,228.28l-15.18,4.5l31,73.81
		L360.69,228.28z"/>
	<path class="st1" d="M148.36-13.83c-0.01-0.07,0.01-0.15,0.04-0.22l23.53-47.18c0.07-0.15,0.24-0.24,0.41-0.22
		c0.17,0.02,0.31,0.14,0.35,0.3l29.79,110.94c0.05,0.2-0.04,0.38-0.21,0.47c-0.17,0.09-0.38,0.05-0.5-0.1L148.46-13.6
		C148.4-13.67,148.37-13.75,148.36-13.83z M172.18-59.89l-22.93,45.98l51.96,62.13L172.18-59.89z"/>
	<path class="st1" d="M37.29-14.63c0-0.04,0-0.08,0.01-0.12c0.04-0.19,0.21-0.32,0.4-0.32l111.08,0.8c0.14,0,0.28,0.08,0.35,0.2
		c0.07,0.12,0.08,0.27,0.01,0.4l-21.98,41.83c-0.1,0.19-0.34,0.27-0.54,0.18L37.52-14.3C37.38-14.36,37.3-14.49,37.29-14.63z
		 M148.09-13.46L39.53-14.24l87.08,41.67L148.09-13.46z"/>
	<path class="st1" d="M126.38,28c-0.01-0.08,0.01-0.15,0.04-0.22l21.98-41.83c0.06-0.12,0.18-0.2,0.32-0.22
		c0.14-0.01,0.27,0.04,0.36,0.14l53.32,63.76c0.11,0.14,0.13,0.33,0.03,0.49c-0.1,0.15-0.28,0.22-0.46,0.17l-75.3-21.93
		c-0.12-0.03-0.21-0.12-0.26-0.23C126.39,28.09,126.38,28.04,126.38,28z M148.85-13.13l-21.46,40.84l73.53,21.41L148.85-13.13z"/>
	<path class="st1" d="M134.6,148.49C134.6,148.49,134.6,148.49,134.6,148.49l-8.22-120.5c-0.01-0.13,0.05-0.26,0.15-0.35
		c0.1-0.09,0.24-0.11,0.37-0.07l75.3,21.93c0.12,0.04,0.23,0.13,0.27,0.25c0.05,0.12,0.03,0.26-0.05,0.37l-67.09,98.56
		c-0.1,0.14-0.28,0.21-0.45,0.17C134.73,148.81,134.61,148.66,134.6,148.49z M127.24,28.52l8.09,118.73l66.11-97.12L127.24,28.52z"
		/>
	<path class="st1" d="M94.35,88.05c-0.01-0.08,0.01-0.15,0.05-0.23l32.04-60.05c0.09-0.16,0.27-0.25,0.45-0.21
		c0.18,0.04,0.31,0.19,0.32,0.37c0,0,0,0,0,0l8.21,120.49c0.01,0.19-0.1,0.36-0.28,0.42c-0.18,0.06-0.37-0.01-0.47-0.16L94.41,88.25
		C94.37,88.19,94.35,88.12,94.35,88.05z M126.48,29.42L95.23,88l39.26,58.95L126.48,29.42z"/>
	<path class="st1" d="M86.02,124.01c0-0.04,0-0.08,0.01-0.12l8.32-35.96c0.04-0.16,0.17-0.28,0.33-0.31
		c0.16-0.03,0.32,0.04,0.42,0.18l40.25,60.44c0.1,0.15,0.09,0.36-0.03,0.5c-0.12,0.14-0.33,0.18-0.49,0.09l-48.58-24.48
		C86.11,124.28,86.03,124.15,86.02,124.01z M94.94,89.04l-8.04,34.72l46.9,23.64L94.94,89.04z"/>
	<path class="st1" d="M86.02,124.01c-0.01-0.14,0.05-0.27,0.16-0.36c0.13-0.1,0.29-0.11,0.44-0.04l48.58,24.48
		c0.16,0.08,0.26,0.27,0.22,0.45l-20.55,101.41c-0.04,0.19-0.2,0.33-0.4,0.33c-0.19,0-0.36-0.13-0.4-0.32l-28.02-125.9
		C86.03,124.05,86.02,124.03,86.02,124.01z M134.54,148.68l-47.52-23.95l27.42,123.17L134.54,148.68z"/>
	<path class="st1" d="M-76.98,313.82c0-0.04,0-0.08,0.01-0.12l45.15-205.77c0.03-0.16,0.15-0.28,0.31-0.31
		c0.15-0.04,0.32,0.02,0.41,0.15L80,250.19c0.08,0.1,0.11,0.24,0.07,0.36c-0.03,0.12-0.12,0.23-0.24,0.27l-156.26,63.34
		c-0.14,0.06-0.3,0.03-0.42-0.07C-76.92,314.03-76.97,313.93-76.98,313.82z M-31.21,108.96l-44.79,204.15l155.03-62.85
		L-31.21,108.96z"/>
	<path class="st1" d="M-76.98,313.82c0-0.03,0-0.07,0-0.1c0.02-0.14,0.12-0.26,0.25-0.31l156.26-63.34
		c0.17-0.07,0.37-0.01,0.48,0.13c0.11,0.15,0.11,0.36-0.01,0.5l-93.5,117.64c-0.07,0.09-0.17,0.14-0.28,0.15
		c-0.11,0.01-0.22-0.03-0.31-0.1l-62.76-54.3C-76.92,314.03-76.97,313.93-76.98,313.82z M78.39,251.41l-154.19,62.5l61.93,53.58
		L78.39,251.41z"/>
	<path class="st1" d="M87,609.81c-0.02-0.2,0.11-0.38,0.31-0.43l85.33-21.57c0.11-0.03,0.23-0.01,0.32,0.05
		c0.1,0.06,0.16,0.16,0.18,0.27l5.1,27.05c0.02,0.13-0.01,0.25-0.1,0.35c-0.08,0.1-0.21,0.14-0.33,0.14l-90.43-5.49
		C87.18,610.17,87.02,610.02,87,609.81C87,609.81,87,609.81,87,609.81z M172.42,588.72l-82.35,20.81l87.27,5.29L172.42,588.72z"/>
	<path class="st1" d="M333.19,454.38c0-0.05,0-0.1,0.02-0.15l44.13-143.81c0.04-0.14,0.15-0.24,0.29-0.28
		c0.14-0.03,0.29,0.01,0.39,0.11L442,375.79c0.08,0.09,0.13,0.2,0.12,0.32c-0.01,0.12-0.07,0.23-0.17,0.3l-108.11,78.27
		c-0.14,0.1-0.34,0.1-0.48,0C333.26,454.61,333.2,454.5,333.19,454.38z M377.92,311.32L334.35,453.3l106.73-77.28L377.92,311.32z"/>
	<path class="st1" d="M333.19,454.38c-0.01-0.14,0.05-0.28,0.17-0.36l108.11-78.27c0.09-0.07,0.21-0.09,0.33-0.07
		c0.11,0.03,0.21,0.1,0.27,0.2l30.67,55.53c0.06,0.12,0.07,0.26,0.01,0.38c-0.06,0.12-0.17,0.2-0.3,0.22l-138.77,22.74
		c-0.19,0.03-0.37-0.07-0.44-0.25C333.21,454.46,333.2,454.42,333.19,454.38z M441.57,376.68l-106.33,76.99l136.49-22.37
		L441.57,376.68z"/>
	<path class="st1" d="M333.19,454.38c0-0.01,0-0.02,0-0.04c0-0.2,0.15-0.37,0.34-0.4l138.77-22.74c0.11-0.02,0.23,0.01,0.32,0.08
		c0.09,0.07,0.15,0.17,0.16,0.29l4.45,48.02c-0.01,0.16-0.04,0.25-0.13,0.34c-0.09,0.09-0.22,0.12-0.35,0.1l-143.23-25.28
		C333.34,454.72,333.21,454.57,333.19,454.38z M472.01,432.08l-135.97,22.28l140.33,24.76L472.01,432.08z"/>
	<path class="st1" d="M303.65,500.29c-0.01-0.09,0.01-0.18,0.06-0.25l29.54-45.91c0.09-0.14,0.26-0.21,0.42-0.18
		c0.16,0.03,0.29,0.16,0.32,0.32l34.48,178.55c0.02,0.23-0.08,0.4-0.27,0.47c-0.2,0.06-0.41-0.03-0.5-0.21l-64.03-132.64
		C303.67,500.39,303.65,500.34,303.65,500.29z M333.39,455.43l-28.86,44.86l62.56,129.6L333.39,455.43z"/>
	<path class="st1" d="M471.97,431.64c-0.01-0.17,0.07-0.32,0.22-0.4c0.15-0.08,0.33-0.05,0.46,0.06l49.79,44
		c0.12,0.11,0.17,0.28,0.12,0.44c-0.05,0.15-0.19,0.27-0.35,0.28l-45.34,4.02c-0.22,0.02-0.42-0.15-0.44-0.37L471.97,431.64
		C471.97,431.64,471.97,431.64,471.97,431.64z M521.18,475.28l-48.3-42.68l4.32,46.58L521.18,475.28z"/>
	<path class="st1" d="M521.76,475.63c-0.01-0.08,0.01-0.15,0.04-0.22c0.07-0.13,0.19-0.21,0.33-0.22l209.77-17.9
		c0.18-0.02,0.34,0.08,0.41,0.25c0.07,0.15,0.03,0.35-0.1,0.47L588.77,587.88c-0.09,0.08-0.21,0.12-0.34,0.1
		c-0.12-0.02-0.23-0.09-0.29-0.2l-66.33-111.98C521.78,475.76,521.76,475.7,521.76,475.63z M730.76,458.22l-207.91,17.74
		l65.75,110.98L730.76,458.22z"/>
	<path class="st1" d="M476.42,479.66c-0.01-0.07,0.01-0.14,0.04-0.2c0.06-0.13,0.19-0.23,0.34-0.24l45.34-4.02
		c0.12-0.01,0.23,0.03,0.32,0.11c0.09,0.08,0.13,0.18,0.13,0.31l-1.85,63.77c-0.01,0.17-0.12,0.33-0.29,0.38
		c-0.17,0.05-0.35-0.01-0.45-0.15l-43.48-59.75C476.45,479.8,476.43,479.73,476.42,479.66z M521.74,476.05l-44.16,3.92l42.35,58.19
		L521.74,476.05z"/>
	<path class="st1" d="M519.9,539.4c0-0.01,0-0.03,0-0.04l1.85-63.77c0.01-0.18,0.13-0.34,0.31-0.38c0.18-0.05,0.36,0.03,0.45,0.19
		l66.33,111.98c0.1,0.16,0.07,0.38-0.08,0.51c-0.14,0.13-0.36,0.15-0.51,0.03l-68.19-48.21C519.98,539.64,519.91,539.52,519.9,539.4
		z M522.53,477.03l-1.81,62.14l66.44,46.97L522.53,477.03z"/>
	<path class="st1" d="M492.79,607.78c0-0.06,0-0.12,0.03-0.18l27.11-68.38c0.05-0.12,0.14-0.21,0.27-0.24
		c0.12-0.04,0.25-0.02,0.35,0.06l68.19,48.21c0.13,0.1,0.2,0.26,0.16,0.42c-0.03,0.16-0.16,0.29-0.32,0.32l-95.3,20.17
		c-0.15,0.03-0.3-0.02-0.4-0.14C492.83,607.95,492.8,607.87,492.79,607.78z M520.5,540.01l-26.64,67.19l93.63-19.82L520.5,540.01z"
		/>
	<path class="st1" d="M479.48,601.43c-0.01-0.09,0.01-0.18,0.07-0.26l40.42-62.03c0.11-0.18,0.35-0.24,0.53-0.14
		c0.19,0.09,0.27,0.32,0.19,0.51l-27.11,68.38c-0.04,0.1-0.13,0.19-0.23,0.23c-0.1,0.04-0.22,0.04-0.33-0.01l-13.31-6.35
		c-0.11-0.05-0.19-0.15-0.22-0.26C479.49,601.48,479.49,601.46,479.48,601.43z M518.43,543.01l-37.94,58.22l12.49,5.96
		L518.43,543.01z"/>
	<path class="st1" d="M492.79,607.78c0-0.01,0-0.02,0-0.03c0-0.2,0.13-0.36,0.32-0.4l95.3-20.17c0.11-0.02,0.22,0,0.32,0.06
		c0.09,0.06,0.15,0.16,0.17,0.27l6.12,40.04c0.04,0.15-0.02,0.27-0.12,0.36c-0.1,0.09-0.23,0.13-0.36,0.11l-101.42-19.87
		C492.94,608.12,492.81,607.97,492.79,607.78z M588.16,588.07l-92.91,19.67l98.87,19.37L588.16,588.07z"/>
	<path class="st1" d="M114.04,249.91c0-0.04,0-0.08,0.01-0.11l20.55-101.41c0.03-0.16,0.16-0.29,0.33-0.32
		c0.16-0.03,0.33,0.04,0.42,0.19l80.07,127.88c0.09,0.14,0.08,0.32-0.02,0.46c-0.1,0.14-0.27,0.2-0.43,0.15l-100.63-26.47
		C114.18,250.23,114.06,250.08,114.04,249.91z M135.2,149.55l-20.27,100.03l99.25,26.11L135.2,149.55z"/>
	<path class="st1" d="M114.04,249.91c-0.01-0.1,0.02-0.2,0.08-0.28c0.1-0.13,0.27-0.19,0.43-0.15l100.63,26.47
		c0.11,0.03,0.21,0.11,0.26,0.21c0.05,0.1,0.06,0.23,0.02,0.33l-35.15,91.24c-0.06,0.15-0.2,0.25-0.35,0.26
		c-0.16,0.01-0.31-0.07-0.39-0.21l-65.47-117.71C114.07,250.02,114.05,249.96,114.04,249.91z M214.53,276.62l-99.26-26.11
		l64.58,116.1L214.53,276.62z"/>
	<path class="st1" d="M318.88,273.36c-0.01-0.09,0.01-0.17,0.06-0.25l25.67-40.81c0.11-0.17,0.32-0.24,0.51-0.16
		c0.18,0.08,0.28,0.29,0.23,0.48l-17.04,62.79c-0.05,0.17-0.2,0.29-0.37,0.3c-0.18,0.01-0.34-0.1-0.4-0.26l-8.64-21.98
		C318.89,273.44,318.88,273.4,318.88,273.36z M343.85,235.06l-24.1,38.32l8.11,20.63L343.85,235.06z"/>
	<path class="st1" d="M327.51,295.34c0-0.05,0-0.09,0.01-0.14l17.04-62.79c0.05-0.17,0.19-0.29,0.37-0.3
		c0.17-0.01,0.34,0.09,0.41,0.25l32.77,78.02c0.06,0.14,0.03,0.32-0.07,0.43c-0.11,0.12-0.27,0.16-0.42,0.12L327.8,295.7
		C327.64,295.65,327.52,295.5,327.51,295.34z M345.04,233.77l-16.62,61.26l48.6,14.86L345.04,233.77z"/>
	<path class="st1" d="M214.67,276.37c0-0.02,0-0.04,0-0.06c0.01-0.21,0.19-0.37,0.4-0.38l104.21-3.01c0.17,0,0.33,0.1,0.39,0.26
		l8.64,21.98c0.05,0.14,0.03,0.3-0.06,0.41c-0.09,0.11-0.24,0.17-0.38,0.15l-112.84-18.97
		C214.82,276.71,214.68,276.56,214.67,276.37z M319.01,273.75l-99.74,2.88l108.01,18.15L319.01,273.75z"/>
	<path class="st1" d="M333.19,454.38c0-0.01,0-0.01,0-0.02l-5.68-159.04c0-0.13,0.05-0.26,0.16-0.34c0.1-0.08,0.24-0.11,0.37-0.07
		l49.81,15.23c0.1,0.03,0.19,0.1,0.24,0.2c0.05,0.1,0.06,0.21,0.03,0.31l-44.13,143.81c-0.06,0.19-0.25,0.31-0.44,0.29
		C333.36,454.73,333.21,454.57,333.19,454.38z M328.35,295.87l5.57,156.03l43.3-141.09L328.35,295.87z"/>
	<path class="st1" d="M377.33,310.57c0-0.05,0-0.1,0.02-0.15c0.04-0.14,0.16-0.25,0.31-0.28l124.33-26.83
		c0.16-0.04,0.33,0.03,0.42,0.17c0.1,0.14,0.1,0.32,0.01,0.46l-60.35,92.36c-0.07,0.1-0.18,0.17-0.3,0.18
		c-0.12,0.01-0.25-0.03-0.33-0.12l-63.97-65.54C377.37,310.76,377.33,310.67,377.33,310.57z M501.17,284.32l-122.63,26.46
		l63.1,64.64L501.17,284.32z"/>
	<path class="st1" d="M441.3,376.11c-0.01-0.09,0.01-0.18,0.07-0.26l60.35-92.36c0.08-0.12,0.21-0.19,0.36-0.18
		c0.14,0,0.27,0.08,0.34,0.21l40.23,72.64c0.06,0.12,0.07,0.25,0.01,0.37c-0.05,0.12-0.16,0.2-0.29,0.23l-100.59,19.72
		c-0.16,0.03-0.33-0.04-0.42-0.17C441.33,376.25,441.31,376.18,441.3,376.11z M502.03,284.51l-59.45,90.98l99.08-19.42
		L502.03,284.51z"/>
	<path class="st1" d="M541.89,356.39c0-0.02,0-0.04,0-0.07c0.01-0.16,0.12-0.3,0.28-0.35l146.58-48.63c0.1-0.03,0.22-0.03,0.32,0.03
		c0.1,0.05,0.17,0.14,0.2,0.25l43.06,149.98c0.04,0.16-0.01,0.33-0.14,0.43c-0.13,0.1-0.31,0.12-0.45,0.04L542.1,356.72
		C541.98,356.65,541.9,356.52,541.89,356.39z M688.6,308.24l-145.27,48.2l187.95,100.44L688.6,308.24z"/>
	<path class="st1" d="M441.3,376.11c-0.01-0.07,0.01-0.14,0.04-0.2c0.06-0.12,0.16-0.2,0.29-0.23l100.59-19.72
		c0.17-0.03,0.35,0.05,0.44,0.2c0.08,0.15,0.06,0.35-0.06,0.48l-69.92,75.25c-0.09,0.1-0.22,0.14-0.35,0.13
		c-0.13-0.02-0.25-0.09-0.31-0.21l-30.67-55.53C441.32,376.22,441.3,376.17,441.3,376.11z M541.14,357l-98.8,19.37l30.12,54.54
		L541.14,357z"/>
	<path class="st1" d="M471.97,431.64c0-0.12,0.03-0.23,0.11-0.31l69.92-75.25c0.12-0.13,0.32-0.17,0.48-0.09
		c0.16,0.08,0.26,0.26,0.22,0.43l-20.13,119.25c-0.02,0.15-0.13,0.27-0.27,0.32c-0.14,0.05-0.3,0.02-0.41-0.08l-49.79-44
		C472.02,431.84,471.98,431.74,471.97,431.64z M541.66,357.64l-68.7,73.94l48.92,43.23L541.66,357.64z"/>
	<path class="st1" d="M521.76,475.63c0-0.03,0-0.07,0-0.1l20.13-119.25c0.02-0.13,0.1-0.24,0.22-0.3c0.12-0.06,0.26-0.06,0.37,0.01
		l189.64,101.35c0.16,0.08,0.25,0.27,0.21,0.44c-0.04,0.18-0.19,0.31-0.37,0.33l-209.77,17.9c-0.13,0.01-0.25-0.04-0.34-0.13
		C521.8,475.81,521.76,475.73,521.76,475.63z M542.6,356.99l-19.95,118.16l207.87-17.74L542.6,356.99z"/>
	<path class="st1" d="M214.67,276.37c-0.01-0.11,0.03-0.22,0.1-0.31c0.09-0.1,0.23-0.15,0.37-0.13l112.84,18.97
		c0.13,0.02,0.25,0.11,0.3,0.23c0.06,0.12,0.05,0.26-0.02,0.38L255.54,422.4c-0.08,0.14-0.24,0.22-0.41,0.2
		c-0.16-0.02-0.3-0.14-0.34-0.3l-40.11-145.86C214.68,276.43,214.67,276.4,214.67,276.37z M327.27,295.61l-111.63-18.76
		l39.68,144.29L327.27,295.61z"/>
	<path class="st1" d="M179.52,367.62c0-0.06,0-0.12,0.03-0.18l35.15-91.24c0.06-0.16,0.23-0.27,0.4-0.26
		c0.18,0.01,0.33,0.13,0.37,0.3l40.11,145.86c0.06,0.17-0.02,0.35-0.16,0.44c-0.14,0.1-0.33,0.1-0.47,0l-75.26-54.62
		C179.58,367.84,179.52,367.73,179.52,367.62z M215.01,277.65l-34.59,89.79l74.06,53.75L215.01,277.65z"/>
	<path class="st1" d="M254.78,422.23c-0.01-0.08,0.01-0.16,0.05-0.24l72.73-126.89c0.09-0.16,0.27-0.24,0.45-0.19
		c0.18,0.04,0.28,0.2,0.31,0.38l5.68,159.04c0,0.14-0.06,0.27-0.18,0.35c-0.11,0.08-0.26,0.1-0.39,0.04l-78.41-32.15
		c-0.11-0.04-0.2-0.13-0.23-0.24C254.79,422.3,254.78,422.27,254.78,422.23z M327.56,296.76L255.78,422l77.39,31.73L327.56,296.76z"
		/>
	<path class="st1" d="M168.41,409.89c0-0.04,0-0.09,0.01-0.14l11.11-42.28c0.03-0.13,0.13-0.24,0.26-0.28
		c0.13-0.05,0.27-0.03,0.38,0.05l75.26,54.62c0.15,0.11,0.21,0.31,0.14,0.49c-0.07,0.17-0.25,0.28-0.44,0.25l-86.37-12.34
		c-0.12-0.02-0.22-0.08-0.28-0.18C168.44,410.03,168.41,409.96,168.41,409.89z M180.17,368.27l-10.84,41.25l84.28,12.04
		L180.17,368.27z"/>
	<path class="st1" d="M168.41,409.89c-0.01-0.12,0.03-0.23,0.11-0.32c0.09-0.09,0.22-0.14,0.35-0.12l86.37,12.34
		c0.15,0.02,0.27,0.12,0.32,0.26c0.05,0.13,0.03,0.29-0.06,0.41l-69.46,85.24c-0.1,0.12-0.27,0.18-0.42,0.14
		c-0.16-0.04-0.27-0.17-0.3-0.33l-16.91-97.58C168.41,409.92,168.41,409.9,168.41,409.89z M254.41,422.5l-85.1-12.16l16.66,96.14
		L254.41,422.5z"/>
	<path class="st1" d="M254.78,422.23c-0.01-0.11,0.02-0.21,0.1-0.3c0.11-0.14,0.3-0.18,0.47-0.11l78.41,32.15
		c0.11,0.05,0.2,0.14,0.24,0.26c0.04,0.12,0.02,0.24-0.04,0.34l-29.54,45.91c-0.08,0.12-0.21,0.19-0.35,0.19
		c-0.14,0-0.27-0.07-0.34-0.19l-48.87-78.06C254.8,422.36,254.79,422.3,254.78,422.23z M332.99,454.54l-76.78-31.48l47.85,76.43
		L332.99,454.54z"/>
	<path class="st1" d="M185.32,507.47c-0.01-0.1,0.02-0.21,0.09-0.29l69.46-85.24c0.09-0.11,0.24-0.17,0.38-0.15
		c0.14,0.02,0.26,0.12,0.32,0.25l43.18,109.88c0.05,0.15,0.03,0.3-0.07,0.42c-0.1,0.12-0.25,0.17-0.4,0.13l-112.64-24.65
		c-0.14-0.03-0.25-0.13-0.3-0.27C185.33,507.54,185.32,507.51,185.32,507.47z M255.06,423l-68.59,84.18l111.23,24.34L255.06,423z"/>
	<path class="st1" d="M254.78,422.23c-0.01-0.16,0.07-0.32,0.22-0.4c0.19-0.1,0.42-0.03,0.53,0.15l48.87,78.06
		c0.05,0.08,0.07,0.19,0.06,0.29l-5.69,31.82c-0.03,0.18-0.18,0.32-0.36,0.34c-0.18,0.02-0.36-0.09-0.42-0.26l-43.18-109.88
		C254.79,422.31,254.78,422.27,254.78,422.23z M303.63,500.34l-46.44-74.18l41.03,104.43L303.63,500.34z"/>
	<path class="st1" d="M171.89-61.01c-0.01-0.17,0.08-0.33,0.23-0.4c0.18-0.08,0.39-0.03,0.51,0.14l62.53,88.74
		c0.06,0.09,0.09,0.2,0.07,0.31c-0.02,0.11-0.08,0.2-0.17,0.27l-32.73,22.2c-0.11,0.07-0.25,0.09-0.37,0.04
		c-0.12-0.05-0.22-0.15-0.25-0.28L171.9-60.94C171.9-60.96,171.89-60.99,171.89-61.01z M234.25,27.6l-60.96-86.52l29.05,108.16
		L234.25,27.6z"/>
	<path class="st1" d="M201.69,49.93c0-0.01,0-0.02,0-0.04c0-0.13,0.07-0.26,0.18-0.34l32.73-22.2c0.11-0.07,0.25-0.09,0.37-0.05
		c0.12,0.04,0.22,0.15,0.25,0.27l16.31,56.67c0.04,0.18-0.02,0.35-0.16,0.45c-0.14,0.1-0.33,0.1-0.47,0l-49.04-34.47
		C201.76,50.16,201.7,50.05,201.69,49.93z M234.59,28.36L202.82,49.9l47.6,33.46L234.59,28.36z"/>
	<path class="st1" d="M446.89,193.51c0-0.03,0-0.07,0-0.1c0.04-0.22,0.25-0.37,0.47-0.33l71.26,12.23c0.22,0.04,0.37,0.26,0.33,0.47
		c-0.04,0.22-0.25,0.37-0.47,0.33l-71.26-12.23C447.04,193.85,446.91,193.7,446.89,193.51z"/>
	<path class="st1" d="M446.89,193.51c-0.01-0.09,0.02-0.18,0.07-0.26c0.09-0.13,0.25-0.2,0.41-0.17l71.26,12.23
		c0.11,0.02,0.21,0.08,0.27,0.17c0.06,0.09,0.09,0.21,0.06,0.32l-16.49,78c-0.04,0.16-0.17,0.29-0.33,0.32
		c-0.17,0.03-0.33-0.05-0.42-0.19l-54.76-90.23C446.92,193.64,446.9,193.58,446.89,193.51z M518.07,206.05l-69.95-12.01l53.76,88.58
		L518.07,206.05z"/>
	<path class="st1" d="M360.6,227.79c-0.01-0.18,0.09-0.35,0.26-0.41l86.3-34.28c0.16-0.06,0.35-0.02,0.46,0.12
		c0.12,0.13,0.13,0.32,0.04,0.48l-69.57,117.06c-0.09,0.14-0.25,0.22-0.42,0.19c-0.17-0.03-0.3-0.16-0.33-0.32l-16.73-82.78
		C360.6,227.82,360.6,227.81,360.6,227.79z M446.33,194.31l-84.86,33.71l16.45,81.4L446.33,194.31z"/>
	<path class="st1" d="M377.33,310.57c-0.01-0.08,0.01-0.17,0.06-0.24l69.57-117.06c0.07-0.12,0.21-0.2,0.35-0.2
		c0.14,0,0.28,0.07,0.35,0.2l54.76,90.23c0.07,0.11,0.08,0.25,0.02,0.37c-0.05,0.12-0.16,0.21-0.29,0.24l-124.33,26.83
		c-0.16,0.03-0.32-0.03-0.42-0.16C377.36,310.72,377.33,310.65,377.33,310.57z M447.31,194.28l-68.74,115.66l122.85-26.51
		L447.31,194.28z"/>
	<path class="st1" d="M293.73,175.56c-0.01-0.11,0.03-0.23,0.11-0.31c0.14-0.15,0.38-0.17,0.55-0.04l66.86,52.23
		c0.12,0.09,0.18,0.25,0.15,0.4c-0.03,0.15-0.14,0.27-0.29,0.32l-16.05,4.76c-0.15,0.05-0.32,0-0.42-0.12l-50.82-56.99
		C293.77,175.73,293.74,175.65,293.73,175.56z M360.13,227.59l-62.65-48.94l47.61,53.4L360.13,227.59z"/>
	<path class="st1" d="M293.73,175.56c-0.01-0.16,0.07-0.32,0.22-0.39c0.17-0.09,0.37-0.05,0.5,0.09l50.82,56.99
		c0.12,0.14,0.14,0.34,0.04,0.49l-25.67,40.81c-0.09,0.14-0.25,0.21-0.41,0.19c-0.16-0.03-0.29-0.14-0.33-0.3l-25.14-97.8
		C293.74,175.61,293.73,175.58,293.73,175.56z M344.45,232.56l-49.49-55.5l24.49,95.25L344.45,232.56z"/>
	<path class="st1" d="M214.67,276.37c-0.01-0.1,0.02-0.2,0.09-0.28l79.06-100.81c0.1-0.12,0.25-0.18,0.41-0.15
		c0.15,0.03,0.27,0.15,0.31,0.3l25.14,97.8c0.03,0.13,0,0.25-0.07,0.35c-0.08,0.1-0.19,0.16-0.32,0.16l-104.21,3.01
		c-0.16,0-0.3-0.08-0.38-0.23C214.69,276.48,214.67,276.43,214.67,276.37z M293.95,176.43l-78.01,99.47l102.82-2.97L293.95,176.43z"
		/>
	<path class="st1" d="M333.19,454.38c-0.01-0.08,0.01-0.17,0.06-0.25c0.09-0.14,0.25-0.22,0.42-0.19l143.23,25.28
		c0.12,0.02,0.22,0.09,0.28,0.19c0.06,0.1,0.07,0.23,0.04,0.34l-37.55,114.96c-0.05,0.14-0.17,0.25-0.32,0.28
		c-0.15,0.02-0.3-0.04-0.39-0.16L333.27,454.59C333.23,454.53,333.2,454.46,333.19,454.38z M476.29,479.95l-141.74-25.01
		l104.58,138.78L476.29,479.95z"/>
	<path class="st1" d="M333.19,454.38c-0.01-0.17,0.08-0.34,0.24-0.41c0.17-0.08,0.38-0.03,0.49,0.13l105.68,140.24
		c0.07,0.1,0.09,0.22,0.07,0.33c-0.03,0.12-0.1,0.22-0.21,0.27l-71.2,38.31c-0.11,0.06-0.25,0.07-0.37,0.01
		c-0.12-0.06-0.2-0.16-0.23-0.29L333.2,454.43C333.2,454.41,333.19,454.39,333.19,454.38z M438.67,594.45L334.34,456.01
		l34.04,176.27L438.67,594.45z"/>
	<path class="st1" d="M438.87,594.62c0-0.05,0-0.11,0.02-0.16l37.55-114.96c0.06-0.19,0.25-0.31,0.45-0.28
		c0.2,0.03,0.33,0.15,0.35,0.4l3.06,121.77c0,0.12-0.05,0.24-0.14,0.32c-0.09,0.08-0.22,0.11-0.34,0.09l-40.61-6.81
		c-0.12-0.02-0.22-0.09-0.28-0.19C438.9,594.74,438.88,594.68,438.87,594.62z M476.48,482.01l-36.66,112.25l39.65,6.65
		L476.48,482.01z"/>
	<path class="st1" d="M438.87,594.62c-0.01-0.12,0.03-0.24,0.12-0.32c0.09-0.09,0.23-0.13,0.35-0.11l40.61,6.81
		c0.12,0.02,0.22,0.09,0.28,0.18c0.06,0.1,0.08,0.22,0.05,0.33l-25.88,92.25c-0.05,0.19-0.23,0.31-0.42,0.3
		c-0.19-0.01-0.35-0.16-0.38-0.35l-14.73-99.06C438.88,594.64,438.87,594.63,438.87,594.62z M479.37,601.73l-39.6-6.64l14.37,96.61
		L479.37,601.73z"/>
	<path class="st1" d="M367.68,632.93c-0.01-0.16,0.07-0.31,0.21-0.39l71.2-38.31c0.16-0.08,0.35-0.06,0.48,0.06
		c0.13,0.12,0.17,0.31,0.09,0.47l-50.22,104.2c-0.07,0.15-0.23,0.24-0.4,0.23c-0.17-0.01-0.31-0.12-0.36-0.28l-20.98-65.89
		C367.69,632.99,367.68,632.96,367.68,632.93z M438.37,595.54l-69.79,37.56l20.56,64.58L438.37,595.54z"/>
	<path class="st1" d="M388.65,698.82c-0.01-0.07,0.01-0.14,0.04-0.21l50.22-104.2c0.08-0.16,0.25-0.25,0.43-0.23
		c0.18,0.03,0.32,0.17,0.34,0.34l14.73,99.06c0.02,0.12-0.01,0.23-0.08,0.32c-0.07,0.09-0.17,0.14-0.29,0.15l-64.95,5.14
		c-0.15,0.01-0.29-0.06-0.37-0.18C388.68,698.96,388.66,698.89,388.65,698.82z M439.07,595.96l-49.33,102.36l63.81-5.05
		L439.07,595.96z"/>
	<path class="st1" d="M201.69,49.93c-0.01-0.13,0.04-0.26,0.14-0.34c0.14-0.12,0.35-0.13,0.5-0.03l49.04,34.47
		c0.1,0.07,0.16,0.18,0.17,0.3l6.65,75.73c0,0,0,0,0,0c0.02,0.19-0.11,0.37-0.3,0.43c-0.19,0.05-0.39-0.03-0.48-0.21l-55.68-110.2
		C201.7,50.04,201.69,49.98,201.69,49.93z M250.74,84.59L203.2,51.18l53.99,106.84L250.74,84.59z"/>
	<path class="st1" d="M134.6,148.49c-0.01-0.09,0.02-0.18,0.07-0.26l67.09-98.56c0.08-0.12,0.22-0.19,0.37-0.18
		c0.14,0.01,0.27,0.09,0.34,0.22l55.68,110.2c0.07,0.13,0.06,0.29-0.03,0.42c-0.08,0.12-0.23,0.19-0.38,0.18l-122.77-11.64
		c-0.14-0.01-0.27-0.1-0.33-0.23C134.61,148.59,134.6,148.54,134.6,148.49z M202.04,50.7l-66.31,97.41l121.34,11.51L202.04,50.7z"/>
	<path class="st1" d="M250.72,84.4c-0.02-0.2,0.11-0.38,0.3-0.43c0.19-0.05,0.39,0.04,0.48,0.22l43.01,91.16
		c0.08,0.16,0.04,0.34-0.07,0.46c-0.12,0.12-0.3,0.16-0.45,0.09l-36.36-15.43c-0.14-0.06-0.24-0.19-0.25-0.34L250.72,84.4
		C250.72,84.4,250.72,84.4,250.72,84.4z M293.31,174.73l-41.57-88.11l6.43,73.2L293.31,174.73z"/>
	<path class="st1" d="M134.6,148.49c-0.01-0.08,0.01-0.17,0.06-0.25c0.08-0.13,0.23-0.21,0.39-0.19l122.77,11.64
		c0.13,0.01,0.24,0.08,0.31,0.19c0.07,0.11,0.08,0.24,0.04,0.36l-42.7,116.24c-0.05,0.15-0.19,0.25-0.34,0.27
		c-0.15,0.02-0.31-0.06-0.39-0.19l-80.07-127.88C134.62,148.62,134.6,148.56,134.6,148.49z M257.21,160.46l-121.42-11.51
		l79.19,126.47L257.21,160.46z"/>
	<path class="st1" d="M214.67,276.37c0-0.06,0-0.12,0.02-0.17l42.7-116.24c0.04-0.11,0.12-0.19,0.22-0.23c0.1-0.04,0.22-0.04,0.32,0
		l36.36,15.43c0.12,0.05,0.2,0.15,0.24,0.28c0.04,0.12,0,0.25-0.07,0.35L215.4,276.59c-0.12,0.16-0.35,0.2-0.52,0.11
		C214.75,276.63,214.68,276.51,214.67,276.37z M258.01,160.65l-41.66,113.4l77.13-98.35L258.01,160.65z"/>
	<path class="st1" d="M274.92,614.56c0-0.05,0-0.1,0.01-0.14l23.04-82.44c0.04-0.15,0.17-0.27,0.33-0.29
		c0.16-0.03,0.31,0.04,0.4,0.17l69.72,100.81c0.1,0.14,0.1,0.32,0.01,0.46c-0.09,0.14-0.26,0.21-0.42,0.18l-92.76-18.37
		c-0.11-0.02-0.21-0.09-0.27-0.19C274.94,614.68,274.92,614.62,274.92,614.56z M298.53,533.04l-22.69,81.17l91.33,18.09
		L298.53,533.04z"/>
	<path class="st1" d="M518.15,205.75c-0.01-0.13,0.04-0.26,0.15-0.35c0.18-0.14,0.43-0.11,0.57,0.07l57.24,71.73
		c0.14,0.17,0.11,0.43-0.07,0.57c-0.18,0.14-0.43,0.11-0.58-0.07l-57.24-71.73C518.18,205.9,518.15,205.83,518.15,205.75z"/>
	<path class="st1" d="M501.65,283.75c0-0.04,0-0.08,0.01-0.12l16.49-78c0.03-0.16,0.15-0.28,0.31-0.31
		c0.15-0.04,0.32,0.02,0.41,0.14l57.24,71.73c0.1,0.12,0.12,0.28,0.06,0.42c-0.06,0.14-0.19,0.23-0.34,0.25l-73.73,6.27
		c-0.13,0.01-0.26-0.04-0.34-0.14C501.7,283.92,501.66,283.83,501.65,283.75z M518.78,206.65l-16.2,76.61L575,277.1L518.78,206.65z"
		/>
	<path class="st1" d="M501.65,283.75c-0.01-0.08,0.01-0.15,0.05-0.23c0.07-0.12,0.19-0.2,0.33-0.22l73.73-6.27
		c0.14-0.01,0.28,0.05,0.37,0.17c0.08,0.11,0.1,0.27,0.04,0.4l-33.5,78.91c-0.06,0.14-0.2,0.24-0.36,0.25
		c-0.16,0.01-0.3-0.07-0.38-0.21l-40.23-72.64C501.68,283.86,501.66,283.8,501.65,283.75z M575.15,277.91l-72.43,6.16l39.52,71.35
		L575.15,277.91z"/>
	<path class="st1" d="M575.39,277.48c0-0.03,0-0.05,0-0.08c0.03-0.2,0.19-0.36,0.4-0.36l120.37-2.11c0.13,0,0.25,0.05,0.33,0.15
		c0.08,0.1,0.1,0.22,0.08,0.35l-7.29,32.39c-0.03,0.11-0.09,0.2-0.19,0.26c-0.1,0.06-0.21,0.07-0.32,0.04l-113.08-30.28
		C575.52,277.8,575.4,277.65,575.39,277.48z M695.65,275.75l-116.93,2.05l109.85,29.41L695.65,275.75z"/>
	<path class="st1" d="M541.89,356.39c-0.01-0.06,0.01-0.13,0.03-0.19l33.5-78.91c0.08-0.19,0.29-0.29,0.48-0.24l113.08,30.28
		c0.17,0.05,0.31,0.17,0.3,0.38c0,0.18-0.11,0.34-0.28,0.4l-146.58,48.63c-0.15,0.05-0.32,0.01-0.43-0.11
		C541.93,356.56,541.89,356.48,541.89,356.39z M576.03,277.94l-33.01,77.75l144.42-47.92L576.03,277.94z"/>
	<path class="st1" d="M185.32,507.47c-0.01-0.08,0.01-0.17,0.06-0.25c0.09-0.15,0.26-0.22,0.43-0.19l112.64,24.65
		c0.15,0.03,0.27,0.15,0.31,0.29c0.04,0.14,0,0.3-0.12,0.41l-53.27,49.1c-0.08,0.08-0.19,0.12-0.31,0.11
		c-0.11-0.01-0.22-0.06-0.29-0.15l-59.37-73.74C185.36,507.63,185.33,507.55,185.32,507.47z M297.51,532.32l-110.73-24.23
		l58.36,72.5L297.51,532.32z"/>
	<path class="st1" d="M172.33,588.24c0-0.03,0-0.06,0-0.1l12.99-80.77c0.03-0.16,0.14-0.29,0.3-0.33c0.16-0.04,0.32,0.01,0.42,0.14
		l59.37,73.74c0.09,0.12,0.12,0.28,0.06,0.42c-0.06,0.14-0.19,0.23-0.34,0.25l-72.36,7.03c-0.13,0.01-0.25-0.03-0.34-0.13
		C172.38,588.42,172.34,588.34,172.33,588.24z M185.99,508.41l-12.76,79.34l71.07-6.9L185.99,508.41z"/>
	<path class="st1" d="M244.69,581.22c-0.01-0.12,0.04-0.25,0.13-0.33l53.27-49.1c0.13-0.12,0.34-0.14,0.49-0.05
		c0.16,0.1,0.23,0.29,0.18,0.46l-23.04,82.44c-0.04,0.14-0.15,0.25-0.3,0.29c-0.14,0.03-0.3-0.01-0.4-0.12l-30.23-33.34
		C244.73,581.39,244.7,581.3,244.69,581.22z M297.58,533.36l-51.91,47.85l29.45,32.49L297.58,533.36z"/>
	<path class="st1" d="M172.33,588.24c-0.01-0.1,0.02-0.2,0.08-0.28c0.07-0.09,0.17-0.15,0.29-0.16l72.36-7.03
		c0.2-0.02,0.38,0.1,0.43,0.29c0.05,0.2-0.03,0.39-0.21,0.48l-67.26,34.08c-0.11,0.06-0.25,0.06-0.37,0
		c-0.12-0.06-0.2-0.17-0.22-0.29l-5.1-27.05C172.33,588.27,172.33,588.26,172.33,588.24z M242.97,581.8l-69.75,6.78l4.91,26.07
		L242.97,581.8z"/>
	<path class="st1" d="M181.28,684.71C181.28,684.71,181.28,684.71,181.28,684.71l-3.85-69.43c-0.01-0.16,0.08-0.31,0.22-0.39
		l67.26-34.08c0.16-0.08,0.36-0.05,0.49,0.09c0.12,0.14,0.14,0.34,0.05,0.49l-63.41,103.5c-0.09,0.15-0.28,0.23-0.45,0.18
		C181.41,685.03,181.29,684.89,181.28,684.71z M178.26,615.51l3.76,67.84l61.97-101.15L178.26,615.51z"/>
	<path class="st1" d="M181.28,684.71c-0.01-0.08,0.01-0.17,0.06-0.25l63.41-103.5c0.07-0.11,0.18-0.18,0.31-0.19
		c0.13-0.01,0.25,0.04,0.34,0.13l30.23,33.34c0.08,0.09,0.12,0.21,0.1,0.31c-0.01,0.11-0.07,0.22-0.16,0.29l-93.64,70.16
		c-0.16,0.12-0.38,0.11-0.52-0.02C181.33,684.91,181.28,684.81,181.28,684.71z M245.16,581.86l-62.01,101.21l91.57-68.6
		L245.16,581.86z"/>
	<path class="st1" d="M-14.4,37.83c-0.01-0.08,0.01-0.16,0.05-0.24c0.08-0.13,0.22-0.21,0.38-0.2l74.52,3.69
		c0.11,0.01,0.22,0.06,0.29,0.14c0.07,0.08,0.11,0.2,0.1,0.31l-9.8,96.21c-0.02,0.17-0.14,0.32-0.31,0.36
		c-0.17,0.04-0.34-0.03-0.44-0.18l-64.72-99.9C-14.38,37.96-14.4,37.89-14.4,37.83z M60.08,41.87l-73.29-3.63l63.65,98.25
		L60.08,41.87z"/>
	<path class="st1" d="M-31.84,108.06c0-0.04,0-0.09,0.01-0.13l17.43-70.23c0.04-0.16,0.17-0.28,0.33-0.31
		c0.16-0.03,0.32,0.04,0.41,0.18l64.72,99.9c0.1,0.14,0.09,0.34-0.02,0.48c-0.11,0.14-0.29,0.19-0.46,0.13l-82.16-29.67
		C-31.72,108.35-31.82,108.21-31.84,108.06z M-13.82,38.81l-17.12,68.95l80.67,29.13L-13.82,38.81z"/>
	<path class="st1" d="M50.32,137.73c0-0.02,0-0.05,0-0.07l9.8-96.21c0.02-0.17,0.14-0.31,0.3-0.35c0.16-0.04,0.34,0.02,0.44,0.15
		l34.23,46.54c0.11,0.16,0.1,0.37-0.02,0.51l-44.02,49.67c-0.12,0.13-0.31,0.18-0.47,0.1C50.42,138.01,50.33,137.87,50.32,137.73z
		 M60.83,42.58l-9.56,93.89L94.23,88L60.83,42.58z"/>
	<path class="st1" d="M50.32,137.73c-0.01-0.11,0.03-0.22,0.1-0.3l44.02-49.67c0.13-0.14,0.33-0.18,0.49-0.09
		c0.17,0.09,0.25,0.28,0.21,0.46l-8.32,35.96c-0.03,0.13-0.13,0.24-0.25,0.29l-35.7,13.72c-0.18,0.07-0.38,0.01-0.48-0.15
		C50.35,137.87,50.33,137.8,50.32,137.73z M93.99,89.5l-41.84,47.21l33.93-13.04L93.99,89.5z"/>
	<path class="st1" d="M-31.84,108.06c-0.01-0.09,0.02-0.19,0.08-0.27c0.11-0.15,0.3-0.21,0.47-0.14l82.16,29.67
		c0.13,0.05,0.22,0.15,0.26,0.28l28.95,112.75c0.06,0.2-0.04,0.39-0.22,0.47c-0.17,0.09-0.38,0.04-0.5-0.12L-31.75,108.27
		C-31.8,108.21-31.83,108.13-31.84,108.06z M50.39,138.01l-80.62-29.12L78.8,248.65L50.39,138.01z"/>
	<path class="st1" d="M50.32,137.73c-0.01-0.18,0.09-0.35,0.26-0.41l35.7-13.72c0.13-0.05,0.28-0.03,0.39,0.05
		c0.11,0.08,0.17,0.2,0.17,0.35l-6.75,126.47c-0.01,0.2-0.17,0.36-0.37,0.39c-0.2,0.02-0.39-0.11-0.44-0.31L50.33,137.8
		C50.33,137.77,50.32,137.75,50.32,137.73z M85.99,124.59l-34.77,13.36l28.2,109.81L85.99,124.59z"/>
	<path class="st1" d="M99.25,464.63c1.21-0.1,2.11-1.15,2.02-2.36c-0.1-1.21-1.15-2.11-2.36-2.02c-1.21,0.1-2.11,1.15-2.02,2.36
		C96.98,463.82,98.04,464.72,99.25,464.63z"/>
	<path class="st1" d="M23.9,450.46c2.6-0.21,4.54-2.48,4.34-5.08c-0.21-2.6-2.48-4.54-5.08-4.34s-4.54,2.48-4.34,5.08
		C19.02,448.73,21.3,450.67,23.9,450.46z"/>
	<path class="st1" d="M114.31,389.34c0.96-0.08,1.68-0.92,1.6-1.88c-0.08-0.96-0.92-1.68-1.88-1.6c-0.96,0.08-1.68,0.92-1.6,1.88
		C112.51,388.7,113.35,389.41,114.31,389.34z"/>
	<path class="st1" d="M588.68,589.83c1.24-0.1,2.17-1.19,2.07-2.43c-0.1-1.24-1.19-2.17-2.43-2.07c-1.24,0.1-2.17,1.19-2.07,2.43
		C586.34,589,587.43,589.93,588.68,589.83z"/>
	<path class="st1" d="M732.42,463.79c3.36-0.27,5.87-3.21,5.61-6.57c-0.27-3.36-3.21-5.87-6.57-5.61c-3.36,0.27-5.87,3.21-5.61,6.57
		C726.11,461.55,729.06,464.06,732.42,463.79z"/>
	<path class="st1" d="M753.43,480.23c1.34-0.11,2.34-1.28,2.23-2.62c-0.11-1.34-1.28-2.34-2.62-2.23c-1.34,0.11-2.34,1.28-2.23,2.62
		C750.92,479.34,752.09,480.34,753.43,480.23z"/>
	<path class="st1" d="M732.21,461.13c1.89-0.15,3.31-1.81,3.16-3.7c-0.15-1.89-1.81-3.31-3.7-3.16c-1.89,0.15-3.31,1.81-3.16,3.7
		C728.66,459.87,730.32,461.28,732.21,461.13z"/>
	
		<ellipse transform="matrix(0.6492 -0.7607 0.7607 0.6492 -240.473 653.7914)" class="st1" cx="588.5" cy="587.58" rx="3.01" ry="3.01"/>
	<path class="st1" d="M114.65,252.37c1.38-0.11,2.4-1.31,2.29-2.69c-0.11-1.38-1.31-2.4-2.69-2.29c-1.38,0.11-2.4,1.31-2.29,2.69
		C112.07,251.45,113.27,252.47,114.65,252.37z"/>
	<path class="st1" d="M80.46,260.34c5.47-0.43,9.55-5.21,9.11-10.68c-0.43-5.47-5.21-9.55-10.68-9.11
		c-5.47,0.43-9.55,5.21-9.11,10.68C70.22,256.69,75,260.77,80.46,260.34z"/>
	<path class="st1" d="M86.96,130.62c3.67-0.29,6.41-3.5,6.12-7.17c-0.29-3.67-3.5-6.41-7.17-6.12c-3.67,0.29-6.41,3.5-6.12,7.17
		C80.07,128.17,83.29,130.91,86.96,130.62z"/>
	<path class="st1" d="M115.08,257.83c4.39-0.35,7.67-4.19,7.32-8.58s-4.19-7.67-8.58-7.32c-4.39,0.35-7.67,4.19-7.32,8.58
		C106.85,254.9,110.69,258.17,115.08,257.83z"/>
	<path class="st1" d="M114.33,389.48c1.04-0.08,1.81-0.99,1.73-2.03c-0.08-1.04-0.99-1.81-2.03-1.73s-1.81,0.99-1.73,2.03
		C112.38,388.78,113.29,389.56,114.33,389.48z"/>
	<path class="st1" d="M80.05,255.1c2.57-0.2,4.49-2.45,4.28-5.02c-0.2-2.57-2.45-4.49-5.02-4.28c-2.57,0.2-4.49,2.45-4.28,5.02
		C75.23,253.38,77.48,255.3,80.05,255.1z"/>
	<path class="st1" d="M114.79,254.17c2.37-0.19,4.14-2.26,3.95-4.63c-0.19-2.37-2.26-4.14-4.63-3.95c-2.37,0.19-4.14,2.26-3.95,4.63
		C110.35,252.58,112.42,254.35,114.79,254.17z"/>
	<path class="st1" d="M114.51,391.86c2.35-0.19,4.11-2.24,3.92-4.59s-2.24-4.11-4.59-3.92c-2.35,0.19-4.11,2.24-3.92,4.59
		S112.16,392.04,114.51,391.86z"/>
	<path class="st1" d="M180.19,370.93c1.85-0.15,3.23-1.76,3.08-3.61c-0.15-1.85-1.76-3.23-3.61-3.08c-1.85,0.15-3.23,1.76-3.08,3.61
		C176.72,369.7,178.34,371.08,180.19,370.93z"/>
	<path class="st1" d="M114.44,390.99c1.87-0.15,3.27-1.79,3.12-3.66c-0.15-1.87-1.79-3.27-3.66-3.12c-1.87,0.15-3.27,1.79-3.12,3.66
		C110.93,389.74,112.57,391.14,114.44,390.99z"/>
	<path class="st1" d="M80.1,255.69c2.9-0.23,5.06-2.76,4.83-5.66c-0.23-2.9-2.76-5.06-5.66-4.83c-2.9,0.23-5.06,2.76-4.83,5.66
		C74.67,253.76,77.2,255.92,80.1,255.69z"/>
	<path class="st1" d="M24.19,454.08c4.6-0.36,8.03-4.39,7.67-8.99c-0.36-4.6-4.39-8.03-8.99-7.67c-4.6,0.36-8.03,4.39-7.67,8.99
		C15.56,451.01,19.59,454.45,24.19,454.08z"/>
	<path class="st1" d="M24.05,452.33c3.63-0.29,6.35-3.47,6.06-7.1c-0.29-3.63-3.47-6.35-7.1-6.06c-3.63,0.29-6.35,3.47-6.06,7.1
		C17.24,449.91,20.41,452.62,24.05,452.33z"/>
	<path class="st1" d="M114.47,391.3c2.05-0.16,3.57-1.95,3.41-4c-0.16-2.05-1.95-3.57-4-3.41c-2.05,0.16-3.57,1.95-3.41,4
		C110.63,389.94,112.42,391.47,114.47,391.3z"/>
	<path class="st1" d="M518.92,210.28c2.52-0.2,4.4-2.4,4.2-4.93c-0.2-2.52-2.4-4.4-4.93-4.2c-2.52,0.2-4.4,2.4-4.2,4.93
		C514.19,208.6,516.4,210.48,518.92,210.28z"/>
	<path class="st1" d="M99.22,464.22c0.98-0.08,1.72-0.94,1.64-1.92c-0.08-0.98-0.94-1.72-1.92-1.64c-0.98,0.08-1.72,0.94-1.64,1.92
		C97.37,463.56,98.23,464.29,99.22,464.22z"/>
	<path class="st1" d="M23.67,447.5c0.96-0.08,1.68-0.92,1.61-1.88s-0.92-1.68-1.88-1.61s-1.68,0.92-1.61,1.88
		C21.86,446.86,22.7,447.58,23.67,447.5z"/>
	<path class="st1" d="M136.03,501.94c1.52-0.12,2.66-1.45,2.54-2.97c-0.12-1.52-1.45-2.66-2.97-2.54s-2.66,1.45-2.54,2.97
		S134.51,502.06,136.03,501.94z"/>
	<path class="st1" d="M99.24,464.48c1.13-0.09,1.97-1.07,1.88-2.2c-0.09-1.13-1.07-1.97-2.2-1.88s-1.97,1.07-1.88,2.2
		C97.13,463.73,98.11,464.57,99.24,464.48z"/>
	<path class="st1" d="M173.41,596.64c4.65-0.37,8.13-4.44,7.76-9.09c-0.37-4.65-4.44-8.13-9.09-7.76c-4.65,0.37-8.13,4.44-7.76,9.09
		C164.68,593.53,168.75,597.01,173.41,596.64z"/>
	<path class="st1" d="M136.12,503.05c2.14-0.17,3.73-2.04,3.56-4.17c-0.17-2.14-2.04-3.73-4.17-3.56c-2.14,0.17-3.73,2.04-3.56,4.17
		C132.11,501.63,133.98,503.22,136.12,503.05z"/>
	<path class="st1" d="M24.41,456.9c6.16-0.49,10.76-5.87,10.27-12.03c-0.49-6.16-5.87-10.76-12.03-10.27
		c-6.16,0.49-10.76,5.88-10.27,12.03C12.86,452.79,18.25,457.39,24.41,456.9z"/>
	<path class="st1" d="M23.58,446.42c0.37-0.03,0.64-0.35,0.61-0.72c-0.03-0.37-0.35-0.64-0.72-0.61s-0.64,0.35-0.61,0.72
		C22.89,446.17,23.21,446.45,23.58,446.42z"/>
	<path class="st1" d="M753.57,482.07c2.35-0.19,4.11-2.25,3.93-4.6c-0.19-2.35-2.25-4.11-4.6-3.93c-2.35,0.19-4.11,2.25-3.93,4.6
		C749.16,480.5,751.22,482.26,753.57,482.07z"/>
	<path class="st1" d="M520.55,542.35c1.65-0.13,2.88-1.57,2.75-3.22c-0.13-1.65-1.57-2.88-3.22-2.75c-1.65,0.13-2.88,1.57-2.75,3.22
		C517.46,541.25,518.9,542.48,520.55,542.35z"/>
	<path class="st1" d="M477.37,486.39c3.74-0.3,6.53-3.57,6.23-7.3c-0.3-3.74-3.57-6.53-7.3-6.23c-3.74,0.3-6.53,3.57-6.23,7.3
		C470.36,483.9,473.63,486.69,477.37,486.39z"/>
	<path class="st1" d="M61.01,47.61c3.38-0.27,5.91-3.23,5.64-6.61s-3.23-5.91-6.61-5.64c-3.38,0.27-5.91,3.23-5.64,6.61
		C54.67,45.35,57.63,47.88,61.01,47.61z"/>
	<path class="st1" d="M60.68,43.44c1.08-0.09,1.89-1.03,1.8-2.11c-0.09-1.08-1.03-1.89-2.11-1.8c-1.08,0.09-1.89,1.03-1.8,2.11
		C58.66,42.72,59.6,43.53,60.68,43.44z"/>
	<path class="st1" d="M127.03,31.06c1.71-0.14,2.98-1.63,2.85-3.34c-0.14-1.71-1.63-2.98-3.34-2.85s-2.98,1.63-2.85,3.34
		C123.83,29.92,125.33,31.2,127.03,31.06z"/>
	
		<ellipse transform="matrix(0.0755 -0.9971 0.9971 0.0755 -334.2784 654.35)" class="st1" cx="185.73" cy="507.44" rx="4.64" ry="4.64"/>
	<path class="st1" d="M172.9,590.21c1.1-0.09,1.92-1.05,1.84-2.15c-0.09-1.1-1.05-1.92-2.15-1.84c-1.1,0.09-1.92,1.05-1.84,2.15
		C170.83,589.47,171.8,590.29,172.9,590.21z"/>
	<path class="st1" d="M135.94,500.84c0.91-0.07,1.59-0.87,1.52-1.78s-0.87-1.59-1.78-1.52c-0.91,0.07-1.59,0.87-1.52,1.78
		C134.23,500.23,135.03,500.91,135.94,500.84z"/>
	<path class="st1" d="M304.38,504.32c2.24-0.18,3.91-2.14,3.74-4.38c-0.18-2.24-2.14-3.91-4.38-3.74c-2.24,0.18-3.91,2.14-3.74,4.38
		C300.18,502.82,302.14,504.49,304.38,504.32z"/>
	<path class="st1" d="M298.52,534.03c1.07-0.08,1.87-1.02,1.79-2.09c-0.08-1.07-1.02-1.87-2.09-1.79c-1.07,0.08-1.87,1.02-1.79,2.09
		C296.51,533.31,297.45,534.11,298.52,534.03z"/>
	<path class="st1" d="M169.06,412.92c1.69-0.13,2.95-1.61,2.82-3.3c-0.13-1.69-1.61-2.95-3.3-2.82c-1.69,0.13-2.95,1.61-2.82,3.3
		C165.89,411.79,167.37,413.05,169.06,412.92z"/>
	<path class="st1" d="M114.67,393.84c3.45-0.27,6.02-3.29,5.75-6.74c-0.27-3.45-3.29-6.02-6.74-5.75c-3.45,0.27-6.02,3.29-5.75,6.74
		C108.2,391.54,111.22,394.12,114.67,393.84z"/>
	<path class="st1" d="M180.06,369.28c0.94-0.07,1.64-0.89,1.56-1.83c-0.07-0.94-0.89-1.64-1.83-1.56c-0.94,0.07-1.64,0.89-1.56,1.83
		C178.3,368.66,179.12,369.36,180.06,369.28z"/>
	<path class="st1" d="M169.15,414.04c2.31-0.18,4.04-2.2,3.85-4.52c-0.18-2.31-2.2-4.04-4.52-3.85c-2.31,0.18-4.04,2.2-3.85,4.52
		C164.81,412.5,166.84,414.23,169.15,414.04z"/>
	<path class="st1" d="M99.68,470.05c4.2-0.33,7.34-4.01,7.01-8.21c-0.33-4.2-4.01-7.34-8.21-7.01c-4.2,0.33-7.34,4.01-7.01,8.21
		C91.8,467.24,95.47,470.38,99.68,470.05z"/>
	<path class="st1" d="M114.34,389.69c1.15-0.09,2.01-1.1,1.92-2.25c-0.09-1.15-1.1-2.01-2.25-1.92c-1.15,0.09-2.01,1.1-1.92,2.25
		C112.18,388.92,113.19,389.78,114.34,389.69z"/>
	<path class="st1" d="M168.94,411.43c0.87-0.07,1.52-0.83,1.45-1.7c-0.07-0.87-0.83-1.52-1.7-1.45c-0.87,0.07-1.52,0.83-1.45,1.7
		C167.31,410.85,168.07,411.5,168.94,411.43z"/>
	<path class="st1" d="M136.08,502.61c1.89-0.15,3.3-1.8,3.15-3.69c-0.15-1.89-1.8-3.3-3.69-3.15c-1.89,0.15-3.3,1.8-3.15,3.69
		C132.54,501.35,134.19,502.76,136.08,502.61z"/>
	<path class="st1" d="M99.5,467.85c2.99-0.24,5.22-2.85,4.99-5.84c-0.24-2.99-2.85-5.22-5.84-4.99c-2.99,0.24-5.22,2.85-4.99,5.84
		C93.9,465.86,96.51,468.09,99.5,467.85z"/>
	<path class="st1" d="M168.92,411.21c0.74-0.06,1.3-0.71,1.24-1.45c-0.06-0.74-0.71-1.3-1.45-1.24c-0.74,0.06-1.3,0.71-1.24,1.45
		S168.18,411.27,168.92,411.21z"/>
	<path class="st1" d="M186.1,512.11c2.58-0.2,4.5-2.46,4.3-5.04c-0.2-2.58-2.46-4.5-5.04-4.3c-2.58,0.2-4.5,2.46-4.3,5.04
		C181.27,510.39,183.52,512.31,186.1,512.11z"/>
	<path class="st1" d="M135.94,500.8c0.89-0.07,1.56-0.85,1.49-1.74c-0.07-0.89-0.85-1.56-1.74-1.49c-0.89,0.07-1.56,0.85-1.49,1.74
		C134.27,500.21,135.05,500.87,135.94,500.8z"/>
	<path class="st1" d="M95.11,92.55c2.5-0.2,4.37-2.39,4.17-4.89c-0.2-2.5-2.39-4.37-4.89-4.17c-2.5,0.2-4.37,2.39-4.17,4.89
		C90.42,90.88,92.61,92.75,95.11,92.55z"/>
	<path class="st1" d="M61.03,47.81c3.49-0.28,6.1-3.33,5.82-6.82c-0.28-3.49-3.33-6.1-6.82-5.82c-3.49,0.28-6.1,3.33-5.82,6.82
		C54.48,45.48,57.54,48.08,61.03,47.81z"/>
	<path class="st1" d="M127.05,31.24c1.81-0.14,3.16-1.73,3.02-3.54c-0.14-1.81-1.73-3.16-3.54-3.02c-1.81,0.14-3.16,1.73-3.02,3.54
		C123.66,30.03,125.24,31.39,127.05,31.24z"/>
	<path class="st1" d="M377.87,312.24c0.94-0.07,1.64-0.89,1.56-1.83c-0.07-0.94-0.89-1.64-1.83-1.56c-0.94,0.07-1.64,0.89-1.56,1.83
		C376.11,311.61,376.93,312.31,377.87,312.24z"/>
	<path class="st1" d="M345.53,239.75c4-0.32,6.98-3.81,6.67-7.81c-0.32-4-3.81-6.98-7.81-6.67c-4,0.32-6.98,3.81-6.67,7.81
		C338.04,237.09,341.53,240.07,345.53,239.75z"/>
	<path class="st1" d="M361.62,235.47c4.26-0.34,7.44-4.06,7.1-8.32c-0.34-4.26-4.06-7.44-8.32-7.1s-7.44,4.06-7.1,8.32
		C353.63,232.63,357.36,235.81,361.62,235.47z"/>
	<path class="st1" d="M202.44,54.29c2.43-0.19,4.24-2.31,4.04-4.74c-0.19-2.43-2.31-4.24-4.74-4.04c-2.43,0.19-4.24,2.31-4.04,4.74
		C197.9,52.67,200.02,54.48,202.44,54.29z"/>
	<path class="st1" d="M126.97,30.24c1.26-0.1,2.19-1.2,2.09-2.45c-0.1-1.26-1.2-2.19-2.45-2.09s-2.19,1.2-2.09,2.45
		C124.61,29.4,125.71,30.34,126.97,30.24z"/>
	<path class="st1" d="M202.14,50.51c0.34-0.03,0.59-0.32,0.56-0.66c-0.03-0.34-0.32-0.59-0.66-0.56c-0.34,0.03-0.59,0.32-0.56,0.66
		C201.51,50.28,201.81,50.54,202.14,50.51z"/>
	<path class="st1" d="M126.95,29.96c1.1-0.09,1.92-1.05,1.83-2.15c-0.09-1.1-1.05-1.92-2.15-1.83c-1.1,0.09-1.92,1.05-1.83,2.15
		S125.85,30.04,126.95,29.96z"/>
	<path class="st1" d="M135.62,156.19c4.27-0.34,7.45-4.07,7.11-8.34c-0.34-4.27-4.07-7.45-8.34-7.11c-4.27,0.34-7.45,4.07-7.11,8.34
		C127.62,153.34,131.35,156.52,135.62,156.19z"/>
	<path class="st1" d="M202.4,53.72c2.11-0.17,3.69-2.01,3.52-4.12c-0.17-2.11-2.01-3.69-4.12-3.52c-2.11,0.17-3.69,2.01-3.52,4.12
		S200.29,53.89,202.4,53.72z"/>
	<path class="st1" d="M127.02,30.94c1.64-0.13,2.87-1.57,2.74-3.21c-0.13-1.64-1.57-2.87-3.21-2.74c-1.64,0.13-2.87,1.57-2.74,3.21
		C123.95,29.84,125.38,31.07,127.02,30.94z"/>
	<path class="st1" d="M135.15,150.24c0.98-0.08,1.72-0.94,1.64-1.92s-0.94-1.72-1.92-1.64c-0.98,0.08-1.72,0.94-1.64,1.92
		C133.3,149.58,134.16,150.32,135.15,150.24z"/>
	<path class="st1" d="M94.96,90.66c1.46-0.12,2.55-1.39,2.43-2.85c-0.12-1.46-1.39-2.55-2.85-2.43c-1.46,0.12-2.55,1.39-2.43,2.85
		C92.23,89.69,93.5,90.78,94.96,90.66z"/>
	<path class="st1" d="M127.2,33.16c2.87-0.23,5.01-2.74,4.78-5.6c-0.23-2.87-2.74-5.01-5.6-4.78c-2.87,0.23-5.01,2.74-4.78,5.6
		C121.82,31.25,124.33,33.39,127.2,33.16z"/>
	<path class="st1" d="M135.12,149.94c0.82-0.06,1.43-0.78,1.36-1.6c-0.06-0.82-0.78-1.43-1.6-1.36c-0.82,0.06-1.43,0.78-1.36,1.6
		C133.59,149.39,134.3,150,135.12,149.94z"/>
	<path class="st1" d="M86.76,128.16c2.31-0.18,4.03-2.2,3.85-4.51c-0.18-2.31-2.2-4.03-4.51-3.85c-2.31,0.18-4.03,2.2-3.85,4.51
		C82.43,126.62,84.45,128.34,86.76,128.16z"/>
	<path class="st1" d="M95.27,94.51c3.58-0.28,6.25-3.42,5.97-7c-0.28-3.58-3.42-6.25-7-5.97c-3.58,0.28-6.25,3.42-5.97,7
		C88.55,92.12,91.68,94.79,95.27,94.51z"/>
	<path class="st1" d="M135.05,149.03c0.31-0.02,0.55-0.3,0.52-0.61c-0.02-0.31-0.3-0.55-0.61-0.52c-0.31,0.02-0.55,0.3-0.52,0.61
		C134.46,148.82,134.74,149.05,135.05,149.03z"/>
	<path class="st1" d="M114.89,255.43c3.07-0.24,5.36-2.93,5.12-6c-0.24-3.07-2.93-5.36-6-5.12c-3.07,0.24-5.36,2.93-5.12,6
		C109.14,253.38,111.82,255.68,114.89,255.43z"/>
	<path class="st1" d="M86.8,128.61c2.56-0.2,4.47-2.44,4.27-5c-0.2-2.56-2.44-4.47-5-4.27c-2.56,0.2-4.47,2.44-4.27,5
		C82,126.9,84.24,128.81,86.8,128.61z"/>
	<path class="st1" d="M79.92,253.44c1.65-0.13,2.88-1.57,2.75-3.23s-1.58-2.88-3.23-2.75c-1.65,0.13-2.88,1.58-2.75,3.23
		C76.82,252.33,78.27,253.57,79.92,253.44z"/>
	<path class="st1" d="M79.78,251.67c0.67-0.05,1.18-0.64,1.12-1.32c-0.05-0.67-0.64-1.18-1.32-1.12c-0.67,0.05-1.18,0.64-1.12,1.32
		C78.51,251.22,79.1,251.72,79.78,251.67z"/>
	<path class="st1" d="M173.28,595.07c3.79-0.3,6.62-3.61,6.32-7.4c-0.3-3.79-3.61-6.62-7.4-6.32c-3.79,0.3-6.62,3.61-6.32,7.4
		S169.49,595.37,173.28,595.07z"/>
	<path class="st1" d="M333.89,457.97c2-0.16,3.5-1.91,3.34-3.91c-0.16-2-1.91-3.5-3.91-3.34c-2,0.16-3.5,1.91-3.34,3.91
		C330.13,456.64,331.89,458.13,333.89,457.97z"/>
	<path class="st1" d="M442.13,381.41c2.95-0.23,5.15-2.81,4.91-5.76c-0.23-2.95-2.81-5.15-5.76-4.91c-2.95,0.23-5.15,2.81-4.91,5.76
		C436.61,379.44,439.18,381.64,442.13,381.41z"/>
	<path class="st1" d="M378.02,314.17c2.01-0.16,3.5-1.91,3.35-3.92c-0.16-2.01-1.91-3.5-3.92-3.35c-2.01,0.16-3.5,1.91-3.35,3.92
		C374.26,312.83,376.01,314.33,378.02,314.17z"/>
	<path class="st1" d="M333.77,456.47c1.17-0.09,2.05-1.12,1.96-2.29c-0.09-1.17-1.12-2.05-2.29-1.96c-1.17,0.09-2.05,1.12-1.96,2.29
		C331.57,455.69,332.59,456.57,333.77,456.47z"/>
	<path class="st1" d="M472.43,432.32c0.39-0.03,0.69-0.37,0.66-0.77c-0.03-0.39-0.37-0.69-0.77-0.66c-0.39,0.03-0.69,0.37-0.66,0.77
		C471.7,432.06,472.04,432.35,472.43,432.32z"/>
	<path class="st1" d="M441.88,378.25c1.2-0.1,2.1-1.15,2-2.35c-0.09-1.2-1.15-2.1-2.35-2c-1.2,0.09-2.1,1.15-2,2.35
		C439.63,377.45,440.68,378.35,441.88,378.25z"/>
	<path class="st1" d="M333.84,457.44c1.71-0.13,2.98-1.63,2.85-3.33s-1.63-2.98-3.33-2.85c-1.71,0.13-2.98,1.63-2.85,3.33
		C330.65,456.3,332.14,457.57,333.84,457.44z"/>
	<path class="st1" d="M477.05,482.39c1.53-0.12,2.67-1.46,2.55-2.99c-0.12-1.53-1.46-2.67-2.99-2.55c-1.53,0.12-2.67,1.46-2.55,2.99
		C474.18,481.37,475.52,482.52,477.05,482.39z"/>
	<path class="st1" d="M472.48,432.93c0.73-0.06,1.28-0.7,1.22-1.43s-0.7-1.28-1.43-1.22c-0.73,0.06-1.28,0.7-1.22,1.43
		C471.11,432.44,471.75,432.99,472.48,432.93z"/>
	<path class="st1" d="M333.95,458.76c2.43-0.19,4.25-2.32,4.06-4.76c-0.19-2.43-2.32-4.25-4.76-4.06c-2.43,0.19-4.25,2.32-4.06,4.76
		S331.51,458.95,333.95,458.76z"/>
	<path class="st1" d="M304.41,504.69c2.45-0.19,4.27-2.33,4.08-4.78c-0.19-2.45-2.33-4.27-4.78-4.08c-2.45,0.19-4.27,2.33-4.08,4.78
		C299.82,503.06,301.96,504.88,304.41,504.69z"/>
	<path class="st1" d="M522.23,476.45c0.47-0.04,0.82-0.45,0.78-0.91c-0.04-0.47-0.45-0.82-0.91-0.78c-0.47,0.04-0.82,0.45-0.78,0.91
		C521.35,476.14,521.76,476.49,522.23,476.45z"/>
	<path class="st1" d="M476.96,481.29c0.92-0.07,1.61-0.88,1.53-1.8c-0.07-0.92-0.88-1.61-1.8-1.53c-0.92,0.07-1.61,0.88-1.53,1.8
		C475.24,480.68,476.04,481.36,476.96,481.29z"/>
	<path class="st1" d="M472.57,434.08c1.36-0.11,2.38-1.3,2.27-2.66c-0.11-1.36-1.3-2.38-2.66-2.27c-1.36,0.11-2.38,1.3-2.27,2.66
		C470.01,433.17,471.21,434.18,472.57,434.08z"/>
	<path class="st1" d="M522.46,479.27c2.02-0.16,3.53-1.93,3.37-3.95s-1.93-3.53-3.95-3.37c-2.02,0.16-3.53,1.93-3.37,3.95
		C518.66,477.92,520.43,479.43,522.46,479.27z"/>
	<path class="st1" d="M588.98,593.61c3.33-0.26,5.82-3.18,5.56-6.51c-0.26-3.33-3.18-5.82-6.51-5.56c-3.33,0.26-5.82,3.18-5.56,6.51
		C582.73,591.39,585.64,593.87,588.98,593.61z"/>
	<path class="st1" d="M732.17,460.6c1.6-0.13,2.8-1.53,2.67-3.13c-0.13-1.6-1.53-2.8-3.13-2.67c-1.6,0.13-2.8,1.53-2.67,3.13
		C729.17,459.53,730.57,460.73,732.17,460.6z"/>
	<path class="st1" d="M523.08,487.22c6.42-0.51,11.21-6.12,10.7-12.54c-0.51-6.42-6.12-11.21-12.54-10.7s-11.21,6.12-10.7,12.54
		C511.06,482.94,516.67,487.73,523.08,487.22z"/>
	<path class="st1" d="M520.5,541.71c1.29-0.1,2.26-1.23,2.16-2.53s-1.23-2.26-2.53-2.16c-1.29,0.1-2.26,1.23-2.16,2.53
		C518.07,540.85,519.2,541.81,520.5,541.71z"/>
	<path class="st1" d="M477.04,482.27c1.46-0.12,2.55-1.39,2.44-2.86s-1.39-2.55-2.86-2.44c-1.46,0.12-2.55,1.39-2.44,2.86
		C474.3,481.3,475.58,482.39,477.04,482.27z"/>
	<path class="st1" d="M522.51,479.98c2.42-0.19,4.23-2.31,4.03-4.73c-0.19-2.42-2.31-4.23-4.73-4.03c-2.42,0.19-4.23,2.31-4.03,4.73
		C517.98,478.37,520.09,480.18,522.51,479.98z"/>
	<path class="st1" d="M588.77,591.03c1.91-0.15,3.33-1.82,3.18-3.72c-0.15-1.91-1.82-3.33-3.72-3.18s-3.33,1.82-3.18,3.72
		C585.2,589.76,586.87,591.18,588.77,591.03z"/>
	<path class="st1" d="M520.65,543.64c2.36-0.19,4.12-2.25,3.93-4.61c-0.19-2.36-2.25-4.12-4.61-3.93c-2.36,0.19-4.12,2.25-3.93,4.61
		C516.23,542.07,518.29,543.83,520.65,543.64z"/>
	<path class="st1" d="M588.78,591.12c1.96-0.15,3.42-1.87,3.26-3.82c-0.15-1.96-1.87-3.42-3.82-3.26c-1.96,0.15-3.42,1.87-3.26,3.82
		C585.11,589.82,586.82,591.28,588.78,591.12z"/>
	<path class="st1" d="M520.39,540.4c0.57-0.04,0.99-0.54,0.95-1.11c-0.04-0.57-0.54-0.99-1.11-0.95c-0.57,0.04-0.99,0.54-0.95,1.11
		C519.33,540.02,519.82,540.45,520.39,540.4z"/>
	<path class="st1" d="M520.6,542.99c2-0.16,3.49-1.91,3.33-3.91c-0.16-2-1.91-3.49-3.91-3.33c-2,0.16-3.49,1.91-3.33,3.91
		C516.85,541.66,518.6,543.15,520.6,542.99z"/>
	<path class="st1" d="M588.76,590.9c1.83-0.14,3.2-1.75,3.06-3.58s-1.75-3.2-3.58-3.06s-3.2,1.75-3.06,3.58
		C585.33,589.67,586.93,591.04,588.76,590.9z"/>
	<path class="st1" d="M251.37,87.4c1.67-0.13,2.92-1.6,2.79-3.27c-0.13-1.67-1.6-2.92-3.27-2.79c-1.67,0.13-2.92,1.6-2.79,3.27
		C248.23,86.28,249.7,87.53,251.37,87.4z"/>
	<path class="st1" d="M215.64,283.45c3.93-0.31,6.86-3.74,6.55-7.67c-0.31-3.93-3.74-6.86-7.67-6.55c-3.93,0.31-6.86,3.74-6.55,7.67
		C208.28,280.83,211.71,283.76,215.64,283.45z"/>
	<path class="st1" d="M115.37,261.45c6.39-0.51,11.16-6.1,10.66-12.49c-0.51-6.39-6.1-11.16-12.49-10.66
		c-6.39,0.51-11.16,6.1-10.66,12.49C103.38,257.18,108.97,261.95,115.37,261.45z"/>
	<path class="st1" d="M135.44,153.96c3.04-0.24,5.31-2.9,5.07-5.94c-0.24-3.04-2.9-5.31-5.94-5.07c-3.04,0.24-5.31,2.9-5.07,5.94
		C129.74,151.93,132.4,154.2,135.44,153.96z"/>
	<path class="st1" d="M215.19,277.8c0.81-0.06,1.41-0.77,1.35-1.58c-0.06-0.81-0.77-1.41-1.58-1.35c-0.81,0.06-1.41,0.77-1.35,1.58
		C213.68,277.27,214.39,277.87,215.19,277.8z"/>
	<path class="st1" d="M180.21,371.15c1.97-0.16,3.44-1.88,3.28-3.84c-0.16-1.97-1.88-3.44-3.84-3.28c-1.97,0.16-3.44,1.88-3.28,3.84
		C176.52,369.83,178.24,371.3,180.21,371.15z"/>
	<path class="st1" d="M114.68,252.82c1.63-0.13,2.85-1.55,2.72-3.18c-0.13-1.63-1.55-2.85-3.18-2.72c-1.63,0.13-2.85,1.55-2.72,3.18
		C111.63,251.74,113.06,252.95,114.68,252.82z"/>
	<path class="st1" d="M328.23,299.27c2.19-0.17,3.83-2.09,3.65-4.28c-0.17-2.19-2.09-3.83-4.28-3.65c-2.19,0.17-3.83,2.09-3.65,4.28
		C324.12,297.81,326.04,299.45,328.23,299.27z"/>
	<path class="st1" d="M319.66,278.03c2.6-0.21,4.53-2.48,4.33-5.07c-0.21-2.6-2.48-4.53-5.07-4.33c-2.6,0.21-4.53,2.48-4.33,5.07
		C314.79,276.3,317.06,278.23,319.66,278.03z"/>
	<path class="st1" d="M345.22,235.78c1.8-0.14,3.15-1.72,3.01-3.52c-0.14-1.8-1.72-3.15-3.52-3.01c-1.8,0.14-3.15,1.72-3.01,3.52
		C341.84,234.58,343.41,235.92,345.22,235.78z"/>
	<path class="st1" d="M328.28,299.89c2.53-0.2,4.42-2.41,4.22-4.95c-0.2-2.53-2.41-4.42-4.95-4.22c-2.53,0.2-4.42,2.41-4.22,4.95
		C323.54,298.2,325.75,300.09,328.28,299.89z"/>
	<path class="st1" d="M378.35,318.38c4.33-0.34,7.57-4.13,7.22-8.46c-0.34-4.33-4.13-7.57-8.46-7.22c-4.33,0.34-7.57,4.13-7.22,8.46
		C370.23,315.49,374.02,318.73,378.35,318.38z"/>
	<path class="st1" d="M345.41,238.26c3.17-0.25,5.54-3.02,5.29-6.19c-0.25-3.17-3.02-5.54-6.19-5.29c-3.17,0.25-5.54,3.02-5.29,6.19
		C339.47,236.14,342.24,238.51,345.41,238.26z"/>
	<path class="st1" d="M328.07,297.26c1.08-0.08,1.88-1.03,1.79-2.1c-0.09-1.08-1.03-1.88-2.1-1.79c-1.08,0.09-1.88,1.03-1.79,2.1
		C326.06,296.54,327,297.34,328.07,297.26z"/>
	<path class="st1" d="M319.83,280.22c3.8-0.3,6.65-3.63,6.34-7.43c-0.3-3.8-3.63-6.65-7.43-6.34c-3.8,0.3-6.64,3.63-6.34,7.43
		C312.7,277.68,316.02,280.52,319.83,280.22z"/>
	<path class="st1" d="M215.22,278.11c0.98-0.08,1.71-0.93,1.63-1.91c-0.08-0.98-0.93-1.71-1.91-1.63c-0.98,0.08-1.71,0.93-1.63,1.91
		C213.39,277.46,214.24,278.19,215.22,278.11z"/>
	<path class="st1" d="M328.19,298.67c1.86-0.15,3.24-1.77,3.1-3.63c-0.15-1.86-1.77-3.24-3.63-3.1c-1.86,0.15-3.24,1.77-3.09,3.63
		C324.71,297.43,326.33,298.81,328.19,298.67z"/>
	
		<ellipse transform="matrix(0.3639 -0.9314 0.9314 0.3639 -210.9992 599.7179)" class="st1" cx="333.6" cy="454.35" rx="5.73" ry="5.73"/>
	<path class="st1" d="M378.28,317.42c3.8-0.3,6.64-3.62,6.34-7.42c-0.3-3.8-3.62-6.64-7.42-6.33c-3.8,0.3-6.64,3.62-6.34,7.42
		C371.16,314.88,374.48,317.72,378.28,317.42z"/>
	<path class="st1" d="M502.18,285.18c0.81-0.06,1.41-0.77,1.35-1.58c-0.06-0.81-0.77-1.41-1.58-1.35c-0.81,0.06-1.41,0.77-1.35,1.58
		C500.66,284.64,501.37,285.24,502.18,285.18z"/>
	<path class="st1" d="M442.05,380.45c2.42-0.19,4.22-2.31,4.03-4.73c-0.19-2.42-2.31-4.22-4.73-4.03c-2.42,0.19-4.22,2.31-4.03,4.73
		C437.52,378.84,439.64,380.65,442.05,380.45z"/>
	<path class="st1" d="M377.95,313.22c1.48-0.12,2.58-1.41,2.46-2.89c-0.12-1.48-1.41-2.58-2.89-2.46c-1.48,0.12-2.58,1.41-2.46,2.89
		C375.18,312.23,376.47,313.33,377.95,313.22z"/>
	<path class="st1" d="M542.64,360.72c2.41-0.19,4.21-2.3,4.02-4.71c-0.19-2.41-2.3-4.21-4.71-4.02c-2.41,0.19-4.21,2.3-4.02,4.72
		C538.12,359.11,540.23,360.91,542.64,360.72z"/>
	<path class="st1" d="M442.08,380.82c2.62-0.21,4.57-2.5,4.37-5.12s-2.5-4.57-5.12-4.37c-2.62,0.21-4.57,2.5-4.37,5.12
		C437.17,379.07,439.46,381.02,442.08,380.82z"/>
	<path class="st1" d="M502.35,287.33c2-0.16,3.49-1.9,3.33-3.9s-1.9-3.49-3.9-3.33c-2,0.16-3.49,1.9-3.33,3.9
		C498.61,285.99,500.35,287.48,502.35,287.33z"/>
	<path class="st1" d="M542.83,363.12c3.74-0.3,6.53-3.56,6.23-7.3c-0.3-3.74-3.56-6.53-7.3-6.23c-3.74,0.3-6.53,3.56-6.23,7.3
		C535.82,360.63,539.09,363.42,542.83,363.12z"/>
	<path class="st1" d="M732.55,465.48c4.3-0.34,7.5-4.1,7.16-8.39c-0.34-4.3-4.1-7.5-8.39-7.16c-4.3,0.34-7.5,4.1-7.16,8.39
		C724.5,462.62,728.26,465.82,732.55,465.48z"/>
	<path class="st1" d="M689.49,315.54c4.32-0.34,7.54-4.12,7.2-8.43s-4.12-7.54-8.43-7.2c-4.32,0.34-7.54,4.12-7.2,8.43
		C681.4,312.65,685.18,315.88,689.49,315.54z"/>
	<path class="st1" d="M542.62,360.47c2.27-0.18,3.97-2.17,3.79-4.44c-0.18-2.27-2.17-3.97-4.44-3.79c-2.27,0.18-3.97,2.17-3.79,4.44
		C538.36,358.95,540.35,360.65,542.62,360.47z"/>
	<path class="st1" d="M472.53,433.55c1.07-0.08,1.87-1.02,1.79-2.1c-0.08-1.07-1.02-1.87-2.09-1.79c-1.07,0.08-1.87,1.02-1.79,2.1
		C470.52,432.83,471.46,433.63,472.53,433.55z"/>
	<path class="st1" d="M441.82,377.48c0.77-0.06,1.35-0.74,1.29-1.51c-0.06-0.77-0.74-1.35-1.51-1.29c-0.77,0.06-1.35,0.74-1.29,1.51
		C440.37,376.96,441.05,377.54,441.82,377.48z"/>
	<path class="st1" d="M542.51,359.06c1.49-0.12,2.61-1.42,2.49-2.92c-0.12-1.49-1.42-2.61-2.92-2.49c-1.49,0.12-2.61,1.42-2.49,2.92
		C539.71,358.06,541.01,359.18,542.51,359.06z"/>
	<path class="st1" d="M522.34,477.82c1.23-0.1,2.14-1.17,2.04-2.4c-0.1-1.23-1.17-2.14-2.4-2.04s-2.14,1.17-2.04,2.4
		C520.04,477,521.12,477.92,522.34,477.82z"/>
	<path class="st1" d="M473.04,440.06c4.67-0.37,8.15-4.45,7.79-9.12c-0.37-4.67-4.45-8.15-9.12-7.78c-4.67,0.37-8.15,4.45-7.78,9.12
		C464.29,436.94,468.38,440.43,473.04,440.06z"/>
	<path class="st1" d="M542.96,364.77c4.65-0.37,8.12-4.43,7.75-9.08c-0.37-4.65-4.43-8.12-9.08-7.75c-4.65,0.37-8.12,4.43-7.75,9.08
		C534.25,361.67,538.31,365.14,542.96,364.77z"/>
	<path class="st1" d="M522.85,484.23c4.76-0.38,8.32-4.54,7.94-9.31s-4.54-8.32-9.31-7.94c-4.76,0.38-8.32,4.54-7.94,9.31
		C513.92,481.05,518.08,484.6,522.85,484.23z"/>
	<path class="st1" d="M732.06,459.21c0.83-0.07,1.45-0.79,1.39-1.63c-0.07-0.83-0.79-1.45-1.63-1.39c-0.83,0.07-1.45,0.79-1.39,1.63
		C730.5,458.66,731.23,459.28,732.06,459.21z"/>
	<path class="st1" d="M255.38,424.59c1.32-0.1,2.3-1.26,2.2-2.58c-0.1-1.32-1.26-2.3-2.58-2.2c-1.32,0.1-2.3,1.26-2.2,2.58
		C252.9,423.71,254.06,424.69,255.38,424.59z"/>
	<path class="st1" d="M328.04,296.82c0.84-0.07,1.46-0.8,1.4-1.64c-0.07-0.84-0.8-1.46-1.64-1.4c-0.84,0.07-1.46,0.8-1.4,1.64
		C326.47,296.26,327.2,296.89,328.04,296.82z"/>
	<path class="st1" d="M215.4,280.38c2.23-0.18,3.89-2.12,3.71-4.35c-0.18-2.23-2.13-3.89-4.35-3.71c-2.23,0.18-3.89,2.12-3.71,4.35
		C211.22,278.89,213.17,280.55,215.4,280.38z"/>
	<path class="st1" d="M255.62,427.69c3.03-0.24,5.29-2.89,5.05-5.92c-0.24-3.03-2.89-5.29-5.92-5.05c-3.03,0.24-5.29,2.89-5.05,5.92
		C249.94,425.67,252.59,427.93,255.62,427.69z"/>
	<path class="st1" d="M180.22,371.32c2.07-0.16,3.61-1.97,3.44-4.04c-0.16-2.07-1.97-3.61-4.03-3.44c-2.07,0.16-3.61,1.97-3.44,4.03
		S178.15,371.49,180.22,371.32z"/>
	<path class="st1" d="M215.25,278.57c1.23-0.1,2.14-1.17,2.05-2.4c-0.1-1.23-1.17-2.14-2.4-2.05c-1.23,0.1-2.14,1.17-2.05,2.4
		C212.95,277.75,214.03,278.66,215.25,278.57z"/>
	<path class="st1" d="M255.49,425.98c2.09-0.16,3.65-1.99,3.48-4.08c-0.17-2.09-1.99-3.65-4.08-3.48c-2.09,0.16-3.65,1.99-3.48,4.08
		C251.57,424.59,253.4,426.15,255.49,425.98z"/>
	<path class="st1" d="M333.7,455.65c0.72-0.06,1.25-0.69,1.2-1.4c-0.06-0.72-0.69-1.25-1.4-1.2c-0.72,0.06-1.25,0.69-1.2,1.4
		C332.36,455.17,332.99,455.71,333.7,455.65z"/>
	<path class="st1" d="M328.16,298.37c1.69-0.13,2.96-1.61,2.82-3.31c-0.13-1.69-1.61-2.96-3.31-2.82c-1.69,0.13-2.96,1.61-2.82,3.31
		C324.99,297.24,326.47,298.51,328.16,298.37z"/>
	<path class="st1" d="M255.56,426.89c2.59-0.2,4.52-2.47,4.32-5.06c-0.2-2.59-2.47-4.52-5.06-4.32c-2.59,0.2-4.52,2.47-4.32,5.06
		C250.7,425.16,252.97,427.09,255.56,426.89z"/>
	<path class="st1" d="M169.21,414.81c2.74-0.22,4.78-2.61,4.56-5.34c-0.22-2.74-2.61-4.78-5.34-4.56c-2.74,0.22-4.78,2.61-4.56,5.34
		C164.08,412.99,166.47,415.03,169.21,414.81z"/>
	<path class="st1" d="M180.2,371.11c1.95-0.15,3.4-1.86,3.25-3.8c-0.15-1.95-1.86-3.4-3.8-3.25c-1.95,0.15-3.4,1.86-3.25,3.8
		C176.55,369.81,178.26,371.26,180.2,371.11z"/>
	<path class="st1" d="M255.74,429.13c3.82-0.3,6.68-3.65,6.38-7.47c-0.3-3.82-3.65-6.68-7.47-6.38c-3.82,0.3-6.68,3.65-6.38,7.47
		C248.57,426.57,251.91,429.43,255.74,429.13z"/>
	<path class="st1" d="M186.35,515.32c4.35-0.34,7.6-4.15,7.25-8.5c-0.34-4.35-4.15-7.6-8.5-7.25c-4.35,0.34-7.6,4.15-7.25,8.5
		C178.2,512.41,182,515.66,186.35,515.32z"/>
	<path class="st1" d="M169.11,413.54c2.03-0.16,3.55-1.94,3.39-3.97c-0.16-2.03-1.94-3.55-3.97-3.39c-2.03,0.16-3.55,1.94-3.39,3.97
		C165.3,412.18,167.07,413.7,169.11,413.54z"/>
	<path class="st1" d="M255.5,426.18c2.19-0.17,3.83-2.09,3.66-4.29c-0.17-2.19-2.09-3.83-4.29-3.66s-3.83,2.09-3.66,4.29
		C251.39,424.71,253.31,426.35,255.5,426.18z"/>
	<path class="st1" d="M304.18,501.81c0.86-0.07,1.49-0.82,1.43-1.67s-0.82-1.49-1.67-1.43c-0.86,0.07-1.49,0.82-1.43,1.67
		C302.58,501.24,303.33,501.88,304.18,501.81z"/>
	<path class="st1" d="M334.24,462.47c4.49-0.35,7.83-4.28,7.48-8.76c-0.35-4.49-4.28-7.83-8.76-7.48c-4.49,0.35-7.83,4.28-7.48,8.76
		C325.83,459.48,329.76,462.82,334.24,462.47z"/>
	<path class="st1" d="M255.68,428.4c3.42-0.27,5.98-3.27,5.71-6.69c-0.27-3.42-3.27-5.98-6.69-5.71c-3.42,0.27-5.98,3.27-5.71,6.69
		C249.26,426.12,252.25,428.67,255.68,428.4z"/>
	<path class="st1" d="M298.74,536.78c2.59-0.21,4.53-2.48,4.33-5.07c-0.21-2.59-2.48-4.53-5.07-4.33c-2.59,0.21-4.53,2.48-4.33,5.07
		C293.87,535.05,296.14,536.99,298.74,536.78z"/>
	<path class="st1" d="M185.8,508.38c0.52-0.04,0.91-0.5,0.87-1.02c-0.04-0.52-0.5-0.91-1.02-0.87c-0.52,0.04-0.91,0.5-0.87,1.02
		C184.83,508.04,185.28,508.42,185.8,508.38z"/>
	<path class="st1" d="M255.46,425.62c1.89-0.15,3.3-1.8,3.15-3.69c-0.15-1.89-1.8-3.3-3.69-3.15c-1.89,0.15-3.3,1.8-3.15,3.69
		C251.92,424.36,253.57,425.77,255.46,425.62z"/>
	<path class="st1" d="M298.65,535.64c1.96-0.16,3.42-1.87,3.27-3.83c-0.15-1.96-1.87-3.42-3.83-3.27c-1.96,0.15-3.42,1.87-3.27,3.83
		C294.97,534.33,296.68,535.79,298.65,535.64z"/>
	<path class="st1" d="M304.56,506.58c3.49-0.28,6.09-3.33,5.82-6.82c-0.28-3.49-3.33-6.09-6.82-5.82c-3.49,0.28-6.09,3.33-5.82,6.82
		C298.02,504.25,301.07,506.85,304.56,506.58z"/>
	<path class="st1" d="M235.22,32.67c2.75-0.22,4.8-2.62,4.58-5.37c-0.22-2.75-2.62-4.8-5.37-4.58c-2.75,0.22-4.8,2.62-4.58,5.37
		C230.07,30.84,232.47,32.89,235.22,32.67z"/>
	<path class="st1" d="M234.99,29.8c1.16-0.09,2.03-1.11,1.94-2.27c-0.09-1.16-1.11-2.03-2.27-1.94c-1.16,0.09-2.03,1.11-1.94,2.27
		C232.81,29.03,233.83,29.9,234.99,29.8z"/>
	<path class="st1" d="M235.26,33.14c3-0.24,5.24-2.86,5.01-5.87c-0.24-3-2.86-5.24-5.87-5.01c-3,0.24-5.24,2.86-5.01,5.87
		C229.63,31.13,232.25,33.37,235.26,33.14z"/>
	<path class="st1" d="M202.4,53.81c2.16-0.17,3.77-2.06,3.6-4.22c-0.17-2.16-2.06-3.77-4.22-3.6c-2.16,0.17-3.77,2.06-3.6,4.22
		C198.36,52.37,200.25,53.98,202.4,53.81z"/>
	<path class="st1" d="M235.28,33.38c3.14-0.25,5.48-2.99,5.23-6.13c-0.25-3.14-2.99-5.48-6.13-5.23c-3.14,0.25-5.48,2.99-5.23,6.13
		C229.39,31.29,232.14,33.63,235.28,33.38z"/>
	<path class="st1" d="M251.55,89.68c2.93-0.23,5.12-2.8,4.89-5.73c-0.23-2.93-2.8-5.12-5.73-4.89c-2.93,0.23-5.13,2.8-4.89,5.73
		C246.05,87.72,248.62,89.91,251.55,89.68z"/>
	<path class="st1" d="M235.04,30.35c1.46-0.12,2.55-1.4,2.44-2.86c-0.12-1.46-1.4-2.55-2.86-2.44s-2.55,1.4-2.44,2.86
		C232.29,29.37,233.57,30.47,235.04,30.35z"/>
	<path class="st1" d="M251.53,89.35c2.75-0.22,4.81-2.63,4.59-5.38c-0.22-2.75-2.63-4.81-5.38-4.59c-2.75,0.22-4.81,2.63-4.59,5.38
		S248.77,89.57,251.53,89.35z"/>
	<path class="st1" d="M202.24,51.77c1.03-0.08,1.81-0.99,1.73-2.02c-0.08-1.04-0.99-1.81-2.02-1.73c-1.03,0.08-1.81,0.99-1.73,2.02
		C200.3,51.08,201.21,51.86,202.24,51.77z"/>
	<path class="st1" d="M447.86,200.51c3.88-0.31,6.78-3.7,6.47-7.58c-0.31-3.88-3.7-6.78-7.58-6.47c-3.88,0.31-6.78,3.7-6.47,7.59
		C440.58,197.92,443.98,200.82,447.86,200.51z"/>
	<ellipse transform="matrix(0.6492 -0.7607 0.7607 0.6492 9.759 408.1236)" class="st1" cx="447.3" cy="193.48" rx="7.5" ry="7.5"/>
	<path class="st1" d="M447.72,198.82c2.95-0.23,5.15-2.81,4.92-5.76c-0.23-2.95-2.81-5.15-5.76-4.92c-2.95,0.23-5.15,2.81-4.92,5.76
		C442.2,196.85,444.78,199.05,447.72,198.82z"/>
	<path class="st1" d="M447.58,196.93c1.91-0.15,3.33-1.82,3.18-3.72c-0.15-1.91-1.82-3.33-3.72-3.18c-1.91,0.15-3.33,1.82-3.18,3.72
		C444,195.66,445.67,197.09,447.58,196.93z"/>
	<path class="st1" d="M361.32,231.68c2.17-0.17,3.78-2.06,3.61-4.23c-0.17-2.17-2.07-3.78-4.23-3.61c-2.16,0.17-3.78,2.07-3.61,4.23
		C357.26,230.24,359.15,231.85,361.32,231.68z"/>
	<path class="st1" d="M447.55,196.62c1.73-0.14,3.03-1.65,2.89-3.39c-0.14-1.73-1.65-3.03-3.39-2.89c-1.73,0.14-3.03,1.65-2.89,3.39
		C444.3,195.46,445.82,196.76,447.55,196.62z"/>
	
		<ellipse transform="matrix(0.8377 -0.5462 0.5462 0.8377 -28.1761 316.6305)" class="st1" cx="518.56" cy="205.71" rx="5.24" ry="5.24"/>
	<path class="st1" d="M447.63,197.57c2.26-0.18,3.94-2.15,3.76-4.41c-0.18-2.26-2.15-3.94-4.41-3.76c-2.26,0.18-3.94,2.15-3.76,4.41
		C443.4,196.06,445.37,197.75,447.63,197.57z"/>
	<path class="st1" d="M502.19,285.27c0.86-0.07,1.51-0.82,1.44-1.68c-0.07-0.86-0.82-1.51-1.68-1.44c-0.86,0.07-1.51,0.82-1.44,1.68
		C500.57,284.7,501.32,285.34,502.19,285.27z"/>
	
		<ellipse transform="matrix(0.1371 -0.9906 0.9906 0.1371 243.6734 691.1602)" class="st1" cx="518.56" cy="205.71" rx="1.97" ry="1.97"/>
	<path class="st1" d="M447.51,196.16c1.48-0.12,2.58-1.41,2.47-2.89c-0.12-1.48-1.41-2.58-2.89-2.47s-2.58,1.41-2.47,2.89
		C444.74,195.17,446.04,196.28,447.51,196.16z"/>
	<path class="st1" d="M377.88,312.41c1.03-0.08,1.81-0.99,1.72-2.02c-0.08-1.03-0.99-1.81-2.02-1.72c-1.03,0.08-1.81,0.99-1.72,2.02
		C375.94,311.72,376.85,312.49,377.88,312.41z"/>
	<path class="st1" d="M361.42,232.95c2.87-0.23,5.01-2.73,4.78-5.6c-0.23-2.87-2.73-5.01-5.6-4.78c-2.87,0.23-5.01,2.73-4.78,5.6
		C356.04,231.04,358.55,233.18,361.42,232.95z"/>
	<path class="st1" d="M447.67,198.08c2.54-0.2,4.44-2.42,4.24-4.96c-0.2-2.54-2.42-4.44-4.96-4.24c-2.54,0.2-4.44,2.42-4.24,4.96
		C442.9,196.39,445.13,198.28,447.67,198.08z"/>
	<path class="st1" d="M377.87,312.3c0.97-0.08,1.7-0.93,1.62-1.9c-0.08-0.97-0.93-1.7-1.9-1.62c-0.97,0.08-1.7,0.93-1.62,1.9
		C376.05,311.65,376.9,312.38,377.87,312.3z"/>
	<path class="st1" d="M502.41,288.12c2.44-0.19,4.25-2.32,4.06-4.76s-2.32-4.25-4.76-4.06c-2.44,0.19-4.25,2.32-4.06,4.76
		C497.84,286.5,499.98,288.32,502.41,288.12z"/>
	<path class="st1" d="M294.82,184.08c4.72-0.37,8.25-4.51,7.88-9.23c-0.37-4.72-4.51-8.25-9.23-7.88c-4.72,0.37-8.25,4.51-7.88,9.23
		C285.96,180.93,290.09,184.46,294.82,184.08z"/>
	<path class="st1" d="M251.2,85.28c0.5-0.04,0.88-0.48,0.84-0.98c-0.04-0.5-0.48-0.88-0.98-0.84c-0.5,0.04-0.88,0.48-0.84,0.98
		C250.26,84.94,250.7,85.32,251.2,85.28z"/>
	<path class="st1" d="M294.38,178.54c1.66-0.13,2.91-1.59,2.77-3.25s-1.59-2.91-3.25-2.77c-1.66,0.13-2.91,1.59-2.77,3.25
		S292.72,178.67,294.38,178.54z"/>
	<path class="st1" d="M361.29,231.38c2-0.16,3.49-1.91,3.33-3.9c-0.16-2-1.91-3.49-3.9-3.33c-2,0.16-3.49,1.91-3.33,3.9
		C357.55,230.04,359.29,231.54,361.29,231.38z"/>
	<path class="st1" d="M294.4,178.8c1.81-0.14,3.16-1.72,3.01-3.53c-0.14-1.81-1.72-3.16-3.53-3.01s-3.16,1.72-3.01,3.53
		S292.59,178.94,294.4,178.8z"/>
	<path class="st1" d="M345.29,236.71c2.32-0.18,4.05-2.21,3.86-4.53s-2.21-4.05-4.53-3.86s-4.05,2.21-3.86,4.53
		S342.97,236.89,345.29,236.71z"/>
	<path class="st1" d="M361.44,233.31c3.06-0.24,5.35-2.92,5.11-5.98c-0.24-3.06-2.92-5.35-5.98-5.11c-3.06,0.24-5.35,2.92-5.11,5.98
		C355.7,231.26,358.38,233.55,361.44,233.31z"/>
	<path class="st1" d="M294.27,177.19c0.92-0.07,1.61-0.88,1.53-1.8c-0.07-0.92-0.88-1.61-1.8-1.53c-0.92,0.07-1.61,0.88-1.53,1.8
		C292.55,176.58,293.35,177.27,294.27,177.19z"/>
	<path class="st1" d="M319.58,277.02c2.04-0.16,3.56-1.94,3.4-3.98c-0.16-2.04-1.94-3.56-3.98-3.4c-2.04,0.16-3.56,1.94-3.4,3.98
		C315.76,275.66,317.54,277.18,319.58,277.02z"/>
	<path class="st1" d="M345.17,235.14c1.45-0.11,2.53-1.38,2.42-2.83c-0.11-1.45-1.38-2.53-2.83-2.42c-1.45,0.11-2.53,1.38-2.42,2.83
		C342.45,234.18,343.72,235.26,345.17,235.14z"/>
	<path class="st1" d="M294.65,181.99c3.57-0.28,6.24-3.41,5.95-6.98c-0.28-3.57-3.41-6.24-6.98-5.95c-3.57,0.28-6.24,3.41-5.95,6.98
		C287.96,179.61,291.08,182.27,294.65,181.99z"/>
	<path class="st1" d="M319.38,274.6c0.7-0.06,1.23-0.67,1.17-1.37c-0.06-0.7-0.67-1.23-1.37-1.17c-0.7,0.06-1.23,0.67-1.17,1.37
		S318.68,274.66,319.38,274.6z"/>
	<path class="st1" d="M215.57,282.55c3.43-0.27,5.99-3.27,5.72-6.7c-0.27-3.43-3.27-5.99-6.7-5.72c-3.43,0.27-5.99,3.27-5.72,6.7
		C209.14,280.26,212.14,282.82,215.57,282.55z"/>
	<path class="st1" d="M439.5,597.35c1.53-0.12,2.66-1.46,2.54-2.98c-0.12-1.53-1.46-2.66-2.98-2.54c-1.53,0.12-2.66,1.45-2.54,2.98
		C436.64,596.33,437.98,597.47,439.5,597.35z"/>
	<path class="st1" d="M477.17,483.97c2.4-0.19,4.19-2.29,4-4.69c-0.19-2.4-2.29-4.19-4.69-4c-2.4,0.19-4.19,2.29-4,4.69
		C472.67,482.37,474.77,484.16,477.17,483.97z"/>
	<path class="st1" d="M333.76,456.34c1.1-0.09,1.92-1.05,1.83-2.15c-0.09-1.1-1.05-1.92-2.15-1.83c-1.1,0.09-1.92,1.05-1.83,2.15
		C331.7,455.6,332.66,456.42,333.76,456.34z"/>
	<path class="st1" d="M439.47,596.88c1.27-0.1,2.22-1.21,2.12-2.48c-0.1-1.27-1.21-2.22-2.48-2.12c-1.27,0.1-2.22,1.21-2.12,2.48
		C437.08,596.04,438.2,596.99,439.47,596.88z"/>
	<path class="st1" d="M333.94,458.67c2.39-0.19,4.17-2.28,3.98-4.67c-0.19-2.39-2.28-4.17-4.66-3.98c-2.39,0.19-4.17,2.28-3.98,4.66
		S331.55,458.86,333.94,458.67z"/>
	<path class="st1" d="M439.54,597.8c1.77-0.14,3.1-1.69,2.96-3.47s-1.69-3.1-3.47-2.96s-3.1,1.69-2.96,3.47
		C436.21,596.61,437.76,597.94,439.54,597.8z"/>
	<path class="st1" d="M477.04,482.3c1.48-0.12,2.58-1.41,2.46-2.89c-0.12-1.48-1.41-2.58-2.89-2.46c-1.48,0.12-2.58,1.41-2.46,2.89
		C474.27,481.31,475.56,482.42,477.04,482.3z"/>
	<path class="st1" d="M439.87,601.95c4.07-0.32,7.11-3.88,6.78-7.95c-0.32-4.07-3.88-7.1-7.95-6.78c-4.07,0.32-7.11,3.88-6.78,7.95
		C432.24,599.24,435.8,602.27,439.87,601.95z"/>
	<path class="st1" d="M439.68,599.59c2.76-0.22,4.83-2.64,4.61-5.4c-0.22-2.76-2.64-4.83-5.4-4.61c-2.76,0.22-4.83,2.64-4.61,5.4
		C434.5,597.75,436.91,599.81,439.68,599.59z"/>
	<path class="st1" d="M439.65,599.17c2.53-0.2,4.42-2.41,4.22-4.94c-0.2-2.53-2.41-4.42-4.94-4.22c-2.53,0.2-4.42,2.41-4.22,4.94
		C434.9,597.48,437.12,599.37,439.65,599.17z"/>
	<path class="st1" d="M258.07,163.86c2.07-0.16,3.62-1.98,3.46-4.05c-0.16-2.07-1.98-3.62-4.05-3.46c-2.07,0.16-3.62,1.98-3.46,4.05
		C254.19,162.47,256,164.02,258.07,163.86z"/>
	<path class="st1" d="M251.35,87.18c1.55-0.12,2.71-1.48,2.59-3.03c-0.12-1.55-1.48-2.71-3.03-2.59c-1.55,0.12-2.71,1.48-2.59,3.03
		C248.44,86.14,249.8,87.3,251.35,87.18z"/>
	<path class="st1" d="M202.4,53.71c2.1-0.17,3.68-2.01,3.51-4.11c-0.17-2.1-2.01-3.68-4.11-3.51c-2.1,0.17-3.68,2.01-3.51,4.11
		C198.45,52.31,200.29,53.88,202.4,53.71z"/>
	<path class="st1" d="M258.17,165.05c2.73-0.22,4.77-2.61,4.56-5.34c-0.22-2.73-2.61-4.77-5.34-4.56c-2.73,0.22-4.77,2.61-4.56,5.34
		C253.04,163.23,255.44,165.27,258.17,165.05z"/>
	<path class="st1" d="M135.19,150.84c1.31-0.1,2.29-1.25,2.19-2.57c-0.1-1.31-1.25-2.29-2.57-2.19c-1.31,0.1-2.29,1.25-2.19,2.57
		C132.73,149.96,133.88,150.94,135.19,150.84z"/>
	<path class="st1" d="M202.23,51.6c0.94-0.07,1.64-0.9,1.57-1.84c-0.07-0.94-0.9-1.64-1.84-1.57c-0.94,0.07-1.64,0.9-1.57,1.84
		C200.47,50.98,201.29,51.68,202.23,51.6z"/>
	<path class="st1" d="M258.02,163.15c1.68-0.13,2.94-1.6,2.8-3.28s-1.6-2.94-3.28-2.8c-1.68,0.13-2.94,1.6-2.8,3.28
		S256.34,163.28,258.02,163.15z"/>
	<path class="st1" d="M294.43,179.16c2.01-0.16,3.5-1.91,3.35-3.92c-0.16-2.01-1.91-3.5-3.92-3.35c-2.01,0.16-3.5,1.91-3.35,3.92
		C290.67,177.82,292.42,179.32,294.43,179.16z"/>
	<path class="st1" d="M251.24,85.72c0.75-0.06,1.31-0.71,1.25-1.46c-0.06-0.75-0.71-1.31-1.46-1.25c-0.75,0.06-1.31,0.71-1.25,1.46
		C249.84,85.22,250.49,85.78,251.24,85.72z"/>
	<path class="st1" d="M258.11,164.34c2.34-0.18,4.08-2.23,3.9-4.57c-0.18-2.34-2.23-4.08-4.57-3.9c-2.34,0.18-4.08,2.23-3.9,4.57
		C253.73,162.78,255.77,164.52,258.11,164.34z"/>
	<path class="st1" d="M215.41,280.54c2.32-0.18,4.05-2.21,3.87-4.53c-0.18-2.32-2.21-4.05-4.53-3.87c-2.32,0.18-4.05,2.21-3.87,4.53
		C211.06,278.99,213.09,280.72,215.41,280.54z"/>
	<path class="st1" d="M135.63,156.35c4.36-0.34,7.62-4.16,7.27-8.52c-0.34-4.36-4.16-7.62-8.52-7.27c-4.36,0.34-7.62,4.16-7.27,8.52
		C127.45,153.44,131.27,156.7,135.63,156.35z"/>
	<path class="st1" d="M258.16,164.87c2.64-0.21,4.6-2.51,4.39-5.15c-0.21-2.64-2.51-4.6-5.15-4.39c-2.64,0.21-4.6,2.51-4.39,5.15
		C253.21,163.12,255.52,165.08,258.16,164.87z"/>
	<path class="st1" d="M215.44,280.96c2.55-0.2,4.45-2.43,4.25-4.98c-0.2-2.55-2.43-4.45-4.98-4.25c-2.55,0.2-4.45,2.43-4.25,4.98
		C210.66,279.26,212.89,281.16,215.44,280.96z"/>
	<path class="st1" d="M294.28,177.22c0.93-0.07,1.63-0.89,1.55-1.82c-0.07-0.93-0.89-1.63-1.82-1.55c-0.93,0.07-1.63,0.89-1.55,1.82
		S293.34,177.29,294.28,177.22z"/>
	<path class="st1" d="M298.67,536.01c2.16-0.17,3.78-2.06,3.61-4.23c-0.17-2.16-2.06-3.78-4.23-3.61c-2.16,0.17-3.78,2.06-3.61,4.23
		C294.62,534.56,296.51,536.18,298.67,536.01z"/>
	<path class="st1" d="M576.2,282.59c2.84-0.22,4.96-2.71,4.74-5.55s-2.71-4.96-5.55-4.74c-2.84,0.22-4.96,2.71-4.74,5.55
		C570.88,280.69,573.36,282.81,576.2,282.59z"/>
	<path class="st1" d="M575.89,278.7c0.69-0.05,1.21-0.66,1.15-1.35c-0.05-0.69-0.66-1.21-1.35-1.15c-0.69,0.05-1.21,0.66-1.15,1.35
		C574.6,278.24,575.2,278.75,575.89,278.7z"/>
	<path class="st1" d="M518.62,206.58c0.48-0.04,0.83-0.45,0.79-0.93c-0.04-0.48-0.45-0.83-0.93-0.79c-0.48,0.04-0.83,0.45-0.79,0.93
		C517.73,206.26,518.15,206.61,518.62,206.58z"/>
	<path class="st1" d="M575.96,279.53c1.15-0.09,2.01-1.1,1.92-2.25c-0.09-1.15-1.1-2.01-2.25-1.92c-1.15,0.09-2.01,1.1-1.92,2.25
		C573.8,278.76,574.81,279.62,575.96,279.53z"/>
	<path class="st1" d="M696.65,281.43c3.36-0.27,5.88-3.21,5.61-6.57c-0.27-3.36-3.21-5.88-6.57-5.61c-3.36,0.27-5.88,3.21-5.61,6.57
		C690.34,279.18,693.28,281.69,696.65,281.43z"/>
	<path class="st1" d="M576.48,286.1c4.78-0.38,8.34-4.56,7.97-9.33s-4.56-8.34-9.33-7.97s-8.34,4.56-7.97,9.33
		S571.7,286.47,576.48,286.1z"/>
	<path class="st1" d="M502.21,285.55c1.01-0.08,1.77-0.97,1.69-1.98c-0.08-1.01-0.97-1.77-1.98-1.69c-1.01,0.08-1.77,0.97-1.69,1.98
		C500.31,284.87,501.19,285.63,502.21,285.55z"/>
	<path class="st1" d="M518.78,208.49c1.53-0.12,2.68-1.46,2.56-3c-0.12-1.54-1.46-2.68-3-2.56c-1.53,0.12-2.68,1.46-2.56,3
		C515.9,207.47,517.24,208.61,518.78,208.49z"/>
	<path class="st1" d="M576.1,281.36c2.16-0.17,3.77-2.06,3.6-4.22c-0.17-2.16-2.06-3.77-4.22-3.6c-2.16,0.17-3.77,2.06-3.6,4.22
		C572.05,279.92,573.94,281.53,576.1,281.36z"/>
	<path class="st1" d="M542.44,358.22c1.03-0.08,1.8-0.98,1.72-2.02c-0.08-1.03-0.98-1.8-2.02-1.72s-1.8,0.98-1.72,2.02
		C540.51,357.53,541.41,358.3,542.44,358.22z"/>
	<path class="st1" d="M502.17,285.06c0.74-0.06,1.3-0.71,1.24-1.45s-0.71-1.3-1.45-1.24c-0.74,0.06-1.3,0.71-1.24,1.45
		C500.78,284.56,501.43,285.12,502.17,285.06z"/>
	<path class="st1" d="M576.13,281.63c2.31-0.18,4.04-2.21,3.86-4.52c-0.18-2.31-2.21-4.04-4.52-3.86c-2.31,0.18-4.04,2.21-3.86,4.52
		C571.79,280.09,573.81,281.82,576.13,281.63z"/>
	<path class="st1" d="M689.03,309.66c1.07-0.08,1.87-1.02,1.79-2.1c-0.08-1.07-1.02-1.87-2.1-1.79c-1.07,0.08-1.87,1.02-1.79,2.1
		C687.02,308.95,687.96,309.75,689.03,309.66z"/>
	<path class="st1" d="M696.51,279.62c2.37-0.19,4.13-2.26,3.94-4.62c-0.19-2.37-2.26-4.13-4.62-3.94c-2.37,0.19-4.13,2.26-3.94,4.62
		C692.07,278.04,694.14,279.8,696.51,279.62z"/>
	<path class="st1" d="M575.98,279.77c1.28-0.1,2.24-1.22,2.14-2.5s-1.22-2.24-2.5-2.14c-1.28,0.1-2.24,1.22-2.14,2.5
		S574.7,279.87,575.98,279.77z"/>
	<path class="st1" d="M542.41,357.83c0.82-0.06,1.43-0.78,1.36-1.6c-0.06-0.82-0.78-1.43-1.6-1.36c-0.82,0.06-1.43,0.78-1.36,1.6
		C540.88,357.29,541.59,357.9,542.41,357.83z"/>
	<path class="st1" d="M689.39,314.23c3.6-0.28,6.28-3.43,6-7.03c-0.28-3.6-3.43-6.28-7.03-6c-3.6,0.28-6.28,3.43-6,7.03
		C682.65,311.83,685.79,314.52,689.39,314.23z"/>
	<path class="st1" d="M245.26,583.22c1.12-0.09,1.96-1.07,1.87-2.19c-0.09-1.12-1.07-1.96-2.19-1.87c-1.12,0.09-1.96,1.07-1.87,2.19
		C243.16,582.47,244.14,583.3,245.26,583.22z"/>
	<path class="st1" d="M299.17,542.32c5.65-0.45,9.87-5.39,9.42-11.04c-0.45-5.65-5.39-9.87-11.04-9.42
		c-5.65,0.45-9.87,5.39-9.42,11.04C288.58,538.55,293.52,542.76,299.17,542.32z"/>
	
		<ellipse transform="matrix(0.1351 -0.9908 0.9908 0.1351 -342.1508 622.9088)" class="st1" cx="185.73" cy="507.44" rx="3.2" ry="3.2"/>
	<path class="st1" d="M245.32,584.02c1.57-0.12,2.74-1.5,2.62-3.07c-0.12-1.57-1.5-2.74-3.06-2.62c-1.57,0.12-2.74,1.5-2.62,3.07
		C242.38,582.98,243.75,584.15,245.32,584.02z"/>
	<path class="st1" d="M173.16,593.48c2.91-0.23,5.08-2.77,4.85-5.68c-0.23-2.91-2.77-5.08-5.68-4.85c-2.91,0.23-5.08,2.77-4.85,5.68
		C167.7,591.54,170.25,593.71,173.16,593.48z"/>
	<path class="st1" d="M186.31,514.8c4.06-0.32,7.1-3.88,6.78-7.94c-0.32-4.06-3.88-7.1-7.94-6.78c-4.06,0.32-7.1,3.88-6.78,7.94
		C178.69,512.09,182.25,515.12,186.31,514.8z"/>
	<path class="st1" d="M245.22,582.76c0.87-0.07,1.52-0.83,1.46-1.71c-0.07-0.87-0.83-1.52-1.7-1.46c-0.87,0.07-1.52,0.83-1.46,1.71
		C243.59,582.18,244.35,582.83,245.22,582.76z"/>
	<path class="st1" d="M298.62,535.29c1.77-0.14,3.09-1.69,2.95-3.46c-0.14-1.77-1.69-3.09-3.46-2.95s-3.09,1.69-2.95,3.46
		C295.3,534.11,296.85,535.43,298.62,535.29z"/>
	<path class="st1" d="M245.16,581.91c0.4-0.03,0.7-0.38,0.67-0.78c-0.03-0.4-0.38-0.7-0.78-0.67c-0.4,0.03-0.7,0.38-0.67,0.78
		C244.4,581.64,244.76,581.94,245.16,581.91z"/>
	<path class="st1" d="M173.13,593.16c2.73-0.22,4.77-2.61,4.56-5.34c-0.22-2.73-2.61-4.77-5.34-4.56c-2.73,0.22-4.77,2.61-4.56,5.34
		C168.01,591.34,170.4,593.38,173.13,593.16z"/>
	<path class="st1" d="M245.22,582.73c0.85-0.07,1.49-0.81,1.42-1.66c-0.07-0.85-0.81-1.49-1.66-1.42c-0.85,0.07-1.49,0.81-1.42,1.66
		C243.62,582.16,244.37,582.79,245.22,582.73z"/>
	<path class="st1" d="M245.6,587.57c3.53-0.28,6.16-3.36,5.88-6.89c-0.28-3.53-3.36-6.16-6.89-5.88c-3.53,0.28-6.16,3.36-5.88,6.89
		C238.99,585.21,242.08,587.85,245.6,587.57z"/>
	<path class="st1" d="M50.87,139.5c1-0.08,1.74-0.95,1.66-1.95c-0.08-1-0.95-1.74-1.95-1.66c-1,0.08-1.74,0.95-1.66,1.95
		C49,138.83,49.88,139.58,50.87,139.5z"/>
	<path class="st1" d="M60.61,42.48c0.55-0.04,0.95-0.52,0.91-1.07c-0.04-0.55-0.52-0.95-1.07-0.91c-0.55,0.04-0.95,0.52-0.91,1.07
		C59.58,42.11,60.06,42.52,60.61,42.48z"/>
	<path class="st1" d="M50.93,140.26c1.42-0.11,2.48-1.35,2.36-2.77c-0.11-1.42-1.35-2.48-2.77-2.36c-1.42,0.11-2.47,1.35-2.36,2.77
		C48.28,139.31,49.51,140.37,50.93,140.26z"/>
	<path class="st1" d="M51,141.08c1.87-0.15,3.27-1.79,3.12-3.66c-0.15-1.87-1.79-3.27-3.66-3.12c-1.87,0.15-3.27,1.79-3.12,3.66
		C47.49,139.83,49.12,141.23,51,141.08z"/>
	<path class="st1" d="M95.26,94.47c3.56-0.28,6.22-3.4,5.94-6.96c-0.28-3.56-3.4-6.22-6.96-5.94c-3.56,0.28-6.22,3.4-5.94,6.96
		C88.58,92.09,91.7,94.75,95.26,94.47z"/>
	<path class="st1" d="M60.76,44.37c1.59-0.13,2.78-1.52,2.66-3.11c-0.13-1.59-1.52-2.78-3.11-2.66s-2.78,1.52-2.66,3.11
		C57.77,43.31,59.16,44.5,60.76,44.37z"/>
	<path class="st1" d="M51.03,141.54c2.12-0.17,3.71-2.02,3.54-4.15c-0.17-2.12-2.02-3.71-4.15-3.54c-2.12,0.17-3.71,2.02-3.54,4.15
		C47.05,140.12,48.91,141.7,51.03,141.54z"/>
	<path class="st1" d="M86.8,128.68c2.6-0.21,4.53-2.48,4.33-5.07c-0.21-2.6-2.48-4.53-5.07-4.33c-2.6,0.21-4.53,2.48-4.33,5.07
		C81.94,126.94,84.21,128.88,86.8,128.68z"/>
	<path class="st1" d="M95.08,92.11c2.26-0.18,3.94-2.15,3.77-4.41c-0.18-2.26-2.15-3.94-4.41-3.77c-2.26,0.18-3.94,2.15-3.77,4.41
		C90.84,90.6,92.82,92.29,95.08,92.11z"/>
	<path class="st1" d="M51.21,143.81c3.38-0.27,5.9-3.22,5.64-6.6c-0.27-3.38-3.22-5.9-6.6-5.64c-3.38,0.27-5.9,3.22-5.64,6.6
		C44.88,141.56,47.83,144.08,51.21,143.81z"/>
	<path class="st1" d="M79.9,253.21c1.53-0.12,2.67-1.46,2.55-2.98c-0.12-1.53-1.46-2.67-2.98-2.55c-1.53,0.12-2.67,1.46-2.55,2.98
		C77.04,252.19,78.37,253.33,79.9,253.21z"/>
	<path class="st1" d="M51.14,142.93c2.89-0.23,5.06-2.76,4.83-5.66c-0.23-2.89-2.76-5.06-5.66-4.83c-2.89,0.23-5.06,2.76-4.83,5.66
		S48.25,143.16,51.14,142.93z"/>
	<path class="st1" d="M80.19,256.82c3.52-0.28,6.15-3.36,5.87-6.88c-0.28-3.52-3.36-6.15-6.88-5.87c-3.52,0.28-6.15,3.36-5.87,6.88
		C73.59,254.47,76.67,257.1,80.19,256.82z"/>
	<path class="st1" d="M86.54,125.39c0.78-0.06,1.37-0.75,1.31-1.53c-0.06-0.78-0.75-1.37-1.53-1.31c-0.78,0.06-1.37,0.75-1.31,1.53
		C85.07,124.87,85.76,125.46,86.54,125.39z"/>
</g>
</svg>
