<?xml version="1.0" encoding="utf-8"?>
<!-- Generator: Adobe Illustrator 25.4.0, SVG Export Plug-In . SVG Version: 6.00 Build 0)  -->
<svg version="1.1" id="Layer_1" xmlns="http://www.w3.org/2000/svg" xmlns:xlink="http://www.w3.org/1999/xlink" x="0px" y="0px"
	 viewBox="0 0 129.75 58.9" style="enable-background:new 0 0 129.75 58.9;" xml:space="preserve">
<style type="text/css">
	.st0{fill:#6D6E70;}
	.st1{clip-path:url(#SVGID_00000085209312341318103770000002502440876911113898_);fill:#EE3A39;}
	.st2{clip-path:url(#SVGID_00000085209312341318103770000002502440876911113898_);fill:#EE3C39;}
</style>
<g>
	<g>
		<g>
			<g>
				<path class="st0" d="M46.85,28.89c-2.08,5.81-10.01,4.58-9.58-3.99h10.05c-0.37-4.6-3.55-8.2-7.42-8.2
					c-4.12,0-7.46,4.08-7.46,9.11s3.34,9.11,7.46,9.11c3.23,0,5.99-2.51,7.02-6.03 M43.41,23.73h-6.16
					C37.25,15.88,43.41,15.88,43.41,23.73z"/>
			</g>
		</g>
		<g>
			<rect x="52.49" y="9.41" class="st0" width="4.61" height="25.5"/>
		</g>
		<g>
			<rect x="89.09" y="9.41" class="st0" width="4.61" height="25.5"/>
		</g>
		<g>
			<rect x="105.21" y="16.7" class="st0" width="4.61" height="18.21"/>
		</g>
		<g>
			<path class="st0" d="M129.08,34.78l-0.02,0.71c-0.09,2.98-2.2,5.58-5.07,6.1c-0.07,0.01-0.13,0.02-0.2,0.03
				c-0.11,0.02-0.23,0.03-0.35,0.04c-0.2,0.02-0.4,0.03-0.6,0.03c0,0,0,0,0,0h-2.19H9.11H6.92c-0.2,0-0.4-0.01-0.6-0.03
				c-0.12-0.01-0.23-0.03-0.35-0.04c-0.07-0.01-0.13-0.02-0.2-0.03c-2.87-0.53-4.99-3.12-5.07-6.1l-0.02-0.71H0v3.17v5.46h9.11
				h111.53h9.11v-5.46v-3.17H129.08z"/>
		</g>
		<g>
			<path class="st0" d="M120.64,0H9.11H0v5.46v3.17h0.68L0.7,7.92c0.09-3.2,2.53-5.96,5.72-6.19c0.16-0.01,0.33-0.02,0.5-0.02h2.19
				h5.07v29.94c0,0.79-0.36,1.4-0.92,1.86c-0.66,0.55-1.51,0.8-2.36,0.8H8.09v0.6l6.09,0h11.21l6.09,0v-0.6h-2.81
				c-0.85,0-1.71-0.25-2.36-0.8c-0.56-0.47-0.92-1.08-0.92-1.86V1.71h95.25h2.19c0,0,0,0,0,0c0.2,0,0.4,0.01,0.6,0.03
				c0.12,0.01,0.23,0.03,0.35,0.04c0.07,0.01,0.13,0.02,0.2,0.03c2.87,0.53,4.99,3.12,5.07,6.1l0.02,0.71h0.68V5.46V0H120.64z"/>
		</g>
		<g>
			<path class="st0" d="M52.49,32.14c0,0.01,0,0.02,0,0.03c-0.01,1.2-1.05,2.14-2.25,2.14h-0.57v0.6l2.82,0L52.49,32.14z"/>
		</g>
		<g>
			<path class="st0" d="M67.57,32.14c0,0.01,0,0.02,0,0.03c-0.01,1.2-1.05,2.14-2.25,2.14h-0.57v0.6l2.82,0L67.57,32.14z"/>
		</g>
		<g>
			<path class="st0" d="M52.49,12.19c0-0.01,0-0.02,0-0.03c-0.01-1.2-1.05-2.14-2.25-2.14h-0.57v-0.6l2.82,0L52.49,12.19z"/>
		</g>
		<g>
			<path class="st0" d="M67.57,12.19c0-0.01,0-0.02,0-0.03c-0.01-1.2-1.05-2.14-2.25-2.14h-0.57v-0.6l2.82,0L67.57,12.19z"/>
		</g>
		<g>
			<path class="st0" d="M105.21,19.48c0-0.01,0-0.02,0-0.03c-0.01-1.2-1.05-2.14-2.25-2.14h-0.57v-0.6l2.82,0L105.21,19.48z"/>
		</g>
		<g>
			<path class="st0" d="M57.09,32.14c0,0.01,0,0.02,0,0.03c0.01,1.2,1.05,2.14,2.25,2.14h0.57v0.6l-2.82,0L57.09,32.14z"/>
		</g>
		<g>
			<path class="st0" d="M69.06,32.14c0,0.01,0,0.02,0,0.03c0.01,1.2,1.05,2.14,2.25,2.14h0.57v0.6l-2.82,0L69.06,32.14z"/>
		</g>
		<g>
			<path class="st0" d="M105.21,32.14c0,0.01,0,0.02,0,0.03c-0.01,1.2-1.05,2.14-2.25,2.14h-0.57v0.6l2.82,0L105.21,32.14z"/>
		</g>
		<g>
			<path class="st0" d="M109.81,32.14c0,0.01,0,0.02,0,0.03c0.01,1.2,1.05,2.14,2.25,2.14h0.57v0.6l-2.82,0L109.81,32.14z"/>
		</g>
		<g>
			<path class="st0" d="M89.09,32.14c0,0.01,0,0.02,0,0.03c-0.01,1.2-1.05,2.14-2.25,2.14h-0.57v0.6l2.82,0L89.09,32.14z"/>
		</g>
		<g>
			<path class="st0" d="M93.69,32.14c0,0.01,0,0.02,0,0.03c0.01,1.2,1.05,2.14,2.25,2.14h0.57v0.6l-2.82,0L93.69,32.14z"/>
		</g>
		<g>
			<path class="st0" d="M93.69,12.19c0-0.01,0-0.02,0-0.03c0.01-1.2,1.05-2.14,2.25-2.14h0.57v-0.6l-2.82,0L93.69,12.19z"/>
		</g>
		<g>
			<polygon class="st0" points="90.08,9.41 87.68,9.41 81.36,25.27 73.8,9.41 67.57,9.41 67.57,34.92 69.11,34.92 69.11,12.46 
				79.7,33.9 			"/>
		</g>
		<g>
			<g>
				<defs>
					<circle id="SVGID_1_" cx="106.96" cy="10.42" r="4.57"/>
				</defs>
				<clipPath id="SVGID_00000031195331134245053580000004924366498690288062_">
					<use xlink:href="#SVGID_1_"  style="overflow:visible;"/>
				</clipPath>
				
					<rect x="102.4" y="5.85" style="clip-path:url(#SVGID_00000031195331134245053580000004924366498690288062_);fill:#EE3A39;" width="4.57" height="9.14"/>
				
					<rect x="106.96" y="5.85" style="clip-path:url(#SVGID_00000031195331134245053580000004924366498690288062_);fill:#EE3C39;" width="4.57" height="9.14"/>
			</g>
		</g>
		<g>
			<path class="st0" d="M126.39,25.71c0.09,0.06,0.17,0.12,0.25,0.18C126.56,25.83,126.48,25.77,126.39,25.71z"/>
		</g>
		<g>
			<path class="st0" d="M119.87,27.14c-0.42-0.3-0.84-0.59-1.21-0.85C119.01,26.58,119.41,26.87,119.87,27.14z"/>
		</g>
		<g>
			<path class="st0" d="M127.74,27.14c-0.36-0.44-0.8-0.86-1.33-1.25c-0.08-0.06-0.17-0.12-0.25-0.18c-0.72-0.51-1.5-1.06-2.11-1.49
				c-0.56-0.4-1.08-0.84-1.52-1.36c-4.45-5.23,4.92-7.6,5.81,1.12c0.09,0.15,0.32,0.08,0.32-0.09v-6.33l-0.34,0.75
				c-0.16,0.35-0.6,0.5-0.93,0.28c-7.46-5.32-13.94,1.8-9.9,6.75c0.27,0.33,0.58,0.64,0.94,0.95c0.37,0.26,0.79,0.56,1.21,0.85
				c0.56,0.4,1.12,0.79,1.58,1.12c0.56,0.4,1.08,0.84,1.52,1.36c4.45,5.23-4.92,7.6-5.81-1.12c-0.09-0.15-0.32-0.08-0.32,0.09v6.33
				l0.34-0.75c0.16-0.35,0.6-0.5,0.93-0.28C125.34,39.2,131.81,32.08,127.74,27.14z"/>
		</g>
	</g>
	<g>
		<path class="st0" d="M15.41,53.46h-1.18c-0.24,0-0.47-0.08-0.7-0.25c-0.25-0.18-0.43-0.42-0.54-0.72
			c-0.23,0.75-0.76,1.13-1.6,1.14c-0.74,0.01-1.28-0.3-1.62-0.95c-0.25,0.62-0.76,0.94-1.53,0.95c-0.61,0.01-1.08-0.2-1.42-0.63
			c-0.06,0.8-0.37,1.5-0.93,2.09c-0.62,0.67-1.37,1-2.25,1c-0.87,0-1.62-0.33-2.25-1c-0.63-0.66-0.94-1.46-0.94-2.41l-0.05-2.46
			h1.29v1.32c0,0.46,0.01,0.84,0.01,1.16c0,0.57,0.19,1.05,0.56,1.45c0.38,0.41,0.83,0.62,1.38,0.62c0.53,0,0.99-0.21,1.36-0.62
			c0.39-0.41,0.58-0.9,0.58-1.48l-0.02-2.37c0-0.02,0-0.04,0-0.05l-0.01-0.85h1.26v1.62c0.01,0.45,0.12,0.79,0.34,1.02
			c0.2,0.22,0.47,0.33,0.79,0.33c0.49,0,0.74-0.27,0.74-0.82l-0.01-2.15h1.26l0.02,1.63c0.01,0.46,0.13,0.79,0.35,1.01
			c0.2,0.22,0.46,0.33,0.78,0.33c0.49,0,0.73-0.27,0.73-0.81l-0.01-2.52h1.26l0.02,2.03c0.01,0.37,0.14,0.67,0.38,0.9
			c0.2,0.2,0.42,0.3,0.65,0.3h1.26V53.46z"/>
		<path class="st0" d="M20.78,53.46H19.7c-0.36,0-0.67-0.15-0.92-0.46c-0.15-0.19-0.25-0.36-0.3-0.52
			c-0.22,0.63-0.72,0.96-1.49,0.98h-1.91v-1.17h1.42c0.23,0,0.44-0.06,0.62-0.19c0.25-0.16,0.38-0.37,0.38-0.65l-0.02-2.39h1.26
			c0,0.45,0.01,1.07,0.04,1.88c0,0.43,0.12,0.76,0.37,1.01c0.2,0.22,0.43,0.33,0.66,0.33h0.96V53.46z M17.56,55.29h-1.17v-1.22h1.17
			V55.29z M19.29,55.29h-1.16v-1.22h1.16V55.29z"/>
		<path class="st0" d="M27.1,53.46h-1.24c-0.34,0.73-1,1.09-1.95,1.09c-0.91,0-1.57-0.36-1.98-1.09h-1.39v-1.17h1.07
			c0-1.51,0.73-2.26,2.21-2.26c0.71,0,1.27,0.24,1.7,0.71c0.4,0.44,0.6,0.96,0.6,1.55h0.99V53.46z M24.85,52.29
			c0-0.37-0.1-0.67-0.31-0.9c-0.18-0.2-0.4-0.3-0.66-0.3s-0.48,0.1-0.65,0.3c-0.18,0.22-0.28,0.52-0.28,0.9
			c0,0.38,0.1,0.68,0.31,0.92c0.18,0.2,0.4,0.3,0.66,0.3C24.54,53.51,24.85,53.1,24.85,52.29z"/>
		<path class="st0" d="M31.98,53.46h-1.01c-0.6,0-1-0.33-1.22-0.98c-0.25,0.65-0.76,0.98-1.51,0.98h-1.36v-1.17h0.88
			c0.26,0,0.49-0.08,0.68-0.23c0.21-0.16,0.31-0.37,0.31-0.61l-0.05-5.8h1.26l0.06,5.3c0.01,0.38,0.12,0.7,0.34,0.97
			c0.2,0.25,0.44,0.38,0.7,0.38h0.9V53.46z"/>
		<path class="st0" d="M35.25,51.9c0,1.04-0.54,1.56-1.61,1.56h-1.89v-1.17h1.42c0.54,0,0.82-0.28,0.82-0.83v-0.65
			c0-0.22-0.01-0.4-0.01-0.54l-0.01-0.67c0-0.24-0.01-0.42-0.01-0.54h1.28L35.25,51.9z M33.41,48.09h-1.16v-1.22h1.16V48.09z
			 M35.16,48.09H34v-1.22h1.16V48.09z"/>
		<path class="st0" d="M45,52.69c0,0.93-0.31,1.73-0.94,2.39c-0.62,0.67-1.37,1-2.25,1c-0.87,0-1.62-0.33-2.25-1
			c-0.63-0.66-0.94-1.46-0.94-2.41l-0.05-2.46h1.29v1.32c0,0.46,0.01,0.84,0.01,1.16c0,0.57,0.19,1.05,0.56,1.45
			c0.38,0.41,0.83,0.62,1.38,0.62c0.53,0,0.99-0.21,1.36-0.62c0.39-0.41,0.58-0.9,0.58-1.48l-0.06-2.47h1.29L45,52.69z M42.33,49.08
			h-1.17v-1.22h1.17V49.08z"/>
		<path class="st0" d="M47.88,53.46h-1.26l-0.06-7.79h1.26L47.88,53.46z"/>
		<path class="st0" d="M47.68,55.07c0.74-0.01,1.36-0.25,1.85-0.71c0.53-0.49,0.8-1.12,0.8-1.89l-0.03-3.41h1.29l0.02,3.28
			c0,1.04-0.29,1.9-0.87,2.58c-0.57,0.69-1.33,1.08-2.28,1.15C48.26,55.79,48,55.46,47.68,55.07z M50.3,48.09v-1.22h1.17v1.22H50.3z
			"/>
		<path class="st0" d="M54.5,53.46h-1.26l-0.06-7.79h1.26L54.5,53.46z"/>
		<path class="st0" d="M55.94,53.46l0.6-1.17h3.35c-0.07-0.67-0.31-1.2-0.7-1.59c-0.33-0.33-0.65-0.49-0.98-0.49v-1.15
			c0.96,0,1.7,0.36,2.22,1.08c0.54,0.76,0.82,1.87,0.82,3.32H55.94z"/>
		<path class="st0" d="M61.05,55.07c0.76-0.01,1.39-0.26,1.89-0.75c0.5-0.49,0.75-1.1,0.75-1.85v-3.41h1.28v2.01
			c0.03,0.33,0.15,0.62,0.35,0.86c0.21,0.24,0.44,0.36,0.69,0.36h1.33v1.17h-1.25c-0.47,0-0.84-0.25-1.12-0.75
			c-0.06,0.94-0.38,1.71-0.95,2.33c-0.57,0.61-1.3,0.96-2.18,1.03C61.63,55.79,61.36,55.46,61.05,55.07z"/>
		<path class="st0" d="M70.62,51.9c0,1.04-0.54,1.56-1.61,1.56h-1.89v-1.17h1.42c0.54,0,0.82-0.28,0.82-0.83v-0.65
			c0-0.22-0.01-0.4-0.01-0.54l-0.01-0.67c0-0.24-0.01-0.42-0.01-0.54h1.28L70.62,51.9z M68.47,55.52h-1.16V54.3h1.16V55.52z
			 M69.34,57.11h-1.17v-1.22h1.17V57.11z M70.21,55.52h-1.15V54.3h1.15V55.52z"/>
		<path class="st0" d="M78.43,51.2c0,1.51-0.73,2.26-2.21,2.26c-0.71,0-1.27-0.24-1.7-0.71c-0.4-0.44-0.6-0.96-0.6-1.55
			c0-1.51,0.73-2.26,2.21-2.26c0.71,0,1.28,0.24,1.71,0.72C78.24,50.08,78.43,50.6,78.43,51.2z M77.17,51.21
			c0-0.38-0.1-0.68-0.31-0.92c-0.19-0.2-0.41-0.3-0.66-0.3c-0.26,0-0.48,0.1-0.66,0.3c-0.18,0.22-0.26,0.53-0.26,0.92
			c0,0.38,0.11,0.68,0.32,0.92c0.18,0.2,0.4,0.3,0.66,0.3C76.86,52.43,77.17,52.02,77.17,51.21z"/>
		<path class="st0" d="M79.88,53.46l0.6-1.17h3.35c-0.07-0.67-0.31-1.2-0.7-1.59c-0.33-0.33-0.65-0.49-0.98-0.49v-1.15
			c0.96,0,1.7,0.36,2.22,1.08c0.54,0.76,0.82,1.87,0.82,3.32H79.88z"/>
		<path class="st0" d="M88.07,53.46h-1.26l-0.06-7.79h1.26L88.07,53.46z"/>
		<path class="st0" d="M89.52,53.46l0.6-1.17h3.35c-0.07-0.67-0.31-1.2-0.7-1.59c-0.33-0.33-0.65-0.49-0.98-0.49v-1.15
			c0.96,0,1.7,0.36,2.22,1.08c0.54,0.76,0.82,1.87,0.82,3.32H89.52z"/>
		<path class="st0" d="M108.43,53.46h-1.01c-0.49,0-0.87-0.27-1.15-0.81c-0.14,0.54-0.51,0.81-1.09,0.81h-3.73
			c-1.19,0-2.07-0.49-2.63-1.48c-0.44-0.78-0.65-1.75-0.63-2.92h1.26c0,0.86,0.14,1.57,0.41,2.12c0.35,0.74,0.9,1.11,1.65,1.11h3.06
			c0.31,0,0.46-0.22,0.46-0.67L105,49.06h1.28c0.01,0.15,0.01,0.41,0.01,0.77l0.01,1.11c0.02,0.43,0.14,0.76,0.38,1.01
			c0.2,0.22,0.42,0.33,0.66,0.33h1.09V53.46z M102.02,49.06h-1.16v-1.21h1.16V49.06z M103.76,49.06h-1.15v-1.21h1.15V49.06z"/>
		<path class="st0" d="M108.17,53.46v-1.18h4.9c-0.1-0.65-0.36-1.16-0.79-1.53c-0.4-0.34-0.88-0.51-1.46-0.51
			c-0.6,0-1.2,0.19-1.8,0.57l-0.46-0.98l3.23-3.27l0.89,0.88l-1.65,1.62c1.2,0,2.08,0.45,2.64,1.35c0.48,0.76,0.72,1.77,0.72,3.05
			H108.17z"/>
		<path class="st0" d="M114.19,55.07c0.76-0.01,1.39-0.26,1.89-0.75c0.5-0.49,0.75-1.1,0.75-1.85v-3.41h1.28v2.01
			c0.03,0.33,0.15,0.62,0.35,0.86c0.21,0.24,0.44,0.36,0.69,0.36h1.33v1.17h-1.25c-0.47,0-0.84-0.25-1.12-0.75
			c-0.06,0.94-0.38,1.71-0.95,2.33c-0.57,0.61-1.3,0.96-2.18,1.03C114.77,55.79,114.51,55.46,114.19,55.07z"/>
		<path class="st0" d="M129.34,51.66c-0.01,1.29-0.59,1.95-1.72,1.97c-0.74,0.01-1.28-0.3-1.6-0.95c-0.27,0.62-0.78,0.94-1.54,0.95
			c-0.6,0.01-1.07-0.2-1.41-0.62v0.46h-2.81l0.02-1.17h1.54c-0.01-1.62-0.02-2.57-0.04-2.88h1.28v1.79
			c0.04,0.38,0.16,0.66,0.35,0.85c0.2,0.22,0.46,0.33,0.78,0.33c0.49,0,0.73-0.27,0.73-0.82l-0.01-2.15h1.26
			c0,0.13,0.01,0.35,0.01,0.66l0.01,0.98c0.01,0.46,0.13,0.79,0.35,1.01c0.2,0.22,0.46,0.33,0.78,0.33c0.49,0,0.73-0.27,0.73-0.81
			l-0.01-2.52h1.28L129.34,51.66z M125.23,48.09h-1.17v-1.22h1.17V48.09z M126.1,46.5h-1.15v-1.21h1.15V46.5z M126.98,48.09h-1.17
			v-1.22h1.17V48.09z"/>
	</g>
</g>
</svg>
