<svg xmlns="http://www.w3.org/2000/svg" viewBox="0 0 131.12 112.6"><defs><style>.cls-1{fill:#0a1c54;stroke:#bd9d62;stroke-miterlimit:10;stroke-width:3px;}.cls-2{fill:#bd9d62;}</style></defs><g id="Layer_2" data-name="Layer 2"><g id="Layer_1-2" data-name="Layer 1"><path class="cls-1" d="M1.5,0V63.93A47.17,47.17,0,0,0,48.67,111.1H82.45a47.17,47.17,0,0,0,47.17-47.17V0"/><path class="cls-2" d="M65.44,17.15A35.24,35.24,0,0,0,31,44.84h1.32a34,34,0,0,1,66.2,0h1.32A35.23,35.23,0,0,0,65.44,17.15Z"/><path class="cls-2" d="M99.94,44.9H98.48v0a33.86,33.86,0,0,0-33-26.35A33.79,33.79,0,0,0,44.17,26,34,34,0,0,0,32.42,44.85v0H31l0-.08a35.3,35.3,0,0,1,69,0Zm-1.35-.13h1.19A35.19,35.19,0,0,0,53.45,19.3a34.72,34.72,0,0,0-10.21,5.8A35.34,35.34,0,0,0,31.1,44.77h1.19A34.15,34.15,0,0,1,44.08,25.92a34,34,0,0,1,42.74,0A34.18,34.18,0,0,1,98.59,44.77Z"/><path class="cls-2" d="M65.44,20.06A32.33,32.33,0,0,0,34,44.84h1.25a31,31,0,0,1,60.08,0h1.53A32.31,32.31,0,0,0,65.44,20.06Z"/><path class="cls-2" d="M97,44.9H95.3v0A31.15,31.15,0,0,0,84.44,28.19a31,31,0,0,0-38.26,0A31.09,31.09,0,0,0,35.33,44.85v0H33.93l0-.08A32.54,32.54,0,0,1,45.24,27.06a32.39,32.39,0,0,1,40.4,0A32.51,32.51,0,0,1,96.93,44.82Zm-1.56-.13h1.39a32.35,32.35,0,0,0-11.23-17.6,32.24,32.24,0,0,0-40.24,0,32.43,32.43,0,0,0-11.23,17.6h1.12A31.21,31.21,0,0,1,46.1,28.09a31.07,31.07,0,0,1,38.42,0A31.25,31.25,0,0,1,95.4,44.77Z"/><path class="cls-2" d="M65.44,28.08A22.77,22.77,0,0,0,42.68,50.25h1.88a20.89,20.89,0,0,1,41.77.59A21.11,21.11,0,0,1,65.18,71.71V73.6a22.76,22.76,0,1,0,.26-45.52Z"/><path class="cls-2" d="M32.44,73.16,65.69,33.24a2.18,2.18,0,0,1,.91-.65,2.5,2.5,0,0,1,2.37.2,1.48,1.48,0,0,1,.61,1.3c-.22,3.6-1.31,21.47-1.53,25a1.71,1.71,0,0,1-.61,1.23,1.91,1.91,0,0,1-2.7,0,1.74,1.74,0,0,1-.59-1.4L65,40.49,35.94,76.12a2.09,2.09,0,0,1-1.39.76A2.19,2.19,0,0,1,32,75,2.11,2.11,0,0,1,32.44,73.16Z"/><path class="cls-2" d="M34.2,77a2.28,2.28,0,0,1-1.13-.27A2.49,2.49,0,0,1,31.94,75a2.16,2.16,0,0,1,.45-1.89L65.64,33.21a2.23,2.23,0,0,1,.94-.67,2.53,2.53,0,0,1,2.43.21,1.55,1.55,0,0,1,.64,1.36l-1.53,25a1.79,1.79,0,0,1-.64,1.28,2,2,0,0,1-2.79,0,1.82,1.82,0,0,1-.61-1.46L65,40.7,36,76.17a2.16,2.16,0,0,1-1.44.79ZM67.67,32.45a3,3,0,0,0-1,.2,2.13,2.13,0,0,0-.88.63L32.5,73.2A2.05,2.05,0,0,0,32.08,75a2.11,2.11,0,0,0,2.46,1.83,2,2,0,0,0,1.35-.74L65.11,40.29l-.88,18.63a1.71,1.71,0,0,0,.57,1.35,1.85,1.85,0,0,0,2.62,0A1.67,1.67,0,0,0,68,59.12l1.53-25A1.42,1.42,0,0,0,69,32.85,2.23,2.23,0,0,0,67.67,32.45Z"/><path class="cls-2" d="M59,49.37c.69-.13,15.32,3.36,19.8-7.32a1.66,1.66,0,0,1,1-.93,1.62,1.62,0,0,1,2.18.76A1.64,1.64,0,0,1,82,43.3c-1,2.69-6,12.56-22.46,9.92a2.29,2.29,0,0,1-1.81-1.46A1.85,1.85,0,0,1,59,49.37Z"/><path class="cls-2" d="M100.74,51.47H90.83v-5.4h9.91Zm-9.64-.26h9.38V46.34H91.1Z"/><path class="cls-2" d="M40.3,51.17H30.39v-5.4H40.3Zm-9.65-.26H40V46H30.65Z"/><path class="cls-2" d="M43.87,38.28l-.43.82-1-.12-.79,1.49.69.76-.42.8-3-3.44.42-.8Zm-2.21.61L40,38.67l1.12,1.24Z"/><path class="cls-2" d="M44.15,37.92l-3.36-2.58,1.09-1.43a3.09,3.09,0,0,1,.69-.71.94.94,0,0,1,.62-.14,1.23,1.23,0,0,1,.64.26,1.13,1.13,0,0,1,.45.7,1.37,1.37,0,0,1-.2.9,2.13,2.13,0,0,1,.56-.15,4.32,4.32,0,0,1,.84,0l1,.09-.62.81-1.11-.07a5.59,5.59,0,0,0-.77,0,.56.56,0,0,0-.3.1,1.48,1.48,0,0,0-.3.31l-.11.14,1.4,1.08Zm-1.42-2.16.39-.5a3.93,3.93,0,0,0,.43-.64.44.44,0,0,0,0-.3.54.54,0,0,0-.2-.26.48.48,0,0,0-.34-.12.58.58,0,0,0-.33.15s-.18.21-.39.49l-.41.53Z"/><path class="cls-2" d="M46.85,34.61l-3-2.95.6-.61,3,2.95Z"/><path class="cls-2" d="M48,33.36l-2.67-3.29.66-.54L47.2,31l.16-2.55.89-.72L48.05,30,51,31l-.86.7L48,30.84l-.09,1,.81,1Z"/><path class="cls-2" d="M51.39,30.75l-2.11-3.67L52,25.52l.36.62-2,1.14.47.81L52.69,27l.36.62-1.84,1.06.57,1,2-1.18.36.62Z"/><path class="cls-2" d="M54.83,28.83l-1.5-4,.8-.3.59,1.56,1.57-.59L55.7,24l.8-.3,1.5,4-.8.3-.66-1.73L55,26.8l.66,1.73Z"/><path class="cls-2" d="M62.24,26.73,62,22.51l3.13-.2.05.71-2.28.15.06.94L65.05,24l0,.71L63,24.82,63.05,26l2.36-.15,0,.71Z"/><path class="cls-2" d="M65.75,26.5l1.64-2.07L66.27,22.3l1,.09L68,23.82l1-1.28,1,.09-1.5,1.93,1.24,2.3-1-.09-.8-1.54L66.76,26.6Z"/><path class="cls-2" d="M73.11,26.11l.74.46a1.86,1.86,0,0,1-3.24,0,2.2,2.2,0,0,1-.14-1.66,2.31,2.31,0,0,1,.93-1.46,1.84,1.84,0,0,1,1.53-.21A1.77,1.77,0,0,1,74,24a1.68,1.68,0,0,1,.23.86H73.4a.82.82,0,0,0-.18-.58.91.91,0,0,0-.51-.33,1,1,0,0,0-.82.14,1.66,1.66,0,0,0-.55,1,1.79,1.79,0,0,0,0,1.18.92.92,0,0,0,.64.51.83.83,0,0,0,.62-.07A1.26,1.26,0,0,0,73.11,26.11Z"/><path class="cls-2" d="M74.22,28.07l1.71-3.87.78.34L76,26.06l1.53.68.67-1.52.78.34-1.71,3.87-.78-.34.75-1.69-1.53-.68L75,28.41Z"/><path class="cls-2" d="M81.26,32l-.78-.51.22-1-1.41-.93-.81.61-.76-.5L81.43,27l.75.5Zm-.39-2.27.38-1.63-1.34,1Z"/><path class="cls-2" d="M81.6,32.27l2.89-3.09.61.57L84.44,33l1.93-2.07.58.54-2.89,3.09L83.43,34l.64-3.18-1.88,2Z"/><path class="cls-2" d="M87.09,35.84l.57-.43,1.11,1.47-1.34,1a2.31,2.31,0,0,1-.83-.34,2.92,2.92,0,0,1-.78-.7,2.29,2.29,0,0,1-.48-1.09,1.74,1.74,0,0,1,.19-1.07,2.73,2.73,0,0,1,.75-.88,2.4,2.4,0,0,1,1.1-.49,1.9,1.9,0,0,1,1.12.17,2.13,2.13,0,0,1,.78.68,2,2,0,0,1,.48,1.18,1.57,1.57,0,0,1-.38,1l-.64-.58a.91.91,0,0,0,.19-.57,1,1,0,0,0-.23-.6,1.19,1.19,0,0,0-.82-.5,1.51,1.51,0,0,0-1,.37,1.67,1.67,0,0,0-.7.95,1.1,1.1,0,0,0,.23.93,1.64,1.64,0,0,0,.41.37,2.25,2.25,0,0,0,.48.22l.43-.32Z"/><path class="cls-2" d="M87.35,38.92l3.75-2,1.45,2.78-.63.33-1.06-2-.83.43,1,1.88-.63.33-1-1.88-1,.53,1.1,2.09-.63.33Z"/><path class="cls-2" d="M35.08,49.42v-.91a1.15,1.15,0,0,1-.62-.37.92.92,0,0,1-.2-.6.84.84,0,0,1,.22-.6.94.94,0,0,1,.6-.28v-.21h.31v.21a1,1,0,0,1,.55.23.89.89,0,0,1,.26.52l-.55.07a.44.44,0,0,0-.26-.35V48a1.46,1.46,0,0,1,.71.36.84.84,0,0,1,.19.57,1,1,0,0,1-.24.66,1,1,0,0,1-.66.33v.4h-.31v-.39a1,1,0,0,1-.61-.28,1.13,1.13,0,0,1-.3-.66l.57-.06a.69.69,0,0,0,.13.3A.47.47,0,0,0,35.08,49.42Zm0-2.28a.38.38,0,0,0-.2.15.4.4,0,0,0-.08.23.31.31,0,0,0,.07.21.49.49,0,0,0,.21.16Zm.31,2.31a.43.43,0,0,0,.36-.43.37.37,0,0,0-.09-.25.58.58,0,0,0-.28-.16v.84Z"/><path class="cls-2" d="M96.81,47.23v.59s-1.42-1-1.91.47a1.38,1.38,0,0,0,0,.92,1.07,1.07,0,0,0,1.9.28v.65a1.48,1.48,0,0,1-2.23-.51,1.91,1.91,0,0,1-.1-1.54C94.72,47.43,95.27,46.6,96.81,47.23Z"/><rect class="cls-2" x="93.98" y="48.33" width="2.45" height="0.24"/><rect class="cls-2" x="93.98" y="48.91" width="2.45" height="0.24"/><path class="cls-2" d="M100.54,55.48l-5-.29.17-2.92,4.95.29ZM95.87,55l4.42.26.14-2.4L96,52.55Z"/><path class="cls-2" d="M95,71.2l-4.3-2.47,1.46-2.54,4.3,2.47ZM91,68.62l3.84,2.21,1.2-2.08-3.84-2.21Z"/><path class="cls-2" d="M97.07,67.58l-4.58-1.9L93.61,63l4.58,1.9Zm-4.24-2,4.1,1.7L97.85,65l-4.1-1.7Z"/><path class="cls-2" d="M98.65,63.71l-4.72-1.53.9-2.79,4.72,1.53ZM94.27,62l4.22,1.36.74-2.28L95,59.73Z"/><path class="cls-2" d="M99.77,59.75l-4.85-1,.61-2.86,4.85,1Zm-4.54-1.24,4.34.92.5-2.35-4.34-.92Z"/><path class="cls-2" d="M86.15,80.71,83.09,76.8,85.4,75l3.06,3.91Zm-2.68-3.86,2.73,3.49,1.89-1.48-2.73-3.49Z"/><path class="cls-2" d="M89.48,77.81l-3.61-3.4,2-2.13,3.61,3.4ZM86.24,74.4l3.22,3,1.65-1.74-3.22-3Z"/><path class="cls-2" d="M92.33,74.76l-3.87-3.11,1.83-2.28,3.87,3.11Zm-3.49-3.15,3.46,2.78,1.5-1.87-3.46-2.78Z"/><path class="cls-2" d="M74.23,86.24l-1.59-4.7,2.77-.94L77,85.3ZM73,81.71l1.42,4.2,2.27-.77-1.42-4.2Z"/><path class="cls-2" d="M78.36,84.77l-2-4.55,2.69-1.16,2,4.55Zm-1.62-4.42,1.76,4.07,2.2-1L78.94,79.4Z"/><path class="cls-2" d="M82.37,82.93l-2.53-4.27,2.52-1.49,2.53,4.27ZM80.2,78.75l2.26,3.81,2.06-1.22-2.26-3.81Z"/><path class="cls-2" d="M69.86,87.18l-.93-4.87,2.87-.55.93,4.87Zm-.62-4.66.83,4.35,2.36-.45-.83-4.35Z"/><path class="cls-2" d="M68.12,87.37H65.19l0-5h2.93Zm-2.66-.28h2.4l0-4.43h-2.4Z"/><path class="cls-2" d="M97.58,54.73v-.14a.55.55,0,0,0,.33-.47,1.21,1.21,0,0,0,0-.19h-.28v-.17h.25a2.51,2.51,0,0,1,0-.3.5.5,0,0,1,.54-.51.64.64,0,0,1,.3.08l-.06.18a.46.46,0,0,0-.24-.06c-.21,0-.31.14-.31.33a2.19,2.19,0,0,0,0,.29h.39V54h-.37a1.08,1.08,0,0,1,0,.31.53.53,0,0,1-.2.29h0l.81,0v.2Z"/><path class="cls-2" d="M97.33,58.73l.11-.48-.42-.1,0-.14.42.1,0-.2-.42-.1,0-.14.36.08-.27-.93.26.06.16.63c0,.1,0,.18.05.27h0a1.5,1.5,0,0,1,.17-.23l.42-.49.25.06-.68.72.36.08,0,.14-.43-.1,0,.2.43.1,0,.14-.43-.1-.11.48Z"/><path class="cls-2" d="M96,62l0-1.47.23.08,0,.84,0,.31.16-.25.48-.7.23.08-.07.84L97,62l.16-.23.49-.69.22.08L97,62.38l-.23-.08.06-.87,0-.24-.62.93Z"/><rect class="cls-2" x="96.61" y="60.62" width="0.14" height="2.15" transform="translate(6.73 132.85) rotate(-70.89)"/><rect class="cls-2" x="96.71" y="60.37" width="0.14" height="2.15" transform="translate(7.04 132.77) rotate(-70.89)"/><path class="cls-2" d="M94.49,65.94l.05-.13a.56.56,0,0,0,.47-.32,1,1,0,0,0,.06-.18l-.26-.11.07-.16.23.1a1.13,1.13,0,0,1,.09-.28.5.5,0,0,1,.69-.29.52.52,0,0,1,.25.18L96,64.9a.49.49,0,0,0-.2-.14c-.2-.08-.33,0-.41.2a1.36,1.36,0,0,0-.08.28l.36.15-.07.16-.34-.15a.9.9,0,0,1-.13.28.55.55,0,0,1-.29.2h0l.75.31-.08.18Z"/><rect class="cls-2" x="95.03" y="65.08" width="0.17" height="0.91" transform="translate(-3.43 125.77) rotate(-66)"/><path class="cls-2" d="M93,69.23l.84-1.51.5.28a.87.87,0,0,1,.19.13.48.48,0,0,1,.13.16.66.66,0,0,1,0,.21.68.68,0,0,1-.07.23.58.58,0,0,1-.29.27.57.57,0,0,1-.47-.08l-.34-.19-.34.61Zm.62-.7.34.19a.4.4,0,0,0,.28.06.31.31,0,0,0,.18-.16.34.34,0,0,0,.05-.19.2.2,0,0,0-.06-.15.49.49,0,0,0-.16-.1L93.87,68Z"/><rect class="cls-2" x="93.35" y="68.53" width="0.19" height="0.92" transform="translate(-12.28 117.08) rotate(-60.89)"/><path class="cls-2" d="M90.79,72.71l.45-.56.1-1.17.21.17-.06.61c0,.11,0,.22,0,.33l.33-.12.57-.18.2.16-1.14.34-.45.56Z"/><rect class="cls-2" x="91.16" y="71.82" width="0.17" height="0.9" transform="translate(-22.19 98.37) rotate(-51.34)"/><path class="cls-2" d="M87.66,75.36l.09-.1a.55.55,0,0,0,.56-.13.88.88,0,0,0,.12-.15l-.2-.2.12-.12.18.18a1.81,1.81,0,0,1,.18-.23.51.51,0,0,1,.75,0,.63.63,0,0,1,.17.26l-.16.09a.5.5,0,0,0-.14-.21.29.29,0,0,0-.45,0,1.62,1.62,0,0,0-.18.23l.28.27-.12.12-.27-.26a.87.87,0,0,1-.22.21.57.57,0,0,1-.34.08h0l.59.57-.14.14Z"/><path class="cls-2" d="M81.61,80.47l.42-.25-.22-.38.12-.07.22.38.17-.1-.22-.38.12-.07.19.31.49-.84.13.23-.35.55-.16.23h0l.28,0,.65,0,.13.22h-1l.19.31-.12.07-.22-.38-.17.1.22.38-.12.07-.22-.38-.42.25Z"/><path class="cls-2" d="M77.8,82l1.52-.69.22.49a.46.46,0,0,1,.06.26.37.37,0,0,1-.08.21.49.49,0,0,1-.18.14.45.45,0,0,1-.2,0,.32.32,0,0,1-.2-.08.43.43,0,0,1,0,.25.48.48,0,0,1-.2.17.54.54,0,0,1-.22,0,.58.58,0,0,1-.19,0,.36.36,0,0,1-.14-.11,1.17,1.17,0,0,1-.12-.2Zm.26.09.15.33a1.29,1.29,0,0,1,.06.12.32.32,0,0,0,.09.08.2.2,0,0,0,.11,0l.14,0a.34.34,0,0,0,.13-.1.23.23,0,0,0,0-.14.49.49,0,0,0-.06-.2l-.14-.3Zm.7-.32.13.28.09.16a.25.25,0,0,0,.12.07.21.21,0,0,0,.15,0,.27.27,0,0,0,.12-.09.2.2,0,0,0,0-.13.63.63,0,0,0-.07-.21l-.12-.26Z"/><rect class="cls-2" x="77.7" y="81.94" width="1.99" height="0.15" transform="translate(-26.92 40) rotate(-24.49)"/><path class="cls-2" d="M73.82,83.21l.13,0a.55.55,0,0,0,.56.13l.18-.08-.1-.26.16-.06.09.24.27-.13a.51.51,0,0,1,.68.31.6.6,0,0,1,0,.3h-.19a.48.48,0,0,0,0-.25.3.3,0,0,0-.42-.17,1.56,1.56,0,0,0-.26.13l.13.37-.16.06-.13-.35a1.08,1.08,0,0,1-.29.09.57.57,0,0,1-.34-.08h0l.28.77-.19.07Z"/><rect class="cls-2" x="74.49" y="82.95" width="0.17" height="0.91" transform="matrix(0.95, -0.32, 0.32, 0.95, -22.7, 28.14)"/><path class="cls-2" d="M65.64,84.86l.72,0,1-.7v.27l-.5.36-.28.19.31.17.51.31v.26l-1-.63-.72,0Z"/><rect class="cls-2" x="66.24" y="84.46" width="0.17" height="0.9" transform="translate(-3.81 3.12) rotate(-2.62)"/><path class="cls-2" d="M69.86,84.4l1.7-.3.1.57a.68.68,0,0,1,0,.23.42.42,0,0,1-.05.2.4.4,0,0,1-.14.15.85.85,0,0,1-.22.09.53.53,0,0,1-.39-.06.56.56,0,0,1-.23-.41l-.07-.39-.69.12Zm.92,0,.07.39a.4.4,0,0,0,.13.26.31.31,0,0,0,.24,0,.3.3,0,0,0,.17-.08.29.29,0,0,0,.08-.14.8.8,0,0,0,0-.19l-.07-.38Z"/><rect class="cls-2" x="70.26" y="84.18" width="0.19" height="0.92" transform="translate(-13.74 13.64) rotate(-10.09)"/><path class="cls-2" d="M67.35,70.22l.06.29-1.65.33a.55.55,0,0,1,0-.22,1.17,1.17,0,0,1,.13-.37,3.58,3.58,0,0,1,.32-.46,3.34,3.34,0,0,0,.44-.64.67.67,0,0,0,.07-.4.42.42,0,0,0-.19-.28.48.48,0,0,0-.36-.06.51.51,0,0,0-.33.2.51.51,0,0,0-.06.39l-.32,0a.78.78,0,0,1,.13-.58.87.87,0,0,1,.53-.3.83.83,0,0,1,.61.08.64.64,0,0,1,.31.45A.81.81,0,0,1,67,69a1.17,1.17,0,0,1-.14.34,4.43,4.43,0,0,1-.38.53l-.29.38-.1.19Z"/><path class="cls-2" d="M67.49,69.22a2.14,2.14,0,0,1,0-.73.87.87,0,0,1,.19-.47.73.73,0,0,1,.42-.24.76.76,0,0,1,.37,0,.67.67,0,0,1,.3.18,1.26,1.26,0,0,1,.23.34,2.4,2.4,0,0,1,.17.58,2.13,2.13,0,0,1,0,.73.87.87,0,0,1-.19.47.73.73,0,0,1-.42.24.71.71,0,0,1-.62-.14A1.87,1.87,0,0,1,67.49,69.22Zm.32-.07a1.53,1.53,0,0,0,.31.79.41.41,0,0,0,.39.13.43.43,0,0,0,.31-.28,1.58,1.58,0,0,0,0-.84,1.62,1.62,0,0,0-.31-.79.42.42,0,0,0-.4-.13.4.4,0,0,0-.3.25A1.59,1.59,0,0,0,67.81,69.15Z"/><path class="cls-2" d="M70.82,69.82l-.31.06-.39-1.95a1.5,1.5,0,0,1-.25.27,2.22,2.22,0,0,1-.29.22l-.06-.3a2,2,0,0,0,.39-.38,1.21,1.21,0,0,0,.2-.39l.2,0Z"/><path class="cls-2" d="M72.81,67.47l-.3.09a.67.67,0,0,0-.17-.24.43.43,0,0,0-.33-.07.41.41,0,0,0-.24.13.77.77,0,0,0-.17.35,1.54,1.54,0,0,0,0,.59.62.62,0,0,1,.22-.3.67.67,0,0,1,.32-.15.73.73,0,0,1,.57.12.84.84,0,0,1,.33.54,1,1,0,0,1,0,.46.67.67,0,0,1-.22.36.72.72,0,0,1-.38.19.79.79,0,0,1-.68-.16,1.45,1.45,0,0,1-.43-.88,1.69,1.69,0,0,1,.05-1.1A.79.79,0,0,1,72,67a.67.67,0,0,1,.51.07A.66.66,0,0,1,72.81,67.47Zm-1,1.32a.64.64,0,0,0,.13.29.44.44,0,0,0,.23.18.5.5,0,0,0,.27,0,.45.45,0,0,0,.3-.22.61.61,0,0,0,.05-.45.58.58,0,0,0-.22-.38.49.49,0,0,0-.7.14A.59.59,0,0,0,71.78,68.79Z"/><path class="cls-2" d="M65.23,79.82l0-3.4h.45l0,3.4Z"/><path class="cls-2" d="M66.83,79.8l-.31-3.39.46,0,2,2.5-.24-2.66.43,0,.31,3.39-.46,0-2-2.5.24,2.66Z"/><path class="cls-2" d="M71.52,79.21l-.6-2.94-1.1.22-.08-.39,2.64-.54.08.39-1.1.22.6,2.94Z"/><path class="cls-2" d="M73.94,78.65l-1.06-3.23,2.34-.77.13.38-1.91.63.33,1,1.79-.59.12.38L73.89,77l.36,1.1,2-.65.13.38Z"/><path class="cls-2" d="M77.39,77.44l-1.51-3,1.35-.67a1.94,1.94,0,0,1,.66-.22.75.75,0,0,1,.48.12,1,1,0,0,1,.35.4.83.83,0,0,1,.06.65,1.18,1.18,0,0,1-.51.6,1.39,1.39,0,0,1,.32,0,2.49,2.49,0,0,1,.54.24l.94.57-.51.25-.72-.44a4.89,4.89,0,0,0-.5-.28,1,1,0,0,0-.31-.1.54.54,0,0,0-.22,0,1.21,1.21,0,0,0-.23.1l-.47.23.67,1.35ZM77,75.54l.87-.43a1.38,1.38,0,0,0,.4-.27.54.54,0,0,0,.15-.3.63.63,0,0,0,0-.31A.51.51,0,0,0,78,74a.8.8,0,0,0-.57.11l-1,.48Z"/><path class="cls-2" d="M80.89,75.61l-2-2.77.38-.27,3,1.14-1.55-2.18.35-.25,2,2.77-.38.27-3-1.14,1.55,2.18Z"/><path class="cls-2" d="M83.79,73.49l-1.45-3.34.35-.34,3.38,1.45-.37.36-1-.46-1,1,.45,1Zm-.28-1.69.82-.81-.91-.42-.67-.33a4.19,4.19,0,0,1,.32.59Z"/><path class="cls-2" d="M86.88,70.21l-2.36-1.86-.69.88L83.51,69l1.67-2.12.32.25-.7.88,2.36,1.86Z"/><path class="cls-2" d="M88.36,68.18,85.5,66.34l.24-.38L88.6,67.8Z"/><path class="cls-2" d="M87.71,66.16a1.88,1.88,0,0,1-1-1,1.55,1.55,0,0,1,.1-1.26,1.64,1.64,0,0,1,.59-.66,1.47,1.47,0,0,1,.82-.23,1.9,1.9,0,0,1,.9.24,2,2,0,0,1,.73.61,1.44,1.44,0,0,1,.28.81,1.61,1.61,0,0,1-.19.83,1.54,1.54,0,0,1-.6.66,1.49,1.49,0,0,1-.82.22A1.93,1.93,0,0,1,87.71,66.16Zm.22-.41a1.33,1.33,0,0,0,1,.14,1.08,1.08,0,0,0,.69-.58,1.11,1.11,0,0,0,.06-.91,1.46,1.46,0,0,0-.76-.75,1.66,1.66,0,0,0-.71-.2,1,1,0,0,0-.61.15,1.12,1.12,0,0,0-.43.46,1.17,1.17,0,0,0-.08.88A1.49,1.49,0,0,0,87.93,65.75Z"/><path class="cls-2" d="M91.05,63.06l-3.2-1.15.16-.43,3.12-.78-2.51-.9.15-.41L92,60.54l-.16.43-3.12.78,2.51.91Z"/><path class="cls-2" d="M92.19,59.79l-3-2.1.12-.47L93,56.71l-.13.5-1.1.13-.35,1.38.91.62Zm-1.11-1.3.28-1.12-1,.11-.74.06a4.19,4.19,0,0,1,.58.34Z"/><path class="cls-2" d="M93.1,56l-3.35-.59.08-.44,3,.52.29-1.65.4.07Z"/><path class="cls-2" d="M61.94,73.69a1.83,1.83,0,1,1,1.77-2.27h0a1.82,1.82,0,0,1-1.34,2.2A1.33,1.33,0,0,1,61.94,73.69Zm0-3.52a1.83,1.83,0,0,0-.4,0,1.66,1.66,0,0,0-1,.77,1.74,1.74,0,0,0-.2,1.28,1.63,1.63,0,0,0,.77,1,1.74,1.74,0,0,0,1.28.2,1.69,1.69,0,0,0,1.24-2A1.71,1.71,0,0,0,61.94,70.17Z"/><path class="cls-2" d="M61.54,73.22l-1-1,.4-1.35,1.37-.33,1,1-.4,1.35Zm-.86-1,.89.94,1.25-.3.37-1.24-.89-.94-1.25.3Z"/><path class="cls-2" d="M63.47,72.26a.17.17,0,0,1-.12.21.17.17,0,0,1-.13,0,.58.58,0,0,1-.14-.17s0,0,0,0a.55.55,0,0,1,.22-.06A.19.19,0,0,1,63.47,72.26Z"/><path class="cls-2" d="M60.94,73a.16.16,0,0,1-.19-.1.16.16,0,0,1,.09-.19.52.52,0,0,1,.21,0,.05.05,0,0,1,.06.06A.33.33,0,0,1,61,73Z"/><path class="cls-2" d="M60.82,71.52s0,0,0,0-.11.08-.19.06h-.07a.15.15,0,0,1-.13-.1.16.16,0,0,1,0-.16.14.14,0,0,1,.17,0A.34.34,0,0,1,60.82,71.52Z"/><path class="cls-2" d="M61.77,70.44a.42.42,0,0,1-.07.29s0,0-.05,0a.52.52,0,0,1-.16-.17.14.14,0,0,1,0-.16.16.16,0,0,1,.17-.06S61.75,70.39,61.77,70.44Z"/><path class="cls-2" d="M63,71.08h-.1c-.09,0-.08,0-.07-.09a.45.45,0,0,1,.07-.18.15.15,0,0,1,.21,0,.2.2,0,0,1,.05.24A.3.3,0,0,1,63,71.08Z"/><path class="cls-2" d="M62.12,70.57a.24.24,0,0,0-.14,0s0,0-.07,0,0,0,0,0a.08.08,0,0,0,0-.08s0,0-.07,0,0,0-.06,0a.07.07,0,0,1,0-.06.11.11,0,0,1,.17-.06.12.12,0,0,0,.1,0,.21.21,0,0,1,.19,0s0,0,0,0-.09.07-.12.12A.11.11,0,0,1,62.12,70.57Z"/><path class="cls-2" d="M61.37,70.54s-.07,0-.07,0,0,0,.06.06,0,0,0,0a.05.05,0,0,1-.07,0,.15.15,0,0,0-.09,0s-.09,0-.13,0a.26.26,0,0,0-.15-.07s0,0,0,0a.17.17,0,0,1,.11-.08.24.24,0,0,0,.17-.09.11.11,0,0,1,.16,0S61.42,70.55,61.37,70.54Z"/><path class="cls-2" d="M63.19,71a.11.11,0,0,1,.15.11.13.13,0,0,0,0,.09.27.27,0,0,1,.08.17s0,.06,0,0-.07,0-.11,0a.14.14,0,0,1-.15-.09.1.1,0,0,0,0,0s0,0,0-.07,0,0,0,0h0a.05.05,0,0,0,.08,0s0-.06,0-.08,0,0,0,0Z"/><path class="cls-2" d="M63.13,72.5c0,.08,0,.12.06.12s.06-.06.06-.11a.12.12,0,0,1,.09.1s0,.09,0,.11-.06.12-.1.17a0,0,0,0,0,0,0s0,.06-.08.06,0,0,0-.07a.49.49,0,0,0,0-.11.08.08,0,0,1,0,0S63.07,72.54,63.13,72.5Z"/><path class="cls-2" d="M62.74,70.8h0a.28.28,0,0,1-.15-.24.19.19,0,0,0,0-.13s0,0,0,0a.19.19,0,0,1,.14.09.15.15,0,0,0,.09.06.13.13,0,0,1,.09.19,0,0,0,0,1,0,0,0,0,0,0,1,0,0s0-.07-.08-.06a.08.08,0,0,0,0,.11A0,0,0,0,0,62.74,70.8Z"/><path class="cls-2" d="M60.76,72.7c0,.07-.1,0-.15,0s-.06,0-.06-.09a.1.1,0,0,0,0-.09.2.2,0,0,1-.08-.17s0,0,0,0a.17.17,0,0,0,.12,0c.06,0,.12,0,.14.08s0,0,0,0a.07.07,0,0,1,0,.06s0,0,0,0,0,0,0,0-.07,0-.09,0,0,.06,0,.07S60.75,72.7,60.76,72.7Z"/><path class="cls-2" d="M60.77,71.28s0-.11-.05-.11-.07,0-.07.09a.08.08,0,0,1-.08-.08.1.1,0,0,1,0-.12.16.16,0,0,0,.07-.11.19.19,0,0,1,.15-.15c0,.08,0,.13,0,.19a.11.11,0,0,1,0,.12.1.1,0,0,0,0,.07A.11.11,0,0,1,60.77,71.28Z"/><path class="cls-2" d="M63.39,72.1s0,0,0,0a.08.08,0,0,0,0-.09s-.05,0-.08,0,0,.05-.07,0,0-.07,0-.1a.16.16,0,0,0,0-.09s.05-.07.09-.09a.2.2,0,0,0,.1-.08s0,0,0,0,0,0,0,0a.2.2,0,0,1,0,.2s0,.06,0,.09a.12.12,0,0,1-.08.16S63.41,72.1,63.39,72.1Z"/><path class="cls-2" d="M60.51,71.68s0,0,0,0,0,.05,0,.08.06,0,.09,0,0-.05,0,0,0,.06,0,.08,0,.18-.16.21a.12.12,0,0,0-.09.11.23.23,0,0,1,0-.21.2.2,0,0,0,0-.13C60.33,71.72,60.41,71.65,60.51,71.68Z"/><path class="cls-2" d="M61.05,73s0,0,0,0,0,.06.08.05,0-.05,0-.09,0,0,0,0,0,0,0,0,.17.13.12.26a.1.1,0,0,0,0,.09s0,0,0,0a.21.21,0,0,1-.16-.1.11.11,0,0,0-.08-.05C61,73.21,61,73.13,61.05,73Z"/><path class="cls-2" d="M63.3,71.48c.05,0,.15,0,.16,0s-.08.13-.11.14a.1.1,0,0,1-.1,0C63.23,71.51,63.24,71.5,63.3,71.48Z"/><path class="cls-2" d="M62.44,70.48a.17.17,0,0,1,0,.07.06.06,0,0,1-.1.06h0s-.07,0-.07,0,0-.08,0-.11l0,0C62.4,70.38,62.42,70.39,62.44,70.48Z"/><path class="cls-2" d="M60.89,70.86s0-.06,0-.09a0,0,0,0,1,0,0,.2.2,0,0,1,.15.05s0,.09,0,.14-.07,0-.1,0S60.9,70.87,60.89,70.86Z"/><path class="cls-2" d="M60.59,72.3a.32.32,0,0,1-.15-.06s0,0,0,0a.23.23,0,0,1,.12-.1.05.05,0,0,1,.08.05s0,0,0,.06S60.64,72.29,60.59,72.3Z"/><path class="cls-2" d="M61.53,72a1.14,1.14,0,0,0-.16-.15s0,0,0-.06,0-.2.08-.31,0,0,0,0-.16,0-.21.2-.08.3-.13.45,0,0,0,0l-.2,0s0,0,0,0c.06-.19.11-.38.17-.58s.05-.18.08-.26a.08.08,0,0,1,.07-.07l.57-.14.15,0a.1.1,0,0,1,.1,0l.11.12s0,0,0,.06a2.44,2.44,0,0,1-.26.06.1.1,0,0,0-.09.09.52.52,0,0,0,0,.11l.14,0a.1.1,0,0,1,.1,0,0,0,0,0,0,0,0c.11.07.1.16.06.27s0,0,0,0,0,0,0,0,.11,0,.12-.11v0a.14.14,0,0,0,0-.21s0,0,0,0,0,0,0,0c.18,0,.18,0,.31.09l.12.12s0,0,.05,0,0,0,0,0,0-.18-.07-.26L62.2,71s0,0,0-.06,0-.11,0-.16,0,0,.06,0l.36.37a3.07,3.07,0,0,0,.25.26.08.08,0,0,1,0,.07c0,.1-.06.2-.08.29s-.05.2-.08.29a1.09,1.09,0,0,0,0,.17.08.08,0,0,1-.05.05l-.18,0s0,0,0,0,.05-.18.08-.27a.08.08,0,0,0,0-.11l0,0s0,0,0,0,0,0,0,.06a.18.18,0,0,1-.23.16s-.06,0-.09-.07,0-.07-.07,0S62,72,62,72s0,0,0,0a1.14,1.14,0,0,0,.11.11s.06,0,.1,0,.12,0,.1.1a.16.16,0,0,1-.14.14l-.25.06s0,0,0,0l.1.1s0,0,.07,0l.54-.13a.11.11,0,0,1,.11,0l.1.1s0,0,0,0-.24.06-.36.09-.31.08-.46.12a.11.11,0,0,1-.13,0l-.49-.51a.1.1,0,0,1,0-.1.83.83,0,0,0,0-.15s0-.06.06,0l.19.2a.22.22,0,0,0,.21,0s0,0,0,0l-.06-.06s0-.07,0-.12a.19.19,0,0,1,.19-.18s0,0,.05,0,0,0,0,0-.07,0-.12,0a.2.2,0,0,0-.2.21C61.54,72,61.53,72,61.53,72Z"/><path class="cls-2" d="M57.31,72.4a1.87,1.87,0,1,1,.44-.06A1.37,1.37,0,0,1,57.31,72.4Zm0-3.51a1.92,1.92,0,0,0-.41,0,1.66,1.66,0,0,0-1,.77,1.74,1.74,0,0,0-.2,1.28,1.69,1.69,0,1,0,3.28-.8h0a1.66,1.66,0,0,0-.77-1A1.45,1.45,0,0,0,57.31,68.89Z"/><path class="cls-2" d="M56.91,71.93l-1-1,.4-1.35,1.37-.33,1,1-.4,1.35Zm-.86-1,.89.94,1.25-.3.37-1.24-.89-.94-1.25.3Z"/><path class="cls-2" d="M58.84,71a.17.17,0,0,1-.12.21.17.17,0,0,1-.13,0,.58.58,0,0,1-.14-.17s0,0,0,0a.55.55,0,0,1,.22-.06A.19.19,0,0,1,58.84,71Z"/><path class="cls-2" d="M56.31,71.73a.16.16,0,0,1-.19-.1.16.16,0,0,1,.09-.19.52.52,0,0,1,.21,0,.05.05,0,0,1,.06.06.33.33,0,0,1-.11.25Z"/><path class="cls-2" d="M56.19,70.24s0,0,0,.05-.11.08-.19.06h-.07a.15.15,0,0,1-.13-.1.16.16,0,0,1,0-.16.14.14,0,0,1,.17,0A.34.34,0,0,1,56.19,70.24Z"/><path class="cls-2" d="M57.14,69.16a.42.42,0,0,1-.07.29s0,0,0,0a.52.52,0,0,1-.16-.17.14.14,0,0,1,0-.16.16.16,0,0,1,.17-.06C57.1,69.07,57.13,69.11,57.14,69.16Z"/><path class="cls-2" d="M58.34,69.8h-.1c-.09,0-.08,0-.07-.09a.45.45,0,0,1,.07-.18.15.15,0,0,1,.21-.05.2.2,0,0,1,0,.24A.3.3,0,0,1,58.34,69.8Z"/><path class="cls-2" d="M57.49,69.28a.24.24,0,0,0-.14,0s-.05,0-.07,0,0,0,0,0a.08.08,0,0,0,0-.08s0,0-.07,0,0,0-.06,0a.07.07,0,0,1,0-.06.11.11,0,0,1,.17-.06.12.12,0,0,0,.1,0,.21.21,0,0,1,.19,0s0,.05,0,.05-.09.07-.12.12S57.52,69.28,57.49,69.28Z"/><path class="cls-2" d="M56.74,69.26s-.07,0-.07,0,0,0,.06.06.05,0,.05,0a.05.05,0,0,1-.07,0,.15.15,0,0,0-.09,0s-.09,0-.13,0a.26.26,0,0,0-.15-.07s0,0,0,0a.17.17,0,0,1,.11-.08.24.24,0,0,0,.17-.09.11.11,0,0,1,.16,0S56.79,69.27,56.74,69.26Z"/><path class="cls-2" d="M58.56,69.76a.11.11,0,0,1,.15.11.13.13,0,0,0,0,.09.27.27,0,0,1,.08.17s0,.06,0,0-.07,0-.11,0a.14.14,0,0,1-.15-.09.1.1,0,0,0-.05,0s0,0,0-.07,0-.05,0,0h0a.05.05,0,0,0,.08,0s0-.06,0-.08,0,0,0,0Z"/><path class="cls-2" d="M58.5,71.22c0,.08,0,.12.06.12s.06-.06.06-.11a.12.12,0,0,1,.09.1s0,.09,0,.11-.06.12-.1.17a0,0,0,0,0,0,0s-.05.06-.08.06,0,0,0-.07a.49.49,0,0,0,0-.11.08.08,0,0,1,0,0A.27.27,0,0,1,58.5,71.22Z"/><path class="cls-2" d="M58.11,69.52h0a.28.28,0,0,1-.15-.24.19.19,0,0,0,0-.13s0,0,0,0a.19.19,0,0,1,.14.09.15.15,0,0,0,.09.06.13.13,0,0,1,.09.19,0,0,0,0,1,0,0,0,0,0,0,1,0,0s0-.07-.08-.06a.08.08,0,0,0,0,.11S58.11,69.51,58.11,69.52Z"/><path class="cls-2" d="M56.13,71.42c-.05.07-.1,0-.15,0s-.06,0-.06-.09a.1.1,0,0,0,0-.09.2.2,0,0,1-.08-.17s0,0,0,0a.17.17,0,0,0,.12,0c.06,0,.12,0,.14.08s0,0,0,0a.07.07,0,0,1,0,.06s0,0,0,0,0,0,0,0-.07,0-.09,0,0,.06,0,.07S56.12,71.42,56.13,71.42Z"/><path class="cls-2" d="M56.14,70s0-.11,0-.11-.07,0-.07.09a.08.08,0,0,1-.08-.08.1.1,0,0,1,0-.12.16.16,0,0,0,.07-.11.19.19,0,0,1,.15-.15c0,.08,0,.13,0,.19a.11.11,0,0,1,0,.12.1.1,0,0,0,0,.07S56.2,70,56.14,70Z"/><path class="cls-2" d="M58.76,70.82s0,0,0,0a.08.08,0,0,0,0-.09s0,0-.08,0,0,.05-.07,0,0-.07,0-.1a.16.16,0,0,0,0-.09c0-.05,0-.07.09-.09a.2.2,0,0,0,.1-.08s0,0,0,0,0,0,0,0a.2.2,0,0,1,0,.2s0,.06,0,.09a.12.12,0,0,1-.08.16S58.78,70.82,58.76,70.82Z"/><path class="cls-2" d="M55.88,70.39s0,0,0,0,0,0,0,.08.06,0,.09,0,0,0,.05,0,0,.06,0,.08,0,.18-.16.21a.12.12,0,0,0-.09.11.23.23,0,0,1,0-.21.2.2,0,0,0,0-.13A.11.11,0,0,1,55.88,70.39Z"/><path class="cls-2" d="M56.42,71.75s0,0,0,0,0,.06.08,0,0,0,0-.09,0,0,0,0,.05,0,.05,0,.17.13.12.26a.1.1,0,0,0,0,.09s0,0,0,0a.21.21,0,0,1-.16-.1.11.11,0,0,0-.08-.05C56.36,71.93,56.34,71.85,56.42,71.75Z"/><path class="cls-2" d="M58.68,70.2s.15,0,.16,0-.08.13-.11.14a.1.1,0,0,1-.1,0C58.6,70.23,58.61,70.22,58.68,70.2Z"/><path class="cls-2" d="M57.81,69.2a.17.17,0,0,1,0,.07.06.06,0,0,1-.1.06h0s-.07,0-.07,0,0-.08,0-.11l0,0C57.77,69.1,57.79,69.11,57.81,69.2Z"/><path class="cls-2" d="M56.26,69.58s0-.06,0-.09a0,0,0,0,1,0,0,.2.2,0,0,1,.15.05s0,.09,0,.14-.07,0-.1,0S56.27,69.59,56.26,69.58Z"/><path class="cls-2" d="M56,71a.32.32,0,0,1-.15-.06s0,0,0,0a.23.23,0,0,1,.12-.1.05.05,0,0,1,.08.05s0,0,0,.06A.07.07,0,0,1,56,71Z"/><path class="cls-2" d="M56.9,70.74a1.14,1.14,0,0,0-.16-.15s0,0,0-.06.05-.2.08-.31,0,0,0,0-.16,0-.21.2-.08.3-.13.45,0,0,0,0l-.2,0s0,0,0,0c.06-.19.11-.38.17-.58s0-.18.08-.26A.08.08,0,0,1,56.5,70l.57-.14.15,0a.1.1,0,0,1,.1,0l.11.12s0,0,0,.06a2.44,2.44,0,0,1-.26.06.1.1,0,0,0-.09.09.52.52,0,0,0,0,.11l.14,0a.1.1,0,0,1,.1,0,0,0,0,0,0,0,0c.11.07.1.16.06.27s0,0,0,0,0,0,0,0,.11,0,.12-.11v0a.14.14,0,0,0,0-.21s0,0,0,0,0,0,0,0c.18,0,.18,0,.31.09l.12.12s0,0,.05,0,0,0,0,0,0-.18-.07-.26l-.33-.34s0,0,0-.06,0-.11.05-.16,0,0,.06,0l.36.37a3.07,3.07,0,0,0,.25.26.08.08,0,0,1,0,.07c0,.1-.06.2-.08.29s-.05.2-.08.29a1.09,1.09,0,0,0-.05.17A.08.08,0,0,1,58,71l-.18,0s-.05,0,0,0,0-.18.08-.27a.08.08,0,0,0,0-.11l0,0s0,0,0,0,0,0,0,.06a.18.18,0,0,1-.23.16s-.06,0-.09-.07,0-.07-.07,0,0,.07,0,.11,0,0,0,0a1.14,1.14,0,0,0,.11.11s.06,0,.1,0,.12,0,.1.1a.16.16,0,0,1-.14.14l-.25.06s0,0,0,0l.1.1s0,0,.07,0l.54-.13a.11.11,0,0,1,.11,0,.47.47,0,0,0,.1.1s0,0,0,0-.24.06-.36.09-.31.08-.46.12a.11.11,0,0,1-.13,0l-.49-.51a.1.1,0,0,1,0-.1.83.83,0,0,0,0-.15s0-.06.06,0L57,71a.22.22,0,0,0,.21,0s0,0,0,0l-.06-.06s0-.07,0-.12a.19.19,0,0,1,.19-.18s0,0,0,0,0,0,0,0-.07,0-.12,0a.2.2,0,0,0-.2.21C56.91,70.72,56.91,70.72,56.9,70.74Z"/><path class="cls-2" d="M53.31,70.08a1.85,1.85,0,0,1-.94-.26,1.81,1.81,0,1,1,1.39.22A3.75,3.75,0,0,1,53.31,70.08Zm0-3.51a1.92,1.92,0,0,0-.41.05,1.69,1.69,0,0,0,.8,3.28,1.66,1.66,0,0,0,1-.77,1.74,1.74,0,0,0,.2-1.28h0a1.66,1.66,0,0,0-.77-1A1.64,1.64,0,0,0,53.32,66.57Z"/><path class="cls-2" d="M52.91,69.61l-1-1,.4-1.35,1.37-.33,1,1-.4,1.35Zm-.85-1,.89.94,1.25-.3L54.57,68,53.68,67l-1.25.3Z"/><path class="cls-2" d="M54.84,68.66a.17.17,0,0,1-.12.21.17.17,0,0,1-.13-.05.58.58,0,0,1-.14-.17s0,0,0-.05a.55.55,0,0,1,.22-.06A.15.15,0,0,1,54.84,68.66Z"/><path class="cls-2" d="M52.32,69.41a.16.16,0,0,1-.19-.1.16.16,0,0,1,.09-.19.52.52,0,0,1,.21,0,.05.05,0,0,1,.06.06.33.33,0,0,1-.11.25Z"/><path class="cls-2" d="M52.19,67.91s0,0,0,0S52.08,68,52,68h-.07a.15.15,0,0,1-.13-.1.16.16,0,0,1,0-.16.14.14,0,0,1,.17,0A.31.31,0,0,1,52.19,67.91Z"/><path class="cls-2" d="M53.15,66.83a.42.42,0,0,1-.07.29s0,0,0,0a.52.52,0,0,1-.16-.17.14.14,0,0,1,0-.16.16.16,0,0,1,.17-.06A.16.16,0,0,1,53.15,66.83Z"/><path class="cls-2" d="M54.34,67.48h-.1c-.09,0-.08,0-.07-.09a.45.45,0,0,1,.07-.18.15.15,0,0,1,.21,0,.2.2,0,0,1,0,.24A.4.4,0,0,1,54.34,67.48Z"/><path class="cls-2" d="M53.49,67a.24.24,0,0,0-.14,0s-.05,0-.07,0,0,0,0,0a.08.08,0,0,0,0-.08s0,0-.07,0,0,0-.06,0a.07.07,0,0,1,0-.06.12.12,0,0,1,.17-.07.12.12,0,0,0,.1,0,.21.21,0,0,1,.19,0s0,.05,0,.05-.09.07-.12.12S53.52,67,53.49,67Z"/><path class="cls-2" d="M52.74,66.93s-.07,0-.07,0,0,0,.06.06.05,0,.05,0a.05.05,0,0,1-.07,0,.15.15,0,0,0-.09,0s-.09,0-.13,0a.26.26,0,0,0-.15-.07s0,0,0,0a.17.17,0,0,1,.11-.08.24.24,0,0,0,.17-.09.11.11,0,0,1,.16,0S52.8,66.94,52.74,66.93Z"/><path class="cls-2" d="M54.56,67.43a.11.11,0,0,1,.15.11.13.13,0,0,0,0,.09.27.27,0,0,1,.08.17s0,.06,0,0-.07,0-.11,0a.14.14,0,0,1-.15-.09.1.1,0,0,0-.05,0s0,0,0-.07,0,0,0,0,0,0,0,0a.05.05,0,0,0,.08,0s0-.06,0-.08,0,0,0,0Z"/><path class="cls-2" d="M54.51,68.89c0,.08,0,.12.06.12s.06-.06.06-.11a.12.12,0,0,1,.09.1s0,.09,0,.11-.06.12-.1.17a0,0,0,0,0,0,0s0,.06-.08.06,0-.05,0-.07a.49.49,0,0,0,0-.11.08.08,0,0,1,0,0S54.45,68.93,54.51,68.89Z"/><path class="cls-2" d="M54.11,67.2h0a.28.28,0,0,1-.15-.24.19.19,0,0,0,0-.13s0,0,0,0a.19.19,0,0,1,.14.09.15.15,0,0,0,.09.06.13.13,0,0,1,.09.19,0,0,0,0,1,0,0,0,0,0,0,1,0,0s0-.07-.08-.06a.08.08,0,0,0,0,.11Z"/><path class="cls-2" d="M52.14,69.1c0,.07-.1,0-.15,0s-.06-.05-.06-.09a.1.1,0,0,0,0-.09.2.2,0,0,1-.08-.17s0,0,0,0a.17.17,0,0,0,.12,0c.06,0,.12,0,.14.08s0,0,0,0a.07.07,0,0,1,0,.06s0,0,0,0,0,0,0,0-.07,0-.09,0,0,.06,0,.07Z"/><path class="cls-2" d="M52.14,67.67s0-.11,0-.11-.07,0-.07.09a.08.08,0,0,1-.08-.08.1.1,0,0,1,0-.12.16.16,0,0,0,.07-.11.19.19,0,0,1,.15-.15c0,.08,0,.13,0,.19a.11.11,0,0,1,0,.12.1.1,0,0,0,0,.07C52.21,67.62,52.21,67.66,52.14,67.67Z"/><path class="cls-2" d="M54.76,68.5s0,0,0,0a.08.08,0,0,0,0-.09s0,0-.08,0,0,0-.07,0,0-.07,0-.1a.16.16,0,0,0,0-.09s0-.07.09-.09a.2.2,0,0,0,.1-.08s0,0,0,0,0,0,0,0a.2.2,0,0,1,0,.2s0,.06,0,.09a.12.12,0,0,1-.08.16Z"/><path class="cls-2" d="M51.88,68.07s0,0,0,0,0,.05,0,.08.06,0,.09,0,0-.05.05,0,0,.06,0,.08,0,.18-.16.21a.12.12,0,0,0-.09.11.23.23,0,0,1,0-.21.2.2,0,0,0,0-.13A.11.11,0,0,1,51.88,68.07Z"/><path class="cls-2" d="M52.42,69.42s0,0,0,0,0,.06.08.05,0-.05,0-.09,0,0,0,0,.05,0,.05,0,.17.13.12.26a.1.1,0,0,0,0,.09s0,0,0,0a.21.21,0,0,1-.16-.1.11.11,0,0,0-.08-.05C52.37,69.6,52.34,69.52,52.42,69.42Z"/><path class="cls-2" d="M54.68,67.88s.15,0,.16.05-.08.13-.11.14a.1.1,0,0,1-.1,0C54.61,67.9,54.61,67.89,54.68,67.88Z"/><path class="cls-2" d="M53.82,66.88a.17.17,0,0,1,0,.07.06.06,0,0,1-.1.06h0s-.07,0-.07,0,0-.08,0-.11l0,0C53.77,66.78,53.8,66.79,53.82,66.88Z"/><path class="cls-2" d="M52.26,67.25s0-.06,0-.09a0,0,0,0,1,0,0,.2.2,0,0,1,.15.05s0,.09,0,.14-.07,0-.1,0S52.27,67.27,52.26,67.25Z"/><path class="cls-2" d="M52,68.69a.32.32,0,0,1-.15-.06s0,0,0,0a.23.23,0,0,1,.12-.1.05.05,0,0,1,.08.05s0,0,0,.06S52,68.68,52,68.69Z"/><path class="cls-2" d="M52.9,68.41a1.14,1.14,0,0,0-.16-.15s0,0,0-.06.05-.2.08-.31,0,0,0,0-.16,0-.21.2-.08.3-.13.45,0,0,0,0l-.2,0s0,0,0,0c.06-.19.11-.38.17-.58s0-.18.08-.26a.08.08,0,0,1,.07-.07l.57-.14.15,0a.1.1,0,0,1,.1,0l.11.12s0,0,0,.06a2.44,2.44,0,0,1-.26.06.1.1,0,0,0-.09.09.52.52,0,0,0,0,.11l.14,0a.1.1,0,0,1,.1,0,0,0,0,0,0,0,0c.11.07.1.16.06.27s0,0,0,0,0,0,0,0,.11,0,.12-.11v0a.14.14,0,0,0,0-.21s0,0,0,0,0,0,0,0c.18,0,.18,0,.31.09l.12.12s0,0,.05,0,0,0,0,0,0-.18-.07-.26l-.33-.34s0,0,0-.06,0-.11.05-.16,0,0,.06,0l.36.37a3.07,3.07,0,0,0,.25.26.08.08,0,0,1,0,.07c0,.1-.06.2-.08.29s-.05.2-.08.29a1.09,1.09,0,0,0-.05.17.08.08,0,0,1,0,.05l-.18,0s-.05,0,0,0,0-.18.08-.27a.08.08,0,0,0,0-.11l0,0s0,0,0,0,0,0,0,.06a.18.18,0,0,1-.23.16s-.06,0-.09-.07,0-.07-.07,0,0,.07,0,.11,0,0,0,0a1.14,1.14,0,0,0,.11.11s.06,0,.1,0,.12,0,.1.1a.16.16,0,0,1-.14.14l-.25.06s0,0,0,0l.1.1s0,0,.07,0L54,68.9a.11.11,0,0,1,.11,0l.1.1s0,0,0,0-.24.06-.36.09-.31.08-.46.12a.11.11,0,0,1-.13,0l-.49-.51a.1.1,0,0,1,0-.1.83.83,0,0,0,0-.15s0-.06.06,0l.19.2a.22.22,0,0,0,.21,0s0,0,0,0l-.06-.06s0-.07,0-.12a.19.19,0,0,1,.19-.18s0,0,0,0,0,0,0,0-.07,0-.12,0a.2.2,0,0,0-.2.21C52.91,68.39,52.91,68.4,52.9,68.41Z"/><path class="cls-2" d="M84.87,78,86.2,77l.36.46a1.58,1.58,0,0,1,.17.25.66.66,0,0,1,.06.27.7.7,0,0,1-.1.34,1.08,1.08,0,0,1-.27.3,1.19,1.19,0,0,1-.3.18.74.74,0,0,1-.27.06.53.53,0,0,1-.22,0,.62.62,0,0,1-.19-.11.92.92,0,0,1-.19-.2Zm.29,0,.23.28a.84.84,0,0,0,.19.19.29.29,0,0,0,.16.06.47.47,0,0,0,.25,0,1,1,0,0,0,.28-.17.83.83,0,0,0,.27-.32.49.49,0,0,0,0-.29,1.07,1.07,0,0,0-.15-.25l-.22-.28Z"/><polygon class="cls-2" points="86.63 78.7 85.45 77.2 85.58 77.11 86.76 78.61 86.63 78.7"/><polygon class="cls-2" points="86.25 79 85.07 77.5 85.2 77.41 86.38 78.91 86.25 79"/></g></g></svg>